SplineFontDB: 3.2
FontName: IRLotus-Italic
FullName: IRLotus-Italic
FamilyName: IRLotus
Weight: Book
Copyright: Copyright (c) 2022, Information Technology Organization of Iran (ito.gov.ir)
Version: 1.000
ItalicAngle: 0
UnderlinePosition: -1000
UnderlineWidth: 60
Ascent: 1638
Descent: 410
InvalidEm: 0
sfntRevision: 0x00010000
LayerCount: 2
Layer: 0 1 "Back" 1
Layer: 1 1 "Fore" 0
XUID: [1021 420 722297922 4444344]
StyleMap: 0x0001
FSType: 0
OS2Version: 3
OS2_WeightWidthSlopeOnly: 0
OS2_UseTypoMetrics: 0
CreationTime: 1356336081
ModificationTime: 1662627725
PfmFamily: 17
TTFWeight: 400
TTFWidth: 5
LineGap: 100
VLineGap: 0
Panose: 2 0 5 6 0 0 0 9 0 2
OS2TypoAscent: 1733
OS2TypoAOffset: 0
OS2TypoDescent: -1287
OS2TypoDOffset: 0
OS2TypoLinegap: 300
OS2WinAscent: 1733
OS2WinAOffset: 0
OS2WinDescent: 1287
OS2WinDOffset: 0
HheadAscent: 1733
HheadAOffset: 0
HheadDescent: -1287
HheadDOffset: 0
OS2SubXSize: 1434
OS2SubYSize: 1331
OS2SubXOff: 0
OS2SubYOff: 293
OS2SupXSize: 1434
OS2SupYSize: 1331
OS2SupXOff: 0
OS2SupYOff: 928
OS2StrikeYSize: 50
OS2StrikeYPos: 250
OS2CapHeight: 1107
OS2XHeight: 1110
OS2FamilyClass: 2048
OS2Vendor: 'PARS'
OS2CodePages: 20000041.00000000
OS2UnicodeRanges: 00002003.00000000.00000000.00000000
Lookup: 1 1 0 "'isol' Isolated Forms in Arabic lookup 0" { "'isol' Isolated Forms in Arabic lookup 0 subtable"  } ['isol' ('arab' <'dflt' > ) ]
Lookup: 1 1 0 "'init' Initial Forms in Arabic lookup 1" { "'init' Initial Forms in Arabic lookup 1 subtable"  } ['init' ('arab' <'dflt' > ) ]
Lookup: 1 1 0 "'medi' Medial Forms in Arabic lookup 2" { "'medi' Medial Forms in Arabic lookup 2 subtable"  } ['medi' ('arab' <'dflt' > ) ]
Lookup: 1 1 0 "'fina' Terminal Forms in Arabic lookup 3" { "'fina' Terminal Forms in Arabic lookup 3 subtable"  } ['fina' ('arab' <'dflt' > ) ]
Lookup: 4 1 0 "'ccmp' Glyph Composition/Decomposition in Arabic lookup 4" { "'ccmp' Glyph Composition/Decomposition in Arabic lookup 4 subtable"  } ['ccmp' ('arab' <'dflt' > ) ]

StartChar: quotedbl
Encoding: 34 34 1
Width: 442
Flags: W
LayerCount: 2
Fore
SplineSet
-187 1219 m 1,0,-1
 -93 1219 l 1,1,-1
 -51 923 l 1,2,-1
 -113 923 l 1,3,-1
 -187 1219 l 1,0,-1
8 1219 m 1,4,-1
 101 1219 l 1,5,-1
 144 923 l 1,6,-1
 82 923 l 1,7,-1
 8 1219 l 1,4,-1
EndSplineSet
EndChar

StartChar: numbersign
Encoding: 35 35 2
Width: 870
Flags: W
LayerCount: 2
Fore
SplineSet
711 377 m 1,0,-1
 575 0 l 1,1,-1
 475 0 l 1,2,-1
 610 377 l 1,3,-1
 377 377 l 1,4,-1
 240 0 l 1,5,-1
 137 0 l 1,6,-1
 275 377 l 1,7,-1
 88 377 l 1,8,-1
 108 471 l 1,9,-1
 311 471 l 1,10,-1
 397 705 l 1,11,-1
 204 705 l 1,12,-1
 225 801 l 1,13,-1
 430 801 l 1,14,-1
 560 1153 l 1,15,-1
 661 1153 l 1,16,-1
 532 801 l 1,17,-1
 764 801 l 1,18,-1
 890 1153 l 1,19,-1
 993 1153 l 1,20,-1
 864 801 l 1,21,-1
 1034 801 l 1,22,-1
 1013 705 l 1,23,-1
 831 705 l 1,24,-1
 745 471 l 1,25,-1
 919 471 l 1,26,-1
 899 377 l 1,27,-1
 711 377 l 1,0,-1
411 471 m 1,28,-1
 645 471 l 1,29,-1
 729 705 l 1,30,-1
 497 705 l 1,31,-1
 411 471 l 1,28,-1
EndSplineSet
EndChar

StartChar: dollar
Encoding: 36 36 3
Width: 870
Flags: W
LayerCount: 2
Fore
SplineSet
899 870 m 1,0,1
 898 981 898 981 850 1038.5 c 128,-1,2
 802 1096 802 1096 696 1110 c 1,3,-1
 605 682 l 1,4,5
 674 634 674 634 717.5 602.5 c 128,-1,6
 761 571 761 571 788 546.5 c 128,-1,7
 815 522 815 522 830 501 c 128,-1,8
 845 480 845 480 858 453 c 1,9,10
 866 427 866 427 867.5 384.5 c 128,-1,11
 869 342 869 342 860 297 c 0,12,13
 846 234 846 234 810.5 181.5 c 128,-1,14
 775 129 775 129 724 92 c 0,15,16
 697 73 697 73 670.5 59.5 c 128,-1,17
 644 46 644 46 614 35.5 c 128,-1,18
 584 25 584 25 547 17 c 128,-1,19
 510 9 510 9 461 0 c 1,20,-1
 428 -152 l 1,21,-1
 366 -152 l 1,22,-1
 399 0 l 1,23,24
 346 2 346 2 304 7.5 c 128,-1,25
 262 13 262 13 226.5 23 c 128,-1,26
 191 33 191 33 159 48.5 c 128,-1,27
 127 64 127 64 94 88 c 1,28,-1
 142 315 l 1,29,-1
 168 315 l 1,30,31
 170 178 170 178 228 113.5 c 128,-1,32
 286 49 286 49 408 47 c 1,33,-1
 513 541 l 1,34,35
 474 565 474 565 446.5 584 c 128,-1,36
 419 603 419 603 398.5 619.5 c 128,-1,37
 378 636 378 636 362.5 651 c 128,-1,38
 347 666 347 666 333 684 c 0,39,40
 290 733 290 733 277.5 781.5 c 128,-1,41
 265 830 265 830 279 893 c 0,42,43
 291 949 291 949 326.5 998.5 c 128,-1,44
 362 1048 362 1048 414 1083 c 0,45,46
 441 1100 441 1100 464.5 1112 c 128,-1,47
 488 1124 488 1124 514.5 1132 c 128,-1,48
 541 1140 541 1140 572 1145.5 c 128,-1,49
 603 1151 603 1151 644 1155 c 1,50,-1
 668 1266 l 1,51,-1
 730 1266 l 1,52,-1
 706 1155 l 1,53,54
 758 1149 758 1149 798.5 1141 c 128,-1,55
 839 1133 839 1133 869.5 1121.5 c 128,-1,56
 900 1110 900 1110 923 1095.5 c 128,-1,57
 946 1081 946 1081 964 1063 c 1,58,-1
 923 870 l 1,59,-1
 899 870 l 1,0,1
634 1110 m 1,60,61
 447 1073 447 1073 416 930 c 0,62,63
 410 899 410 899 412 874.5 c 128,-1,64
 414 850 414 850 429 825.5 c 128,-1,65
 444 801 444 801 473 773.5 c 128,-1,66
 502 746 502 746 549 709 c 1,67,-1
 634 1110 l 1,60,61
470 47 m 1,68,69
 578 67 578 67 635 116.5 c 128,-1,70
 692 166 692 166 710 254 c 0,71,72
 719 296 719 296 717.5 327 c 128,-1,73
 716 358 716 358 700.5 385.5 c 128,-1,74
 685 413 685 413 653 442 c 128,-1,75
 621 471 621 471 569 510 c 1,76,-1
 470 47 l 1,68,69
EndSplineSet
EndChar

StartChar: percent
Encoding: 37 37 4
Width: 1450
Flags: W
LayerCount: 2
Fore
SplineSet
1300 645 m 0,0,1
 1388 645 1388 645 1424 598.5 c 128,-1,2
 1460 552 1460 552 1440 461 c 0,3,4
 1429 410 1429 410 1408 359 c 128,-1,5
 1387 308 1387 308 1357.5 260 c 128,-1,6
 1328 212 1328 212 1291 168.5 c 128,-1,7
 1254 125 1254 125 1212 88 c 0,8,9
 1158 43 1158 43 1104.5 21.5 c 128,-1,10
 1051 0 1051 0 989 0 c 0,11,12
 942 0 942 0 907 16 c 128,-1,13
 872 32 872 32 851 61 c 128,-1,14
 830 90 830 90 824 131 c 128,-1,15
 818 172 818 172 829 223 c 0,16,17
 847 306 847 306 895 382 c 128,-1,18
 943 458 943 458 1008.5 516.5 c 128,-1,19
 1074 575 1074 575 1150 610 c 128,-1,20
 1226 645 1226 645 1300 645 c 0,0,1
1301 590 m 0,21,22
 1224 590 1224 590 1129 489 c 0,23,24
 1099 454 1099 454 1069.5 412 c 128,-1,25
 1040 370 1040 370 1015 326.5 c 128,-1,26
 990 283 990 283 972 241 c 128,-1,27
 954 199 954 199 947 164 c 0,28,29
 936 113 936 113 959 82 c 128,-1,30
 982 51 982 51 1030 51 c 256,31,32
 1078 51 1078 51 1123 74.5 c 128,-1,33
 1168 98 1168 98 1222 152 c 0,34,35
 1252 182 1252 182 1279.5 218.5 c 128,-1,36
 1307 255 1307 255 1329.5 294 c 128,-1,37
 1352 333 1352 333 1368.5 373.5 c 128,-1,38
 1385 414 1385 414 1393 451 c 0,39,40
 1399 479 1399 479 1395 504.5 c 128,-1,41
 1391 530 1391 530 1378.5 549 c 128,-1,42
 1366 568 1366 568 1346 579 c 128,-1,43
 1326 590 1326 590 1301 590 c 0,21,22
345 -23 m 1,44,-1
 1187 1067 l 1,45,46
 1157 1052 1157 1052 1133 1042.5 c 128,-1,47
 1109 1033 1109 1033 1086 1027 c 128,-1,48
 1063 1021 1063 1021 1038.5 1018.5 c 128,-1,49
 1014 1016 1014 1016 983 1016 c 0,50,51
 946 1016 946 1016 921.5 1020 c 128,-1,52
 897 1024 897 1024 874 1032 c 1,53,54
 877 1009 877 1009 876 991.5 c 128,-1,55
 875 974 875 974 870 954 c 0,56,57
 854 877 854 877 810.5 797.5 c 128,-1,58
 767 718 767 718 705.5 652.5 c 128,-1,59
 644 587 644 587 570 545.5 c 128,-1,60
 496 504 496 504 418 504 c 0,61,62
 375 504 375 504 341.5 521 c 128,-1,63
 308 538 308 538 286.5 568 c 128,-1,64
 265 598 265 598 257.5 638.5 c 128,-1,65
 250 679 250 679 260 725 c 0,66,67
 278 808 278 808 326 885 c 128,-1,68
 374 962 374 962 440 1021.5 c 128,-1,69
 506 1081 506 1081 583.5 1117 c 128,-1,70
 661 1153 661 1153 737 1153 c 0,71,72
 758 1153 758 1153 772.5 1151 c 128,-1,73
 787 1149 787 1149 799.5 1144 c 128,-1,74
 812 1139 812 1139 823 1130 c 128,-1,75
 834 1121 834 1121 847 1106 c 0,76,77
 871 1077 871 1077 903 1068 c 128,-1,78
 935 1059 935 1059 989 1059 c 0,79,80
 1029 1059 1029 1059 1065 1065 c 128,-1,81
 1101 1071 1101 1071 1135.5 1084.5 c 128,-1,82
 1170 1098 1170 1098 1206.5 1120.5 c 128,-1,83
 1243 1143 1243 1143 1285 1176 c 1,84,-1
 1353 1176 l 1,85,-1
 427 -23 l 1,86,-1
 345 -23 l 1,44,-1
829 1044 m 1,87,88
 811 1050 811 1050 799 1055 c 128,-1,89
 787 1060 787 1060 777.5 1065 c 128,-1,90
 768 1070 768 1070 760 1075.5 c 128,-1,91
 752 1081 752 1081 743 1090 c 0,92,93
 738 1098 738 1098 734.5 1099 c 128,-1,94
 731 1100 731 1100 725 1100 c 0,95,96
 683 1100 683 1100 628.5 1060 c 128,-1,97
 574 1020 574 1020 520 946 c 0,98,99
 496 913 496 913 473.5 876 c 128,-1,100
 451 839 451 839 432.5 802 c 128,-1,101
 414 765 414 765 400.5 730.5 c 128,-1,102
 387 696 387 696 381 668 c 0,103,104
 371 620 371 620 392 591.5 c 128,-1,105
 413 563 413 563 461 563 c 0,106,107
 513 563 513 563 571 597 c 128,-1,108
 629 631 629 631 681 687 c 128,-1,109
 733 743 733 743 772.5 813.5 c 128,-1,110
 812 884 812 884 828 958 c 0,111,112
 833 978 833 978 832.5 999.5 c 128,-1,113
 832 1021 832 1021 829 1044 c 1,87,88
EndSplineSet
EndChar

StartChar: ampersand
Encoding: 38 38 5
Width: 1354
Flags: W
LayerCount: 2
Fore
SplineSet
1386 705 m 1,0,1
 1353 701 1353 701 1328 694.5 c 128,-1,2
 1303 688 1303 688 1281.5 677 c 128,-1,3
 1260 666 1260 666 1240.5 648 c 128,-1,4
 1221 630 1221 630 1200 602 c 2,5,-1
 1138 522 l 2,6,7
 1111 487 1111 487 1086 456 c 128,-1,8
 1061 425 1061 425 1034.5 394 c 128,-1,9
 1008 363 1008 363 978 330.5 c 128,-1,10
 948 298 948 298 909 260 c 1,11,12
 998 100 998 100 1143 100 c 0,13,14
 1168 100 1168 100 1188.5 105 c 128,-1,15
 1209 110 1209 110 1229 121 c 128,-1,16
 1249 132 1249 132 1270.5 149.5 c 128,-1,17
 1292 167 1292 167 1321 193 c 1,18,-1
 1343 174 l 1,19,20
 1284 80 1284 80 1204 28.5 c 128,-1,21
 1124 -23 1124 -23 1037 -23 c 0,22,23
 962 -23 962 -23 901.5 14.5 c 128,-1,24
 841 52 841 52 776 135 c 1,25,26
 717 92 717 92 665.5 62 c 128,-1,27
 614 32 614 32 565 13 c 128,-1,28
 516 -6 516 -6 467.5 -14.5 c 128,-1,29
 419 -23 419 -23 366 -23 c 0,30,31
 223 -23 223 -23 161 48 c 128,-1,32
 99 119 99 119 125 244 c 0,33,34
 149 354 149 354 234.5 445.5 c 128,-1,35
 320 537 320 537 477 618 c 2,36,-1
 551 655 l 1,37,38
 543 704 543 704 539 740.5 c 128,-1,39
 535 777 535 777 534.5 806.5 c 128,-1,40
 534 836 534 836 537 860.5 c 128,-1,41
 540 885 540 885 545 909 c 0,42,43
 557 965 557 965 588 1014 c 128,-1,44
 619 1063 619 1063 662.5 1099 c 128,-1,45
 706 1135 706 1135 759.5 1155.5 c 128,-1,46
 813 1176 813 1176 870 1176 c 0,47,48
 921 1176 921 1176 961 1160.5 c 128,-1,49
 1001 1145 1001 1145 1026 1117.5 c 128,-1,50
 1051 1090 1051 1090 1060 1051.5 c 128,-1,51
 1069 1013 1069 1013 1059 967 c 0,52,53
 1050 923 1050 923 1025 880.5 c 128,-1,54
 1000 838 1000 838 968 807 c 0,55,56
 945 787 945 787 922.5 770.5 c 128,-1,57
 900 754 900 754 872 738 c 128,-1,58
 844 722 844 722 809 705.5 c 128,-1,59
 774 689 774 689 727 668 c 1,60,61
 742 612 742 612 758 566 c 128,-1,62
 774 520 774 520 792.5 477.5 c 128,-1,63
 811 435 811 435 832 394.5 c 128,-1,64
 853 354 853 354 878 309 c 1,65,66
 932 364 932 364 972 410 c 128,-1,67
 1012 456 1012 456 1040 495 c 128,-1,68
 1068 534 1068 534 1084 566.5 c 128,-1,69
 1100 599 1100 599 1106 627 c 0,70,71
 1110 645 1110 645 1107.5 658.5 c 128,-1,72
 1105 672 1105 672 1094.5 681.5 c 128,-1,73
 1084 691 1084 691 1064 696.5 c 128,-1,74
 1044 702 1044 702 1011 705 c 1,75,-1
 1019 741 l 1,76,-1
 1394 741 l 1,77,-1
 1386 705 l 1,0,1
711 725 m 1,78,79
 771 753 771 753 816 781.5 c 128,-1,80
 861 810 861 810 892 840 c 128,-1,81
 923 870 923 870 941.5 903 c 128,-1,82
 960 936 960 936 968 973 c 0,83,84
 982 1038 982 1038 952.5 1079 c 128,-1,85
 923 1120 923 1120 861 1120 c 0,86,87
 831 1120 831 1120 804 1109.5 c 128,-1,88
 777 1099 777 1099 755.5 1080 c 128,-1,89
 734 1061 734 1061 718.5 1035.5 c 128,-1,90
 703 1010 703 1010 697 979 c 0,91,92
 690 948 690 948 688 920 c 128,-1,93
 686 892 686 892 687.5 862.5 c 128,-1,94
 689 833 689 833 695 800 c 128,-1,95
 701 767 701 767 711 725 c 1,78,79
565 598 m 1,96,97
 501 560 501 560 454.5 526.5 c 128,-1,98
 408 493 408 493 376.5 459.5 c 128,-1,99
 345 426 345 426 326.5 390.5 c 128,-1,100
 308 355 308 355 299 313 c 0,101,102
 288 262 288 262 296.5 217.5 c 128,-1,103
 305 173 305 173 328.5 140 c 128,-1,104
 352 107 352 107 389 87.5 c 128,-1,105
 426 68 426 68 473 68 c 0,106,107
 500 68 500 68 528.5 74 c 128,-1,108
 557 80 557 80 589 93.5 c 128,-1,109
 621 107 621 107 658.5 128 c 128,-1,110
 696 149 696 149 740 180 c 1,111,112
 713 227 713 227 691 269.5 c 128,-1,113
 669 312 669 312 648.5 359.5 c 128,-1,114
 628 407 628 407 608 464.5 c 128,-1,115
 588 522 588 522 565 598 c 1,96,97
EndSplineSet
EndChar

StartChar: quotesingle
Encoding: 39 39 6
Width: 353
Flags: W
LayerCount: 2
Fore
SplineSet
-128 1219 m 1,0,-1
 -35 1219 l 1,1,-1
 6 923 l 1,2,-1
 -54 923 l 1,3,-1
 -128 1219 l 1,0,-1
EndSplineSet
EndChar

StartChar: asterisk
Encoding: 42 42 7
Width: 712
Flags: W
LayerCount: 2
Fore
SplineSet
256 656 m 1,0,-1
 284 523 l 2,1,2
 287 511 287 511 281.5 501.5 c 128,-1,3
 276 492 276 492 262 492 c 2,4,-1
 215 492 l 2,5,6
 208 492 208 492 196.5 501.5 c 128,-1,7
 185 511 185 511 182 523 c 2,8,-1
 154 656 l 1,9,-1
 83 563 l 1,10,11
 61 546 61 546 30 563 c 1,12,-1
 -4 593 l 2,13,14
 -24 615 -24 615 -7 638 c 2,15,-1
 64 733 l 1,16,-1
 -67 733 l 2,17,18
 -80 733 -80 733 -93.5 741.5 c 128,-1,19
 -107 750 -107 750 -109 765 c 2,20,-1
 -120 811 l 2,21,22
 -121 820 -121 820 -111.5 828 c 128,-1,23
 -102 836 -102 836 -89 836 c 2,24,-1
 34 836 l 1,25,-1
 -75 929 l 2,26,27
 -90 940 -90 940 -94 953.5 c 128,-1,28
 -98 967 -98 967 -91 980 c 1,29,-1
 -63 1008 l 2,30,31
 -56 1018 -56 1018 -44 1017 c 128,-1,32
 -32 1016 -32 1016 -18 1003 c 2,33,-1
 100 906 l 1,34,-1
 70 1050 l 2,35,36
 67 1061 67 1061 75 1071.5 c 128,-1,37
 83 1082 83 1082 90 1082 c 2,38,-1
 137 1082 l 2,39,40
 151 1082 151 1082 160 1071.5 c 128,-1,41
 169 1061 169 1061 172 1050 c 2,42,-1
 201 912 l 1,43,-1
 280 1008 l 2,44,45
 288 1021 288 1021 298.5 1022 c 128,-1,46
 309 1023 309 1023 328 1016 c 1,47,-1
 360 980 l 2,48,49
 372 972 372 972 374 960.5 c 128,-1,50
 376 949 376 949 368 935 c 2,51,-1
 293 836 l 1,52,-1
 436 836 l 2,53,54
 445 836 445 836 458 828 c 128,-1,55
 471 820 471 820 473 811 c 2,56,-1
 483 765 l 2,57,58
 486 750 486 750 476.5 741.5 c 128,-1,59
 467 733 467 733 458 733 c 2,60,-1
 307 733 l 1,61,-1
 431 638 l 1,62,63
 454 615 454 615 442 586 c 1,64,-1
 420 558 l 2,65,66
 403 541 403 541 374 563 c 2,67,-1
 256 656 l 1,0,-1
EndSplineSet
EndChar

StartChar: plus
Encoding: 43 43 8
Width: 795
Flags: W
LayerCount: 2
Fore
SplineSet
199 705 m 1,0,-1
 303 705 l 1,1,-1
 356 451 l 1,2,-1
 610 451 l 1,3,-1
 632 347 l 1,4,-1
 378 347 l 1,5,-1
 432 92 l 1,6,-1
 328 92 l 1,7,-1
 274 347 l 1,8,-1
 19 347 l 1,9,-1
 -2 451 l 1,10,-1
 252 451 l 1,11,-1
 199 705 l 1,0,-1
EndSplineSet
EndChar

StartChar: hyphen
Encoding: 45 45 9
Width: 785
Flags: W
LayerCount: 2
Fore
SplineSet
17 362 m 1,0,-1
 -5 466 l 1,1,-1
 607 466 l 1,2,-1
 629 362 l 1,3,-1
 17 362 l 1,0,-1
EndSplineSet
EndChar

StartChar: period
Encoding: 46 46 10
Width: 479
Flags: W
LayerCount: 2
Fore
SplineSet
379 98 m 0,0,1
 388 56 388 56 366.5 28 c 128,-1,2
 345 0 345 0 303 0 c 0,3,4
 283 0 283 0 263.5 7.5 c 128,-1,5
 244 15 244 15 228 28.5 c 128,-1,6
 212 42 212 42 200 59.5 c 128,-1,7
 188 77 188 77 184 98 c 0,8,9
 175 139 175 139 197.5 167 c 128,-1,10
 220 195 220 195 260 195 c 0,11,12
 281 195 281 195 300.5 187.5 c 128,-1,13
 320 180 320 180 336 167 c 128,-1,14
 352 154 352 154 363 136 c 128,-1,15
 374 118 374 118 379 98 c 0,0,1
EndSplineSet
EndChar

StartChar: slash
Encoding: 47 47 11
Width: 424
Flags: W
LayerCount: 2
Fore
SplineSet
93 -92 m 1,0,-1
 23 -92 l 1,1,-1
 546 1118 l 1,2,-1
 616 1118 l 1,3,-1
 93 -92 l 1,0,-1
EndSplineSet
EndChar

StartChar: zero
Encoding: 48 48 12
Width: 961
Flags: W
LayerCount: 2
Fore
SplineSet
730 1176 m 0,0,1
 816 1176 816 1176 878 1132.5 c 128,-1,2
 940 1089 940 1089 974.5 1009.5 c 128,-1,3
 1009 930 1009 930 1013.5 819.5 c 128,-1,4
 1018 709 1018 709 990 575 c 0,5,6
 973 495 973 495 945 419.5 c 128,-1,7
 917 344 917 344 881.5 277.5 c 128,-1,8
 846 211 846 211 803.5 157 c 128,-1,9
 761 103 761 103 714 66 c 0,10,11
 657 21 657 21 597.5 -2 c 128,-1,12
 538 -25 538 -25 469 -25 c 0,13,14
 394 -25 394 -25 336 6 c 128,-1,15
 278 37 278 37 240 94 c 0,16,17
 217 129 217 129 203 184 c 128,-1,18
 189 239 189 239 184.5 304.5 c 128,-1,19
 180 370 180 370 185.5 442.5 c 128,-1,20
 191 515 191 515 206 586 c 0,21,22
 222 662 222 662 249.5 736.5 c 128,-1,23
 277 811 277 811 312.5 877 c 128,-1,24
 348 943 348 943 390.5 996.5 c 128,-1,25
 433 1050 433 1050 480 1085 c 0,26,27
 540 1133 540 1133 599 1154.5 c 128,-1,28
 658 1176 658 1176 730 1176 c 0,0,1
717 1130 m 0,29,30
 490 1130 490 1130 370 569 c 0,31,32
 254 20 254 20 479 20 c 256,33,34
 704 20 704 20 821 571 c 0,35,36
 940 1130 940 1130 717 1130 c 0,29,30
EndSplineSet
EndChar

StartChar: one
Encoding: 49 49 13
Width: 961
Flags: W
LayerCount: 2
Fore
SplineSet
592 129 m 2,0,1
 585 97 585 97 587 77.5 c 128,-1,2
 589 58 589 58 605 46.5 c 128,-1,3
 621 35 621 35 652.5 31 c 128,-1,4
 684 27 684 27 736 27 c 1,5,-1
 731 0 l 1,6,-1
 252 0 l 1,7,-1
 257 27 l 1,8,9
 283 27 283 27 302 28.5 c 128,-1,10
 321 30 321 30 335.5 33 c 128,-1,11
 350 36 350 36 361.5 39.5 c 128,-1,12
 373 43 373 43 384 47 c 0,13,14
 407 61 407 61 423.5 89 c 128,-1,15
 440 117 440 117 450 162 c 2,16,-1
 617 950 l 2,17,18
 635 1032 635 1032 584 1032 c 0,19,20
 561 1032 561 1032 531.5 1024 c 128,-1,21
 502 1016 502 1016 449 993 c 1,22,-1
 454 1018 l 1,23,-1
 802 1176 l 1,24,-1
 814 1174 l 1,25,-1
 592 129 l 2,0,1
EndSplineSet
EndChar

StartChar: two
Encoding: 50 50 14
Width: 961
Flags: W
LayerCount: 2
Fore
SplineSet
96 0 m 1,0,-1
 100 20 l 1,1,-1
 482 350 l 2,2,3
 618 469 618 469 699.5 583.5 c 128,-1,4
 781 698 781 698 803 803 c 0,5,6
 815 857 815 857 807 902.5 c 128,-1,7
 799 948 799 948 773.5 980.5 c 128,-1,8
 748 1013 748 1013 706 1031 c 128,-1,9
 664 1049 664 1049 609 1049 c 0,10,11
 564 1049 564 1049 527 1037.5 c 128,-1,12
 490 1026 490 1026 454.5 999.5 c 128,-1,13
 419 973 419 973 384 929 c 128,-1,14
 349 885 349 885 309 821 c 1,15,-1
 274 829 l 1,16,17
 296 876 296 876 314.5 911 c 128,-1,18
 333 946 333 946 351.5 973.5 c 128,-1,19
 370 1001 370 1001 390.5 1023.5 c 128,-1,20
 411 1046 411 1046 437 1067 c 0,21,22
 560 1176 560 1176 710 1176 c 0,23,24
 777 1176 777 1176 831 1152.5 c 128,-1,25
 885 1129 885 1129 919.5 1087.5 c 128,-1,26
 954 1046 954 1046 967 989.5 c 128,-1,27
 980 933 980 933 966 868 c 0,28,29
 955 817 955 817 931.5 766.5 c 128,-1,30
 908 716 908 716 870 663.5 c 128,-1,31
 832 611 832 611 778 555 c 128,-1,32
 724 499 724 499 652 438 c 2,33,-1
 296 133 l 1,34,-1
 712 133 l 2,35,36
 740 133 740 133 761.5 137 c 128,-1,37
 783 141 783 141 803 153.5 c 128,-1,38
 823 166 823 166 846 188.5 c 128,-1,39
 869 211 869 211 902 248 c 1,40,-1
 923 240 l 1,41,-1
 776 0 l 1,42,-1
 96 0 l 1,0,-1
EndSplineSet
EndChar

StartChar: three
Encoding: 51 51 15
Width: 961
Flags: W
LayerCount: 2
Fore
SplineSet
438 598 m 1,0,1
 486 613 486 613 521.5 626 c 128,-1,2
 557 639 557 639 585 653 c 128,-1,3
 613 667 613 667 636 682.5 c 128,-1,4
 659 698 659 698 682 717 c 0,5,6
 721 749 721 749 749 793 c 128,-1,7
 777 837 777 837 788 887 c 0,8,9
 797 927 797 927 790 961 c 128,-1,10
 783 995 783 995 763 1020 c 128,-1,11
 743 1045 743 1045 711 1059 c 128,-1,12
 679 1073 679 1073 638 1073 c 0,13,14
 553 1073 553 1073 482 1028.5 c 128,-1,15
 411 984 411 984 338 887 c 1,16,-1
 313 895 l 1,17,18
 336 935 336 935 355 964 c 128,-1,19
 374 993 374 993 392 1015.5 c 128,-1,20
 410 1038 410 1038 429 1056 c 128,-1,21
 448 1074 448 1074 472 1092 c 0,22,23
 529 1134 529 1134 589.5 1155 c 128,-1,24
 650 1176 650 1176 716 1176 c 0,25,26
 776 1176 776 1176 822 1158.5 c 128,-1,27
 868 1141 868 1141 897 1109.5 c 128,-1,28
 926 1078 926 1078 936.5 1034 c 128,-1,29
 947 990 947 990 936 938 c 0,30,31
 928 903 928 903 913 872.5 c 128,-1,32
 898 842 898 842 873 813.5 c 128,-1,33
 848 785 848 785 811 757 c 128,-1,34
 774 729 774 729 723 698 c 1,35,36
 772 674 772 674 800 654 c 128,-1,37
 828 634 828 634 847 606 c 0,38,39
 876 563 876 563 884 506 c 128,-1,40
 892 449 892 449 878 383 c 0,41,42
 858 290 858 290 806 214.5 c 128,-1,43
 754 139 754 139 678.5 86 c 128,-1,44
 603 33 603 33 508.5 4 c 128,-1,45
 414 -25 414 -25 309 -25 c 0,46,47
 219 -25 219 -25 172.5 1.5 c 128,-1,48
 126 28 126 28 137 76 c 0,49,50
 142 102 142 102 162.5 118.5 c 128,-1,51
 183 135 183 135 214 135 c 0,52,53
 237 135 237 135 260 126 c 128,-1,54
 283 117 283 117 316 92 c 0,55,56
 356 61 356 61 386.5 50 c 128,-1,57
 417 39 417 39 452 39 c 0,58,59
 500 39 500 39 545.5 58.5 c 128,-1,60
 591 78 591 78 629 112.5 c 128,-1,61
 667 147 667 147 695 194.5 c 128,-1,62
 723 242 723 242 735 297 c 0,63,64
 745 343 745 343 740.5 383.5 c 128,-1,65
 736 424 736 424 719.5 457.5 c 128,-1,66
 703 491 703 491 676 515.5 c 128,-1,67
 649 540 649 540 613 555 c 0,68,69
 598 561 598 561 582.5 565 c 128,-1,70
 567 569 567 569 547 571 c 128,-1,71
 527 573 527 573 499.5 574 c 128,-1,72
 472 575 472 575 433 575 c 1,73,-1
 438 598 l 1,74,-1
 438 598 l 1,0,1
EndSplineSet
EndChar

StartChar: four
Encoding: 52 52 16
Width: 961
Flags: W
LayerCount: 2
Fore
SplineSet
749 291 m 1,0,-1
 688 0 l 1,1,-1
 555 0 l 1,2,-1
 616 291 l 1,3,-1
 127 291 l 1,4,-1
 151 401 l 1,5,-1
 861 1176 l 1,6,-1
 937 1176 l 1,7,-1
 773 401 l 1,8,-1
 951 401 l 1,9,-1
 927 291 l 1,10,-1
 749 291 l 1,0,-1
220 401 m 1,11,-1
 638 401 l 1,12,-1
 765 999 l 1,13,-1
 220 401 l 1,11,-1
EndSplineSet
EndChar

StartChar: five
Encoding: 53 53 17
Width: 961
Flags: W
LayerCount: 2
Fore
SplineSet
471 866 m 1,0,1
 546 854 546 854 601.5 839 c 128,-1,2
 657 824 657 824 697.5 805 c 128,-1,3
 738 786 738 786 767 764 c 128,-1,4
 796 742 796 742 819 715 c 0,5,6
 845 682 845 682 861.5 649.5 c 128,-1,7
 878 617 878 617 884.5 582 c 128,-1,8
 891 547 891 547 889 508 c 128,-1,9
 887 469 887 469 877 422 c 0,10,11
 856 322 856 322 812 246.5 c 128,-1,12
 768 171 768 171 695 111 c 0,13,14
 613 45 613 45 516.5 10 c 128,-1,15
 420 -25 420 -25 307 -25 c 0,16,17
 207 -25 207 -25 156.5 4 c 128,-1,18
 106 33 106 33 117 84 c 0,19,20
 130 147 130 147 207 147 c 0,21,22
 233 147 233 147 262 134 c 128,-1,23
 291 121 291 121 326 90 c 0,24,25
 358 61 358 61 382 51 c 128,-1,26
 406 41 406 41 432 41 c 0,27,28
 483 41 483 41 532 63.5 c 128,-1,29
 581 86 581 86 622 125.5 c 128,-1,30
 663 165 663 165 693 219.5 c 128,-1,31
 723 274 723 274 737 338 c 0,32,33
 765 468 765 468 712 551 c 128,-1,34
 659 634 659 634 519 682 c 0,35,36
 468 701 468 701 420 709 c 128,-1,37
 372 717 372 717 330 717 c 0,38,39
 308 717 308 717 311 731 c 0,40,41
 311 734 311 734 315 739 c 2,42,-1
 593 1153 l 1,43,-1
 956 1153 l 2,44,45
 971 1153 971 1153 982 1155 c 128,-1,46
 993 1157 993 1157 1003.5 1162.5 c 128,-1,47
 1014 1168 1014 1168 1024 1176.5 c 128,-1,48
 1034 1185 1034 1185 1047 1198 c 1,49,-1
 1059 1186 l 1,50,-1
 959 1030 l 2,51,52
 953 1022 953 1022 945.5 1019 c 128,-1,53
 938 1016 938 1016 915 1016 c 2,54,-1
 575 1016 l 1,55,-1
 471 866 l 1,56,-1
 471 866 l 1,0,1
EndSplineSet
EndChar

StartChar: six
Encoding: 54 54 18
Width: 961
Flags: W
LayerCount: 2
Fore
SplineSet
1072 1163 m 1,0,1
 966 1147 966 1147 870 1104.5 c 128,-1,2
 774 1062 774 1062 694 997.5 c 128,-1,3
 614 933 614 933 551.5 849 c 128,-1,4
 489 765 489 765 450 666 c 1,5,6
 497 691 497 691 529.5 706.5 c 128,-1,7
 562 722 562 722 588.5 730.5 c 128,-1,8
 615 739 615 739 638.5 742 c 128,-1,9
 662 745 662 745 690 745 c 0,10,11
 765 745 765 745 819.5 719 c 128,-1,12
 874 693 874 693 906.5 646 c 128,-1,13
 939 599 939 599 947.5 532 c 128,-1,14
 956 465 956 465 939 383 c 0,15,16
 919 292 919 292 877 217 c 128,-1,17
 835 142 835 142 775.5 88 c 128,-1,18
 716 34 716 34 642.5 4.5 c 128,-1,19
 569 -25 569 -25 488 -25 c 0,20,21
 397 -25 397 -25 333 12.5 c 128,-1,22
 269 50 269 50 233 117.5 c 128,-1,23
 197 185 197 185 190 279 c 128,-1,24
 183 373 183 373 207 485 c 0,25,26
 282 843 282 843 618 1051 c 0,27,28
 673 1086 673 1086 722.5 1109 c 128,-1,29
 772 1132 772 1132 824.5 1147 c 128,-1,30
 877 1162 877 1162 937 1172 c 128,-1,31
 997 1182 997 1182 1074 1192 c 1,32,-1
 1072 1163 l 1,0,1
608 666 m 0,33,34
 560 666 560 666 519 653.5 c 128,-1,35
 478 641 478 641 444 621 c 0,36,37
 416 601 416 601 396.5 563 c 128,-1,38
 377 525 377 525 363 459 c 0,39,40
 341 357 341 357 341 276.5 c 128,-1,41
 341 196 341 196 361 140 c 128,-1,42
 381 84 381 84 420.5 54.5 c 128,-1,43
 460 25 460 25 517 25 c 0,44,45
 611 25 611 25 674.5 100 c 128,-1,46
 738 175 738 175 770 322 c 0,47,48
 804 485 804 485 762 575.5 c 128,-1,49
 720 666 720 666 608 666 c 0,33,34
EndSplineSet
EndChar

StartChar: seven
Encoding: 55 55 19
Width: 961
Flags: W
LayerCount: 2
Fore
SplineSet
454 -14 m 1,0,-1
 341 -14 l 1,1,-1
 905 1024 l 1,2,-1
 528 1024 l 2,3,4
 493 1024 493 1024 465.5 1018.5 c 128,-1,5
 438 1013 438 1013 412.5 997 c 128,-1,6
 387 981 387 981 360 953.5 c 128,-1,7
 333 926 333 926 298 883 c 1,8,-1
 270 897 l 1,9,-1
 427 1153 l 1,10,-1
 1072 1153 l 1,11,-1
 1065 1124 l 1,12,-1
 454 -14 l 1,0,-1
EndSplineSet
EndChar

StartChar: eight
Encoding: 56 56 20
Width: 961
Flags: W
LayerCount: 2
Fore
SplineSet
688 645 m 1,0,1
 754 588 754 588 795.5 540.5 c 128,-1,2
 837 493 837 493 858.5 449.5 c 128,-1,3
 880 406 880 406 883 362.5 c 128,-1,4
 886 319 886 319 875 268 c 0,5,6
 861 201 861 201 825.5 147 c 128,-1,7
 790 93 790 93 737 54.5 c 128,-1,8
 684 16 684 16 616.5 -4.5 c 128,-1,9
 549 -25 549 -25 471 -25 c 0,10,11
 397 -25 397 -25 340.5 -4 c 128,-1,12
 284 17 284 17 247.5 55.5 c 128,-1,13
 211 94 211 94 197.5 146.5 c 128,-1,14
 184 199 184 199 198 262 c 0,15,16
 208 307 208 307 224.5 342 c 128,-1,17
 241 377 241 377 273 411.5 c 128,-1,18
 305 446 305 446 357.5 485 c 128,-1,19
 410 524 410 524 491 578 c 1,20,21
 435 638 435 638 401.5 680.5 c 128,-1,22
 368 723 368 723 352.5 757.5 c 128,-1,23
 337 792 337 792 336.5 825.5 c 128,-1,24
 336 859 336 859 345 901 c 0,25,26
 358 961 358 961 393 1011.5 c 128,-1,27
 428 1062 428 1062 480 1098.5 c 128,-1,28
 532 1135 532 1135 596.5 1155.5 c 128,-1,29
 661 1176 661 1176 732 1176 c 0,30,31
 797 1176 797 1176 848 1157.5 c 128,-1,32
 899 1139 899 1139 932 1106 c 128,-1,33
 965 1073 965 1073 977.5 1028 c 128,-1,34
 990 983 990 983 979 930 c 0,35,36
 969 885 969 885 949 848 c 128,-1,37
 929 811 929 811 895 777.5 c 128,-1,38
 861 744 861 744 810 712 c 128,-1,39
 759 680 759 680 688 645 c 1,0,1
529 543 m 1,40,41
 484 512 484 512 451 482.5 c 128,-1,42
 418 453 418 453 394.5 421 c 128,-1,43
 371 389 371 389 356 353.5 c 128,-1,44
 341 318 341 318 332 276 c 0,45,46
 320 219 320 219 326 173 c 128,-1,47
 332 127 332 127 354 94 c 128,-1,48
 376 61 376 61 413.5 43 c 128,-1,49
 451 25 451 25 501 25 c 0,50,51
 543 25 543 25 581.5 39 c 128,-1,52
 620 53 620 53 650.5 78.5 c 128,-1,53
 681 104 681 104 702.5 138.5 c 128,-1,54
 724 173 724 173 733 215 c 0,55,56
 741 253 741 253 739 284 c 128,-1,57
 737 315 737 315 723.5 344 c 128,-1,58
 710 373 710 373 683.5 402.5 c 128,-1,59
 657 432 657 432 617 467 c 2,60,-1
 529 543 l 1,40,41
644 678 m 1,61,62
 651 683 651 683 652.5 683 c 128,-1,63
 654 683 654 683 660 688 c 0,64,65
 746 739 746 739 795.5 797.5 c 128,-1,66
 845 856 845 856 862 932 c 0,67,68
 881 1022 881 1022 840 1075 c 128,-1,69
 799 1128 799 1128 708 1128 c 0,70,71
 667 1128 667 1128 630.5 1115.5 c 128,-1,72
 594 1103 594 1103 564.5 1080.5 c 128,-1,73
 535 1058 535 1058 514.5 1025.5 c 128,-1,74
 494 993 494 993 485 954 c 0,75,76
 478 919 478 919 482.5 885.5 c 128,-1,77
 487 852 487 852 505.5 818 c 128,-1,78
 524 784 524 784 558 749.5 c 128,-1,79
 592 715 592 715 644 678 c 1,61,62
EndSplineSet
EndChar

StartChar: nine
Encoding: 57 57 21
Width: 961
Flags: W
LayerCount: 2
Fore
SplineSet
142 -2 m 1,0,1
 351 32 351 32 514 164.5 c 128,-1,2
 677 297 677 297 780 512 c 1,3,4
 740 485 740 485 704 466 c 128,-1,5
 668 447 668 447 634 435 c 128,-1,6
 600 423 600 423 566.5 417.5 c 128,-1,7
 533 412 533 412 497 412 c 0,8,9
 427 412 427 412 374.5 437.5 c 128,-1,10
 322 463 322 463 290.5 509.5 c 128,-1,11
 259 556 259 556 250 621 c 128,-1,12
 241 686 241 686 258 766 c 0,13,14
 277 854 277 854 320.5 929 c 128,-1,15
 364 1004 364 1004 424.5 1059 c 128,-1,16
 485 1114 485 1114 558 1145 c 128,-1,17
 631 1176 631 1176 708 1176 c 0,18,19
 792 1176 792 1176 855 1140 c 128,-1,20
 918 1104 918 1104 955.5 1039.5 c 128,-1,21
 993 975 993 975 1002.5 884.5 c 128,-1,22
 1012 794 1012 794 989 686 c 0,23,24
 970 598 970 598 933 514 c 128,-1,25
 896 430 896 430 843 355 c 128,-1,26
 790 280 790 280 723 215.5 c 128,-1,27
 656 151 656 151 578 102 c 0,28,29
 525 69 525 69 478.5 46.5 c 128,-1,30
 432 24 432 24 381.5 8.5 c 128,-1,31
 331 -7 331 -7 272.5 -18 c 128,-1,32
 214 -29 214 -29 138 -39 c 1,33,-1
 142 -2 l 1,0,1
821 686 m 2,34,35
 915 1128 915 1128 683 1128 c 0,36,37
 605 1128 605 1128 550 1073 c 0,38,39
 532 1057 532 1057 514 1029.5 c 128,-1,40
 496 1002 496 1002 480 968.5 c 128,-1,41
 464 935 464 935 451 898 c 128,-1,42
 438 861 438 861 431 825 c 0,43,44
 414 747 414 747 416.5 684.5 c 128,-1,45
 419 622 419 622 438 578 c 128,-1,46
 457 534 457 534 492 510.5 c 128,-1,47
 527 487 527 487 576 487 c 0,48,49
 674 487 674 487 766 553 c 0,50,51
 783 564 783 564 792.5 578 c 128,-1,52
 802 592 802 592 807 618 c 2,53,-1
 821 686 l 2,34,35
EndSplineSet
EndChar

StartChar: less
Encoding: 60 60 22
Width: 1028
Flags: W
LayerCount: 2
Fore
SplineSet
867 53 m 1,0,-1
 51 408 l 1,1,-1
 33 491 l 1,2,-1
 698 845 l 1,3,-1
 725 721 l 1,4,-1
 209 450 l 1,5,-1
 841 177 l 1,6,-1
 867 53 l 1,0,-1
EndSplineSet
EndChar

StartChar: equal
Encoding: 61 61 23
Width: 977
Flags: W
LayerCount: 2
Fore
SplineSet
729 521 m 1,0,-1
 21 521 l 1,1,-1
 -1 631 l 1,2,-1
 706 631 l 1,3,-1
 729 521 l 1,0,-1
785 259 m 1,4,-1
 77 259 l 1,5,-1
 53 369 l 1,6,-1
 761 369 l 1,7,-1
 785 259 l 1,4,-1
EndSplineSet
EndChar

StartChar: greater
Encoding: 62 62 24
Width: 961
Flags: W
LayerCount: 2
Fore
SplineSet
143 -2 m 1,0,1
 344 32 344 32 479.5 164.5 c 128,-1,2
 615 297 615 297 672 512 c 1,3,4
 603 458 603 458 542.5 435 c 128,-1,5
 482 412 482 412 410 412 c 0,6,7
 340 412 340 412 282 437.5 c 128,-1,8
 224 463 224 463 183 509.5 c 128,-1,9
 142 556 142 556 119 621 c 128,-1,10
 96 686 96 686 96 766 c 0,11,12
 96 854 96 854 124 929 c 128,-1,13
 152 1004 152 1004 200.5 1059 c 128,-1,14
 249 1114 249 1114 315.5 1145 c 128,-1,15
 382 1176 382 1176 459 1176 c 0,16,17
 543 1176 543 1176 613.5 1140 c 128,-1,18
 684 1104 684 1104 735 1039.5 c 128,-1,19
 786 975 786 975 815 884.5 c 128,-1,20
 844 794 844 794 844 686 c 0,21,22
 844 598 844 598 824.5 514 c 128,-1,23
 805 430 805 430 768 355 c 128,-1,24
 731 280 731 280 677.5 215.5 c 128,-1,25
 624 151 624 151 557 102 c 0,26,27
 512 69 512 69 470 46.5 c 128,-1,28
 428 24 428 24 380.5 8.5 c 128,-1,29
 333 -7 333 -7 277 -18 c 128,-1,30
 221 -29 221 -29 147 -39 c 1,31,-1
 143 -2 l 1,0,1
676 686 m 2,32,33
 676 1128 676 1128 444 1128 c 0,34,35
 367 1128 367 1128 322 1073 c 0,36,37
 308 1057 308 1057 296 1029.5 c 128,-1,38
 284 1002 284 1002 275 968.5 c 128,-1,39
 266 935 266 935 261 898 c 128,-1,40
 256 861 256 861 256 825 c 0,41,42
 256 747 256 747 271.5 684.5 c 128,-1,43
 287 622 287 622 315.5 578 c 128,-1,44
 344 534 344 534 384 510.5 c 128,-1,45
 424 487 424 487 473 487 c 0,46,47
 571 487 571 487 649 553 c 0,48,49
 663 564 663 564 669.5 578 c 128,-1,50
 676 592 676 592 676 618 c 2,51,-1
 676 686 l 2,32,33
EndSplineSet
EndChar

StartChar: question
Encoding: 63 63 25
Width: 1043
Flags: W
LayerCount: 2
Fore
SplineSet
353 1117 m 0,0,1
 376 1227 376 1227 470.5 1303.5 c 128,-1,2
 565 1380 565 1380 681 1380 c 0,3,4
 808 1380 808 1380 873 1288.5 c 128,-1,5
 938 1197 938 1197 909 1059 c 1,6,7
 867 904 867 904 694 734 c 128,-1,8
 521 564 521 564 498 385 c 0,9,10
 493 369 493 369 482 360 c 128,-1,11
 471 351 471 351 459.5 349.5 c 128,-1,12
 448 348 448 348 441 356 c 128,-1,13
 434 364 434 364 433 385 c 0,14,15
 433 395 433 395 436 440.5 c 128,-1,16
 439 486 439 486 452.5 567 c 128,-1,17
 466 648 466 648 514 743 c 128,-1,18
 562 838 562 838 610 906 c 2,19,-1
 711 1047 l 2,20,21
 735 1081 735 1081 747 1103.5 c 128,-1,22
 759 1126 759 1126 765 1157 c 0,23,24
 777 1217 777 1217 743.5 1258.5 c 128,-1,25
 710 1300 710 1300 645 1300 c 0,26,27
 597 1300 597 1300 557 1274 c 0,28,29
 521 1246 521 1246 515 1214 c 0,30,31
 509 1186 509 1186 528 1169 c 2,32,-1
 568 1141 l 2,33,34
 590 1126 590 1126 600 1096 c 128,-1,35
 610 1066 610 1066 605 1043 c 0,36,37
 595 993 595 993 554 958 c 0,38,39
 512 922 512 922 467 922 c 0,40,41
 399 922 399 922 367.5 979.5 c 128,-1,42
 336 1037 336 1037 353 1117 c 0,0,1
298 112 m 256,43,44
 303 136 303 136 316.5 156.5 c 128,-1,45
 330 177 330 177 349 192.5 c 128,-1,46
 368 208 368 208 390.5 217 c 128,-1,47
 413 226 413 226 436 226 c 0,48,49
 460 226 460 226 479 217 c 128,-1,50
 498 208 498 208 510.5 192.5 c 128,-1,51
 523 177 523 177 527.5 156.5 c 128,-1,52
 532 136 532 136 527 112 c 256,53,54
 522 88 522 88 508.5 67.5 c 128,-1,55
 495 47 495 47 476 31.5 c 128,-1,56
 457 16 457 16 434 7 c 128,-1,57
 411 -2 411 -2 387 -2 c 0,58,59
 364 -2 364 -2 345 7 c 128,-1,60
 326 16 326 16 314 31.5 c 128,-1,61
 302 47 302 47 297.5 67.5 c 128,-1,62
 293 88 293 88 298 112 c 256,43,44
EndSplineSet
EndChar

StartChar: at
Encoding: 64 64 26
Width: 1604
Flags: W
LayerCount: 2
Fore
SplineSet
1235 76 m 1,0,1
 1166 46 1166 46 1112 26.5 c 128,-1,2
 1058 7 1058 7 1011.5 -4.5 c 128,-1,3
 965 -16 965 -16 923 -20.5 c 128,-1,4
 881 -25 881 -25 836 -25 c 0,5,6
 699 -25 699 -25 592 20 c 128,-1,7
 485 65 485 65 416 144.5 c 128,-1,8
 347 224 347 224 321.5 332.5 c 128,-1,9
 296 441 296 441 323 567 c 0,10,11
 341 652 341 652 380 730 c 128,-1,12
 419 808 419 808 474 876 c 128,-1,13
 529 944 529 944 598.5 999 c 128,-1,14
 668 1054 668 1054 747 1093.5 c 128,-1,15
 826 1133 826 1133 912 1154.5 c 128,-1,16
 998 1176 998 1176 1087 1176 c 0,17,18
 1207 1176 1207 1176 1302.5 1137 c 128,-1,19
 1398 1098 1398 1098 1461 1029 c 128,-1,20
 1524 960 1524 960 1548.5 867 c 128,-1,21
 1573 774 1573 774 1550 666 c 0,22,23
 1532 581 1532 581 1490.5 505.5 c 128,-1,24
 1449 430 1449 430 1393 373 c 128,-1,25
 1337 316 1337 316 1271.5 283 c 128,-1,26
 1206 250 1206 250 1140 250 c 0,27,28
 1077 250 1077 250 1041 283.5 c 128,-1,29
 1005 317 1005 317 1010 377 c 1,30,31
 951 315 951 315 887 283.5 c 128,-1,32
 823 252 823 252 766 252 c 0,33,34
 734 252 734 252 708.5 267 c 128,-1,35
 683 282 683 282 667.5 307.5 c 128,-1,36
 652 333 652 333 647 368 c 128,-1,37
 642 403 642 403 651 444 c 0,38,39
 662 494 662 494 685 546.5 c 128,-1,40
 708 599 708 599 741 648 c 128,-1,41
 774 697 774 697 814 740 c 128,-1,42
 854 783 854 783 899 815.5 c 128,-1,43
 944 848 944 848 991.5 866.5 c 128,-1,44
 1039 885 1039 885 1087 885 c 0,45,46
 1130 885 1130 885 1154 866 c 128,-1,47
 1178 847 1178 847 1192 795 c 1,48,-1
 1224 860 l 1,49,-1
 1345 860 l 1,50,-1
 1139 418 l 2,51,52
 1137 412 1137 412 1134 404 c 128,-1,53
 1131 396 1131 396 1129 387 c 0,54,55
 1111 305 1111 305 1178 305 c 0,56,57
 1220 305 1220 305 1267 334.5 c 128,-1,58
 1314 364 1314 364 1356 412.5 c 128,-1,59
 1398 461 1398 461 1430 522.5 c 128,-1,60
 1462 584 1462 584 1476 649 c 0,61,62
 1497 746 1497 746 1475.5 832.5 c 128,-1,63
 1454 919 1454 919 1400 983 c 128,-1,64
 1346 1047 1346 1047 1263 1084.5 c 128,-1,65
 1180 1122 1180 1122 1078 1122 c 0,66,67
 979 1122 979 1122 888.5 1089.5 c 128,-1,68
 798 1057 798 1057 720 989 c 0,69,70
 675 951 675 951 635 902.5 c 128,-1,71
 595 854 595 854 562 798.5 c 128,-1,72
 529 743 529 743 504.5 683.5 c 128,-1,73
 480 624 480 624 467 563 c 0,74,75
 443 449 443 449 460.5 353.5 c 128,-1,76
 478 258 478 258 531 189 c 128,-1,77
 584 120 584 120 669 81.5 c 128,-1,78
 754 43 754 43 865 43 c 0,79,80
 910 43 910 43 950.5 48 c 128,-1,81
 991 53 991 53 1033 63 c 128,-1,82
 1075 73 1075 73 1121.5 89 c 128,-1,83
 1168 105 1168 105 1224 127 c 1,84,-1
 1235 76 l 1,0,1
1089 807 m 2,85,86
 1056 807 1056 807 1013 785 c 128,-1,87
 970 763 970 763 925 721 c 0,88,89
 869 670 869 670 833 607.5 c 128,-1,90
 797 545 797 545 782 473 c 0,91,92
 767 404 767 404 786.5 365 c 128,-1,93
 806 326 806 326 855 326 c 0,94,95
 885 326 885 326 916.5 344.5 c 128,-1,96
 948 363 948 363 977.5 394 c 128,-1,97
 1007 425 1007 425 1034 465 c 128,-1,98
 1061 505 1061 505 1083.5 548 c 128,-1,99
 1106 591 1106 591 1122 633 c 128,-1,100
 1138 675 1138 675 1146 711 c 0,101,102
 1155 756 1155 756 1142.5 780.5 c 128,-1,103
 1130 805 1130 805 1095 807 c 2,104,-1
 1089 807 l 2,85,86
EndSplineSet
EndChar

StartChar: A
Encoding: 65 65 27
Width: 1257
Flags: W
LayerCount: 2
Fore
SplineSet
784 0 m 1,0,-1
 791 33 l 1,1,2
 826 35 826 35 850 38.5 c 128,-1,3
 874 42 874 42 890 48 c 128,-1,4
 906 54 906 54 914 64.5 c 128,-1,5
 922 75 922 75 926 92 c 0,6,7
 930 111 930 111 929 141.5 c 128,-1,8
 928 172 928 172 918 209 c 2,9,-1
 883 377 l 1,10,-1
 426 377 l 1,11,-1
 302 172 l 2,12,13
 292 155 292 155 284.5 138 c 128,-1,14
 277 121 277 121 274 104 c 0,15,16
 266 67 266 67 290.5 50 c 128,-1,17
 315 33 315 33 378 33 c 1,18,-1
 371 0 l 1,19,-1
 27 0 l 1,20,-1
 34 33 l 1,21,22
 64 35 64 35 88 44.5 c 128,-1,23
 112 54 112 54 141 83.5 c 128,-1,24
 170 113 170 113 209 168.5 c 128,-1,25
 248 224 248 224 309 319 c 2,26,-1
 853 1174 l 1,27,-1
 888 1174 l 1,28,-1
 1112 184 l 2,29,30
 1124 136 1124 136 1134.5 107 c 128,-1,31
 1145 78 1145 78 1158 62.5 c 128,-1,32
 1171 47 1171 47 1189.5 41 c 128,-1,33
 1208 35 1208 35 1236 33 c 1,34,-1
 1229 0 l 1,35,-1
 784 0 l 1,0,-1
771 926 m 1,36,-1
 471 446 l 1,37,-1
 872 446 l 1,38,-1
 771 926 l 1,36,-1
EndSplineSet
EndChar

StartChar: B
Encoding: 66 66 28
Width: 1161
Flags: W
LayerCount: 2
Fore
SplineSet
761 1153 m 2,0,1
 1218 1153 1218 1153 1154 856 c 0,2,3
 1143 802 1143 802 1114.5 757.5 c 128,-1,4
 1086 713 1086 713 1047 682 c 0,5,6
 1029 669 1029 669 1011 658.5 c 128,-1,7
 993 648 993 648 971.5 639 c 128,-1,8
 950 630 950 630 923.5 622 c 128,-1,9
 897 614 897 614 861 606 c 1,10,11
 901 596 901 596 931 587 c 128,-1,12
 961 578 961 578 983.5 567 c 128,-1,13
 1006 556 1006 556 1022.5 542 c 128,-1,14
 1039 528 1039 528 1054 510 c 0,15,16
 1089 472 1089 472 1099.5 421 c 128,-1,17
 1110 370 1110 370 1098 313 c 0,18,19
 1084 246 1084 246 1045.5 189 c 128,-1,20
 1007 132 1007 132 945.5 90 c 128,-1,21
 884 48 884 48 800 24 c 128,-1,22
 716 0 716 0 610 0 c 2,23,-1
 31 0 l 1,24,-1
 38 33 l 1,25,26
 91 35 91 35 125 41.5 c 128,-1,27
 159 48 159 48 180.5 64.5 c 128,-1,28
 202 81 202 81 214 111 c 128,-1,29
 226 141 226 141 237 190 c 2,30,-1
 401 963 l 2,31,32
 411 1011 411 1011 411.5 1040 c 128,-1,33
 412 1069 412 1069 398 1085.5 c 128,-1,34
 384 1102 384 1102 352.5 1109 c 128,-1,35
 321 1116 321 1116 268 1118 c 1,36,-1
 276 1153 l 1,37,-1
 761 1153 l 2,0,1
403 135 m 2,38,39
 395 94 395 94 414.5 80 c 128,-1,40
 434 66 434 66 497 66 c 0,41,42
 592 66 592 66 661.5 81 c 128,-1,43
 731 96 731 96 779 127 c 128,-1,44
 827 158 827 158 855.5 203.5 c 128,-1,45
 884 249 884 249 897 311 c 0,46,47
 915 396 915 396 891.5 449 c 128,-1,48
 868 502 868 502 799 532 c 0,49,50
 777 542 777 542 750.5 549 c 128,-1,51
 724 556 724 556 688 560 c 128,-1,52
 652 564 652 564 605 565.5 c 128,-1,53
 558 567 558 567 495 567 c 1,54,-1
 403 135 l 2,38,39
676 637 m 2,55,56
 801 637 801 637 878 691 c 128,-1,57
 955 745 955 745 977 850 c 0,58,59
 1002 968 1002 968 937.5 1027.5 c 128,-1,60
 873 1087 873 1087 720 1087 c 2,61,-1
 643 1087 l 2,62,63
 624 1087 624 1087 612.5 1076 c 128,-1,64
 601 1065 601 1065 595 1036 c 2,65,-1
 510 637 l 1,66,-1
 676 637 l 2,55,56
EndSplineSet
EndChar

StartChar: C
Encoding: 67 67 29
Width: 1161
Flags: W
LayerCount: 2
Fore
SplineSet
1206 784 m 1,0,1
 1200 826 1200 826 1195 857 c 128,-1,2
 1190 888 1190 888 1182.5 913 c 128,-1,3
 1175 938 1175 938 1164 959 c 128,-1,4
 1153 980 1153 980 1136 1001 c 0,5,6
 1053 1108 1053 1108 901 1108 c 0,7,8
 806 1108 806 1108 721.5 1071.5 c 128,-1,9
 637 1035 637 1035 568.5 967 c 128,-1,10
 500 899 500 899 450.5 803 c 128,-1,11
 401 707 401 707 376 588 c 0,12,13
 348 457 348 457 357.5 356.5 c 128,-1,14
 367 256 367 256 409 188 c 128,-1,15
 451 120 451 120 522.5 85.5 c 128,-1,16
 594 51 594 51 692 51 c 0,17,18
 799 51 799 51 902 92 c 128,-1,19
 1005 133 1005 133 1119 227 c 1,20,-1
 1143 197 l 1,21,22
 1040 90 1040 90 905 32.5 c 128,-1,23
 770 -25 770 -25 621 -25 c 0,24,25
 497 -25 497 -25 399.5 16 c 128,-1,26
 302 57 302 57 240.5 133.5 c 128,-1,27
 179 210 179 210 158.5 319 c 128,-1,28
 138 428 138 428 167 565 c 0,29,30
 198 714 198 714 271 830 c 128,-1,31
 344 946 344 946 456 1026 c 1,32,33
 551 1100 551 1100 660.5 1138 c 128,-1,34
 770 1176 770 1176 882 1176 c 0,35,36
 944 1176 944 1176 1004.5 1165.5 c 128,-1,37
 1065 1155 1065 1155 1128 1135 c 0,38,39
 1144 1127 1144 1127 1161.5 1122.5 c 128,-1,40
 1179 1118 1179 1118 1191 1118 c 0,41,42
 1217 1118 1217 1118 1240.5 1134 c 128,-1,43
 1264 1150 1264 1150 1275 1176 c 1,44,-1
 1312 1176 l 1,45,-1
 1229 784 l 1,46,-1
 1206 784 l 1,47,-1
 1206 784 l 1,0,1
EndSplineSet
EndChar

StartChar: D
Encoding: 68 68 30
Width: 1257
Flags: W
LayerCount: 2
Fore
SplineSet
384 963 m 2,0,1
 394 1012 394 1012 396 1041 c 128,-1,2
 398 1070 398 1070 385.5 1086 c 128,-1,3
 373 1102 373 1102 344.5 1108 c 128,-1,4
 316 1114 316 1114 266 1118 c 1,5,-1
 274 1153 l 1,6,-1
 743 1153 l 2,7,8
 905 1153 905 1153 1026 1114.5 c 128,-1,9
 1147 1076 1147 1076 1221 1002.5 c 128,-1,10
 1295 929 1295 929 1320.5 823 c 128,-1,11
 1346 717 1346 717 1317 582 c 0,12,13
 1290 453 1290 453 1223 346 c 128,-1,14
 1156 239 1156 239 1054 162 c 128,-1,15
 952 85 952 85 818 42.5 c 128,-1,16
 684 0 684 0 522 0 c 2,17,-1
 29 0 l 1,18,-1
 36 33 l 1,19,20
 86 37 86 37 117.5 44.5 c 128,-1,21
 149 52 149 52 168.5 69 c 128,-1,22
 188 86 188 86 199 114.5 c 128,-1,23
 210 143 210 143 220 190 c 2,24,-1
 384 963 l 2,0,1
386 135 m 2,25,26
 378 94 378 94 394 80 c 128,-1,27
 410 66 410 66 463 66 c 0,28,29
 576 66 576 66 660.5 82 c 128,-1,30
 745 98 745 98 819 135 c 0,31,32
 1058 258 1058 258 1124 569 c 0,33,34
 1186 856 1186 856 1009 1001 c 0,35,36
 904 1087 904 1087 680 1087 c 0,37,38
 653 1087 653 1087 634.5 1084.5 c 128,-1,39
 616 1082 616 1082 604 1074.5 c 128,-1,40
 592 1067 592 1067 585 1054 c 128,-1,41
 578 1041 578 1041 574 1020 c 2,42,-1
 386 135 l 2,25,26
EndSplineSet
EndChar

StartChar: E
Encoding: 69 69 31
Width: 1063
Flags: W
LayerCount: 2
Fore
SplineSet
20 0 m 1,0,-1
 27 33 l 1,1,2
 77 37 77 37 108.5 44.5 c 128,-1,3
 140 52 140 52 160 69 c 128,-1,4
 180 86 180 86 191 114.5 c 128,-1,5
 202 143 202 143 212 190 c 2,6,-1
 376 963 l 2,7,8
 386 1009 386 1009 387 1038 c 128,-1,9
 388 1067 388 1067 375.5 1083.5 c 128,-1,10
 363 1100 363 1100 334.5 1107 c 128,-1,11
 306 1114 306 1114 257 1118 c 1,12,-1
 265 1153 l 1,13,-1
 1189 1153 l 1,14,-1
 1135 903 l 1,15,-1
 1098 903 l 1,16,17
 1101 962 1101 962 1093.5 998 c 128,-1,18
 1086 1034 1086 1034 1061.5 1053.5 c 128,-1,19
 1037 1073 1037 1073 991.5 1079 c 128,-1,20
 946 1085 946 1085 873 1085 c 2,21,-1
 638 1085 l 2,22,23
 620 1085 620 1085 608 1082.5 c 128,-1,24
 596 1080 596 1080 588.5 1073.5 c 128,-1,25
 581 1067 581 1067 576.5 1055.5 c 128,-1,26
 572 1044 572 1044 568 1026 c 2,27,-1
 486 641 l 1,28,-1
 754 641 l 2,29,30
 873 641 873 641 915 684 c 0,31,32
 924 692 924 692 932 702 c 128,-1,33
 940 712 940 712 947.5 726.5 c 128,-1,34
 955 741 955 741 963 760.5 c 128,-1,35
 971 780 971 780 980 807 c 1,36,-1
 1021 807 l 1,37,-1
 935 401 l 1,38,-1
 894 401 l 1,39,40
 897 456 897 456 893 489 c 128,-1,41
 889 522 889 522 872.5 540 c 128,-1,42
 856 558 856 558 824 563.5 c 128,-1,43
 792 569 792 569 738 569 c 2,44,-1
 470 569 l 1,45,-1
 379 139 l 2,46,47
 374 116 374 116 374 102 c 128,-1,48
 374 88 374 88 380 86 c 1,49,50
 382 81 382 81 396.5 77 c 128,-1,51
 411 73 411 73 434 70.5 c 128,-1,52
 457 68 457 68 486 67 c 128,-1,53
 515 66 515 66 546 66 c 2,54,-1
 594 66 l 2,55,56
 687 66 687 66 753 75 c 128,-1,57
 819 84 819 84 870 109 c 128,-1,58
 921 134 921 134 963 178.5 c 128,-1,59
 1005 223 1005 223 1051 295 c 1,60,-1
 1102 295 l 1,61,-1
 961 0 l 1,62,-1
 20 0 l 1,0,-1
EndSplineSet
EndChar

StartChar: F
Encoding: 70 70 32
Width: 969
Flags: W
LayerCount: 2
Fore
SplineSet
880 401 m 1,0,1
 883 454 883 454 878.5 487 c 128,-1,2
 874 520 874 520 856.5 538 c 128,-1,3
 839 556 839 556 807 562.5 c 128,-1,4
 775 569 775 569 722 569 c 2,5,-1
 470 569 l 1,6,-1
 390 190 l 2,7,8
 379 142 379 142 379 112.5 c 128,-1,9
 379 83 379 83 393 66.5 c 128,-1,10
 407 50 407 50 436.5 43.5 c 128,-1,11
 466 37 466 37 515 33 c 1,12,-1
 508 0 l 1,13,-1
 20 0 l 1,14,-1
 27 33 l 1,15,16
 78 37 78 37 109.5 44.5 c 128,-1,17
 141 52 141 52 161 70 c 128,-1,18
 181 88 181 88 192.5 121 c 128,-1,19
 204 154 204 154 216 209 c 2,20,-1
 376 963 l 2,21,22
 386 1009 386 1009 387 1038 c 128,-1,23
 388 1067 388 1067 375.5 1083.5 c 128,-1,24
 363 1100 363 1100 334.5 1107 c 128,-1,25
 306 1114 306 1114 257 1118 c 1,26,-1
 265 1153 l 1,27,-1
 1189 1153 l 1,28,-1
 1135 903 l 1,29,-1
 1098 903 l 1,30,31
 1101 962 1101 962 1093.5 998 c 128,-1,32
 1086 1034 1086 1034 1061.5 1053.5 c 128,-1,33
 1037 1073 1037 1073 991.5 1079 c 128,-1,34
 946 1085 946 1085 873 1085 c 2,35,-1
 636 1085 l 2,36,37
 618 1085 618 1085 606.5 1082.5 c 128,-1,38
 595 1080 595 1080 587.5 1073.5 c 128,-1,39
 580 1067 580 1067 576 1055.5 c 128,-1,40
 572 1044 572 1044 568 1026 c 2,41,-1
 486 641 l 1,42,-1
 738 641 l 2,43,44
 790 641 790 641 824.5 647 c 128,-1,45
 859 653 859 653 884 671 c 128,-1,46
 909 689 909 689 927.5 721.5 c 128,-1,47
 946 754 946 754 966 807 c 1,48,-1
 1005 807 l 1,49,-1
 919 401 l 1,50,-1
 880 401 l 1,51,-1
 880 401 l 1,0,1
EndSplineSet
EndChar

StartChar: G
Encoding: 71 71 33
Width: 1257
Flags: W
LayerCount: 2
Fore
SplineSet
1359 586 m 1,0,1
 1320 582 1320 582 1294.5 575 c 128,-1,2
 1269 568 1269 568 1252.5 553.5 c 128,-1,3
 1236 539 1236 539 1225.5 514.5 c 128,-1,4
 1215 490 1215 490 1207 451 c 2,5,-1
 1132 98 l 1,6,7
 1102 75 1102 75 1046.5 53 c 128,-1,8
 991 31 991 31 925.5 13.5 c 128,-1,9
 860 -4 860 -4 792.5 -14.5 c 128,-1,10
 725 -25 725 -25 670 -25 c 0,11,12
 521 -25 521 -25 412 22 c 128,-1,13
 303 69 303 69 235 162 c 0,14,15
 177 240 177 240 162 338 c 128,-1,16
 147 436 147 436 175 565 c 0,17,18
 203 699 203 699 271 811 c 128,-1,19
 339 923 339 923 435.5 1004 c 128,-1,20
 532 1085 532 1085 651.5 1130.5 c 128,-1,21
 771 1176 771 1176 902 1176 c 0,22,23
 1021 1176 1021 1176 1132 1137 c 0,24,25
 1176 1118 1176 1118 1204 1118 c 0,26,27
 1230 1118 1230 1118 1255.5 1135.5 c 128,-1,28
 1281 1153 1281 1153 1293 1176 c 1,29,-1
 1332 1176 l 1,30,-1
 1254 809 l 1,31,-1
 1228 809 l 1,32,33
 1220 849 1220 849 1212.5 878.5 c 128,-1,34
 1205 908 1205 908 1195.5 931.5 c 128,-1,35
 1186 955 1186 955 1174.5 974.5 c 128,-1,36
 1163 994 1163 994 1149 1012 c 0,37,38
 1062 1108 1062 1108 917 1108 c 0,39,40
 822 1108 822 1108 736 1072 c 128,-1,41
 650 1036 650 1036 578.5 966.5 c 128,-1,42
 507 897 507 897 454 796.5 c 128,-1,43
 401 696 401 696 374 567 c 0,44,45
 348 447 348 447 359.5 350 c 128,-1,46
 371 253 371 253 416 185.5 c 128,-1,47
 461 118 461 118 538 81.5 c 128,-1,48
 615 45 615 45 722 45 c 0,49,50
 769 45 769 45 812.5 53 c 128,-1,51
 856 61 856 61 890 75 c 128,-1,52
 924 89 924 89 946 107.5 c 128,-1,53
 968 126 968 126 973 147 c 2,54,-1
 1033 430 l 2,55,56
 1045 487 1045 487 1044 517.5 c 128,-1,57
 1043 548 1043 548 1025 559 c 0,58,59
 1019 565 1019 565 1011 569 c 128,-1,60
 1003 573 1003 573 991 576 c 128,-1,61
 979 579 979 579 960.5 581.5 c 128,-1,62
 942 584 942 584 915 586 c 1,63,-1
 921 616 l 1,64,-1
 1365 616 l 1,65,-1
 1359 586 l 1,66,-1
 1359 586 l 1,0,1
EndSplineSet
EndChar

StartChar: H
Encoding: 72 72 34
Width: 1257
Flags: W
LayerCount: 2
Fore
SplineSet
1097 963 m 2,0,1
 1107 1009 1107 1009 1108 1038 c 128,-1,2
 1109 1067 1109 1067 1096 1083.5 c 128,-1,3
 1083 1100 1083 1100 1054 1107 c 128,-1,4
 1025 1114 1025 1114 974 1118 c 1,5,-1
 982 1153 l 1,6,-1
 1468 1153 l 1,7,-1
 1460 1118 l 1,8,9
 1407 1114 1407 1114 1375 1107 c 128,-1,10
 1343 1100 1343 1100 1323 1083.5 c 128,-1,11
 1303 1067 1303 1067 1292 1038 c 128,-1,12
 1281 1009 1281 1009 1271 963 c 2,13,-1
 1107 190 l 2,14,15
 1097 143 1097 143 1096.5 114.5 c 128,-1,16
 1096 86 1096 86 1109.5 69 c 128,-1,17
 1123 52 1123 52 1152 44.5 c 128,-1,18
 1181 37 1181 37 1230 33 c 1,19,-1
 1223 0 l 1,20,-1
 737 0 l 1,21,-1
 744 33 l 1,22,23
 796 37 796 37 828 44 c 128,-1,24
 860 51 860 51 880.5 69 c 128,-1,25
 901 87 901 87 913 120 c 128,-1,26
 925 153 925 153 937 209 c 2,27,-1
 1009 549 l 1,28,-1
 481 549 l 1,29,-1
 405 190 l 2,30,31
 395 143 395 143 394.5 114.5 c 128,-1,32
 394 86 394 86 406.5 69.5 c 128,-1,33
 419 53 419 53 447 45 c 128,-1,34
 475 37 475 37 523 33 c 1,35,-1
 516 0 l 1,36,-1
 33 0 l 1,37,-1
 40 33 l 1,38,39
 92 37 92 37 124 44 c 128,-1,40
 156 51 156 51 175.5 69 c 128,-1,41
 195 87 195 87 206.5 120 c 128,-1,42
 218 153 218 153 230 209 c 2,43,-1
 390 963 l 2,44,45
 400 1009 400 1009 401.5 1038 c 128,-1,46
 403 1067 403 1067 390 1083.5 c 128,-1,47
 377 1100 377 1100 348.5 1107 c 128,-1,48
 320 1114 320 1114 270 1118 c 1,49,-1
 278 1153 l 1,50,-1
 761 1153 l 1,51,-1
 753 1118 l 1,52,53
 702 1114 702 1114 671 1107 c 128,-1,54
 640 1100 640 1100 620.5 1083.5 c 128,-1,55
 601 1067 601 1067 590 1038 c 128,-1,56
 579 1009 579 1009 569 963 c 2,57,-1
 497 625 l 1,58,-1
 1025 625 l 1,59,-1
 1097 963 l 2,0,1
EndSplineSet
EndChar

StartChar: I
Encoding: 73 73 35
Width: 580
Flags: W
LayerCount: 2
Fore
SplineSet
405 963 m 1,0,1
 415 1011 415 1011 415.5 1040 c 128,-1,2
 416 1069 416 1069 401.5 1085.5 c 128,-1,3
 387 1102 387 1102 355 1109 c 128,-1,4
 323 1116 323 1116 268 1118 c 1,5,-1
 276 1153 l 1,6,-1
 794 1153 l 1,7,-1
 786 1118 l 1,8,9
 730 1116 730 1116 695 1109.5 c 128,-1,10
 660 1103 660 1103 638 1086.5 c 128,-1,11
 616 1070 616 1070 603.5 1040.5 c 128,-1,12
 591 1011 591 1011 581 963 c 2,13,-1
 417 190 l 2,14,15
 407 142 407 142 407 112.5 c 128,-1,16
 407 83 407 83 422 66 c 128,-1,17
 437 49 437 49 469.5 42 c 128,-1,18
 502 35 502 35 556 33 c 1,19,-1
 549 0 l 1,20,-1
 31 0 l 1,21,-1
 38 33 l 1,22,23
 93 35 93 35 128 41.5 c 128,-1,24
 163 48 163 48 184.5 64.5 c 128,-1,25
 206 81 206 81 218 111 c 128,-1,26
 230 141 230 141 241 190 c 2,27,-1
 405 963 l 1,28,-1
 405 963 l 1,0,1
EndSplineSet
EndChar

StartChar: J
Encoding: 74 74 36
Width: 678
Flags: W
LayerCount: 2
Fore
SplineSet
550 319 m 1,0,1
 515 152 515 152 421.5 63.5 c 128,-1,2
 328 -25 328 -25 184 -25 c 0,3,4
 146 -25 146 -25 116 -15.5 c 128,-1,5
 86 -6 86 -6 66.5 10.5 c 128,-1,6
 47 27 47 27 39 50 c 128,-1,7
 31 73 31 73 37 100 c 0,8,9
 41 118 41 118 51.5 134 c 128,-1,10
 62 150 62 150 76 162 c 128,-1,11
 90 174 90 174 107 181 c 128,-1,12
 124 188 124 188 141 188 c 0,13,14
 207 188 207 188 213 98 c 0,15,16
 218 67 218 67 224.5 55 c 128,-1,17
 231 43 231 43 251 43 c 0,18,19
 283 43 283 43 304 69.5 c 128,-1,20
 325 96 325 96 338 156 c 2,21,-1
 509 963 l 2,22,23
 519 1011 519 1011 521 1040 c 128,-1,24
 523 1069 523 1069 510 1085 c 128,-1,25
 497 1101 497 1101 466 1107.5 c 128,-1,26
 435 1114 435 1114 380 1118 c 1,27,-1
 388 1153 l 1,28,-1
 888 1153 l 1,29,-1
 880 1118 l 1,30,31
 827 1114 827 1114 794 1107.5 c 128,-1,32
 761 1101 761 1101 741 1085 c 128,-1,33
 721 1069 721 1069 709 1040 c 128,-1,34
 697 1011 697 1011 687 963 c 2,35,-1
 550 319 l 1,36,-1
 550 319 l 1,0,1
EndSplineSet
EndChar

StartChar: K
Encoding: 75 75 37
Width: 1257
Flags: W
LayerCount: 2
Fore
SplineSet
1421 1153 m 1,0,-1
 1413 1118 l 1,1,2
 1367 1116 1367 1116 1335.5 1110 c 128,-1,3
 1304 1104 1304 1104 1273.5 1090 c 128,-1,4
 1243 1076 1243 1076 1207 1050.5 c 128,-1,5
 1171 1025 1171 1025 1117 983 c 2,6,-1
 719 655 l 1,7,-1
 1031 221 l 2,8,9
 1077 157 1077 157 1107 120.5 c 128,-1,10
 1137 84 1137 84 1161 65.5 c 128,-1,11
 1185 47 1185 47 1208.5 41 c 128,-1,12
 1232 35 1232 35 1267 33 c 1,13,-1
 1260 0 l 1,14,-1
 727 0 l 1,15,-1
 734 33 l 1,16,17
 740 35 740 35 745 35 c 128,-1,18
 750 35 750 35 757 35 c 2,19,-1
 769 35 l 1,20,-1
 783 35 l 2,21,22
 857 35 857 35 865 74 c 0,23,24
 868 90 868 90 857.5 119.5 c 128,-1,25
 847 149 847 149 825 188 c 128,-1,26
 803 227 803 227 771.5 273.5 c 128,-1,27
 740 320 740 320 701 369 c 2,28,-1
 555 553 l 1,29,-1
 502 514 l 1,30,-1
 433 190 l 2,31,32
 422 142 422 142 421 112.5 c 128,-1,33
 420 83 420 83 433.5 66.5 c 128,-1,34
 447 50 447 50 477 43.5 c 128,-1,35
 507 37 507 37 558 33 c 1,36,-1
 551 0 l 1,37,-1
 59 0 l 1,38,-1
 66 33 l 1,39,40
 118 37 118 37 150.5 44.5 c 128,-1,41
 183 52 183 52 203.5 70 c 128,-1,42
 224 88 224 88 235.5 121 c 128,-1,43
 247 154 247 154 259 209 c 2,44,-1
 419 963 l 2,45,46
 429 1009 429 1009 430 1038 c 128,-1,47
 431 1067 431 1067 418.5 1083.5 c 128,-1,48
 406 1100 406 1100 376.5 1107 c 128,-1,49
 347 1114 347 1114 296 1118 c 1,50,-1
 304 1153 l 1,51,-1
 798 1153 l 1,52,-1
 790 1118 l 1,53,54
 736 1114 736 1114 703.5 1107.5 c 128,-1,55
 671 1101 671 1101 650.5 1085 c 128,-1,56
 630 1069 630 1069 618.5 1040 c 128,-1,57
 607 1011 607 1011 597 963 c 2,58,-1
 521 606 l 1,59,-1
 888 887 l 2,60,61
 932 920 932 920 963.5 946.5 c 128,-1,62
 995 973 995 973 1016 994.5 c 128,-1,63
 1037 1016 1037 1016 1048.5 1033 c 128,-1,64
 1060 1050 1060 1050 1064 1065 c 0,65,66
 1068 1083 1068 1083 1063.5 1092.5 c 128,-1,67
 1059 1102 1059 1102 1046 1107 c 128,-1,68
 1033 1112 1033 1112 1011 1114 c 128,-1,69
 989 1116 989 1116 956 1118 c 1,70,-1
 964 1153 l 1,71,-1
 1421 1153 l 1,0,-1
EndSplineSet
EndChar

StartChar: L
Encoding: 76 76 38
Width: 1063
Flags: W
LayerCount: 2
Fore
SplineSet
956 0 m 1,0,-1
 20 0 l 1,1,-1
 27 33 l 1,2,3
 77 37 77 37 108.5 44.5 c 128,-1,4
 140 52 140 52 160 69 c 128,-1,5
 180 86 180 86 191 114.5 c 128,-1,6
 202 143 202 143 212 190 c 2,7,-1
 376 963 l 2,8,9
 386 1009 386 1009 387 1038 c 128,-1,10
 388 1067 388 1067 375.5 1083.5 c 128,-1,11
 363 1100 363 1100 334.5 1107 c 128,-1,12
 306 1114 306 1114 257 1118 c 1,13,-1
 265 1153 l 1,14,-1
 757 1153 l 1,15,-1
 749 1118 l 1,16,17
 697 1116 697 1116 664 1108.5 c 128,-1,18
 631 1101 631 1101 609.5 1084 c 128,-1,19
 588 1067 588 1067 576 1038 c 128,-1,20
 564 1009 564 1009 554 963 c 2,21,-1
 379 139 l 2,22,23
 374 117 374 117 377 103 c 128,-1,24
 380 89 380 89 394.5 81.5 c 128,-1,25
 409 74 409 74 437.5 71 c 128,-1,26
 466 68 466 68 514 68 c 2,27,-1
 630 68 l 2,28,29
 740 68 740 68 818.5 92.5 c 128,-1,30
 897 117 897 117 953 168 c 0,31,32
 977 188 977 188 1002.5 220 c 128,-1,33
 1028 252 1028 252 1061 303 c 1,34,-1
 1104 303 l 1,35,-1
 956 0 l 1,0,-1
EndSplineSet
EndChar

StartChar: M
Encoding: 77 77 39
Width: 1548
Flags: W
LayerCount: 2
Fore
SplineSet
702 0 m 1,0,-1
 469 956 l 1,1,-1
 320 256 l 2,2,3
 306 190 306 190 304 148.5 c 128,-1,4
 302 107 302 107 315.5 82.5 c 128,-1,5
 329 58 329 58 358.5 47.5 c 128,-1,6
 388 37 388 37 437 33 c 1,7,-1
 430 0 l 1,8,-1
 20 0 l 1,9,-1
 27 33 l 1,10,11
 82 37 82 37 117.5 47 c 128,-1,12
 153 57 153 57 176.5 81 c 128,-1,13
 200 105 200 105 215 146.5 c 128,-1,14
 230 188 230 188 244 256 c 2,15,-1
 394 963 l 2,16,17
 404 1011 404 1011 404.5 1040 c 128,-1,18
 405 1069 405 1069 390.5 1085.5 c 128,-1,19
 376 1102 376 1102 345 1109 c 128,-1,20
 314 1116 314 1116 262 1118 c 1,21,-1
 270 1153 l 1,22,-1
 614 1153 l 1,23,-1
 828 274 l 1,24,-1
 1400 1153 l 1,25,-1
 1746 1153 l 1,26,-1
 1738 1118 l 1,27,28
 1690 1114 1690 1114 1659 1107 c 128,-1,29
 1628 1100 1628 1100 1608.5 1083.5 c 128,-1,30
 1589 1067 1589 1067 1577.5 1038 c 128,-1,31
 1566 1009 1566 1009 1556 963 c 2,32,-1
 1392 190 l 2,33,34
 1382 143 1382 143 1381.5 114.5 c 128,-1,35
 1381 86 1381 86 1393.5 69 c 128,-1,36
 1406 52 1406 52 1433.5 44.5 c 128,-1,37
 1461 37 1461 37 1508 33 c 1,38,-1
 1501 0 l 1,39,-1
 1016 0 l 1,40,-1
 1023 33 l 1,41,42
 1074 37 1074 37 1106.5 44.5 c 128,-1,43
 1139 52 1139 52 1160 70 c 128,-1,44
 1181 88 1181 88 1193.5 121 c 128,-1,45
 1206 154 1206 154 1218 209 c 2,46,-1
 1385 997 l 1,47,-1
 727 0 l 1,48,-1
 702 0 l 1,0,-1
EndSplineSet
EndChar

StartChar: N
Encoding: 78 78 40
Width: 1257
Flags: W
LayerCount: 2
Fore
SplineSet
465 938 m 1,0,-1
 320 256 l 2,1,2
 306 190 306 190 304 148.5 c 128,-1,3
 302 107 302 107 315.5 82.5 c 128,-1,4
 329 58 329 58 358.5 47.5 c 128,-1,5
 388 37 388 37 437 33 c 1,6,-1
 430 0 l 1,7,-1
 20 0 l 1,8,-1
 27 33 l 1,9,10
 82 37 82 37 117.5 47 c 128,-1,11
 153 57 153 57 176.5 81 c 128,-1,12
 200 105 200 105 215 146.5 c 128,-1,13
 230 188 230 188 244 256 c 2,14,-1
 407 1024 l 1,15,16
 387 1055 387 1055 371.5 1073.5 c 128,-1,17
 356 1092 356 1092 340 1102 c 128,-1,18
 324 1112 324 1112 304.5 1115 c 128,-1,19
 285 1118 285 1118 257 1118 c 1,20,-1
 265 1153 l 1,21,-1
 564 1153 l 1,22,-1
 1054 309 l 1,23,-1
 1179 897 l 2,24,25
 1194 967 1194 967 1196 1008.5 c 128,-1,26
 1198 1050 1198 1050 1184 1073.5 c 128,-1,27
 1170 1097 1170 1097 1139.5 1105.5 c 128,-1,28
 1109 1114 1109 1114 1058 1118 c 1,29,-1
 1066 1153 l 1,30,-1
 1476 1153 l 1,31,-1
 1468 1118 l 1,32,33
 1442 1116 1442 1116 1423.5 1113.5 c 128,-1,34
 1405 1111 1405 1111 1391.5 1107.5 c 128,-1,35
 1378 1104 1378 1104 1367.5 1099 c 128,-1,36
 1357 1094 1357 1094 1347 1087 c 0,37,38
 1288 1055 1288 1055 1255 897 c 2,39,-1
 1060 -20 l 1,40,-1
 1031 -20 l 1,41,-1
 465 938 l 1,0,-1
EndSplineSet
EndChar

StartChar: O
Encoding: 79 79 41
Width: 1257
Flags: W
LayerCount: 2
Fore
SplineSet
878 1176 m 0,0,1
 995 1176 995 1176 1089.5 1134.5 c 128,-1,2
 1184 1093 1184 1093 1245 1014.5 c 128,-1,3
 1306 936 1306 936 1327 823.5 c 128,-1,4
 1348 711 1348 711 1318 569 c 0,5,6
 1290 437 1290 437 1224.5 327.5 c 128,-1,7
 1159 218 1159 218 1066 140 c 128,-1,8
 973 62 973 62 857 18.5 c 128,-1,9
 741 -25 741 -25 612 -25 c 0,10,11
 495 -25 495 -25 398.5 22.5 c 128,-1,12
 302 70 302 70 241 154 c 0,13,14
 185 232 185 232 170 341.5 c 128,-1,15
 155 451 155 451 181 575 c 0,16,17
 209 707 209 707 274.5 817.5 c 128,-1,18
 340 928 340 928 432.5 1007.5 c 128,-1,19
 525 1087 525 1087 639 1131.5 c 128,-1,20
 753 1176 753 1176 878 1176 c 0,0,1
865 1114 m 0,21,22
 714 1114 714 1114 591 1001 c 0,23,24
 556 969 556 969 524 923.5 c 128,-1,25
 492 878 492 878 464.5 823 c 128,-1,26
 437 768 437 768 415.5 705 c 128,-1,27
 394 642 394 642 379 573 c 0,28,29
 364 501 364 501 360 433 c 128,-1,30
 356 365 356 365 362.5 306 c 128,-1,31
 369 247 369 247 386.5 200 c 128,-1,32
 404 153 404 153 432 123 c 0,33,34
 470 81 470 81 521.5 60 c 128,-1,35
 573 39 573 39 633 39 c 0,36,37
 771 39 771 39 883 131 c 0,38,39
 958 192 958 192 996 258 c 0,40,41
 1016 292 1016 292 1035 330.5 c 128,-1,42
 1054 369 1054 369 1070 409.5 c 128,-1,43
 1086 450 1086 450 1099 491 c 128,-1,44
 1112 532 1112 532 1120 571 c 0,45,46
 1148 703 1148 703 1142 804.5 c 128,-1,47
 1136 906 1136 906 1101.5 975 c 128,-1,48
 1067 1044 1067 1044 1006.5 1079 c 128,-1,49
 946 1114 946 1114 865 1114 c 0,21,22
EndSplineSet
EndChar

StartChar: P
Encoding: 80 80 42
Width: 969
Flags: W
LayerCount: 2
Fore
SplineSet
392 190 m 2,0,1
 382 142 382 142 381.5 112.5 c 128,-1,2
 381 83 381 83 395 66 c 128,-1,3
 409 49 409 49 439.5 42 c 128,-1,4
 470 35 470 35 521 33 c 1,5,-1
 514 0 l 1,6,-1
 29 0 l 1,7,-1
 36 33 l 1,8,9
 86 37 86 37 116 44.5 c 128,-1,10
 146 52 146 52 165 70 c 128,-1,11
 184 88 184 88 195 121 c 128,-1,12
 206 154 206 154 218 209 c 2,13,-1
 378 963 l 2,14,15
 388 1009 388 1009 389 1038 c 128,-1,16
 390 1067 390 1067 378 1083.5 c 128,-1,17
 366 1100 366 1100 339 1107 c 128,-1,18
 312 1114 312 1114 266 1118 c 1,19,-1
 274 1153 l 1,20,-1
 732 1153 l 2,21,22
 793 1153 793 1153 849.5 1144 c 128,-1,23
 906 1135 906 1135 952.5 1118 c 128,-1,24
 999 1101 999 1101 1034.5 1077.5 c 128,-1,25
 1070 1054 1070 1054 1090 1026 c 0,26,27
 1118 989 1118 989 1124.5 941 c 128,-1,28
 1131 893 1131 893 1120 838 c 0,29,30
 1101 750 1101 750 1041.5 676 c 128,-1,31
 982 602 982 602 894 559 c 0,32,33
 860 544 860 544 826.5 533 c 128,-1,34
 793 522 793 522 755.5 515 c 128,-1,35
 718 508 718 508 674.5 505 c 128,-1,36
 631 502 631 502 577 502 c 0,37,38
 545 502 545 502 518 502.5 c 128,-1,39
 491 503 491 503 459 508 c 1,40,-1
 392 190 l 2,0,1
474 575 m 1,41,42
 504 573 504 573 525 572 c 128,-1,43
 546 571 546 571 572 571 c 0,44,45
 875 571 875 571 929 827 c 0,46,47
 958 963 958 963 888.5 1025 c 128,-1,48
 819 1087 819 1087 643 1087 c 0,49,50
 608 1087 608 1087 592.5 1076 c 128,-1,51
 577 1065 577 1065 570 1028 c 2,52,-1
 474 575 l 1,41,42
EndSplineSet
EndChar

StartChar: Q
Encoding: 81 81 43
Width: 1257
Flags: W
LayerCount: 2
Fore
SplineSet
1155 -307 m 1,0,1
 1142 -309 1142 -309 1135.5 -309 c 128,-1,2
 1129 -309 1129 -309 1124 -309 c 0,3,4
 895 -309 895 -309 745 -259 c 128,-1,5
 595 -209 595 -209 522 -98 c 2,6,-1
 462 -2 l 1,7,8
 418 15 418 15 386.5 30.5 c 128,-1,9
 355 46 355 46 330.5 63 c 128,-1,10
 306 80 306 80 285.5 100 c 128,-1,11
 265 120 265 120 244 147 c 0,12,13
 126 317 126 317 180 573 c 0,14,15
 208 706 208 706 274 817 c 128,-1,16
 340 928 340 928 432.5 1007.5 c 128,-1,17
 525 1087 525 1087 639 1131.5 c 128,-1,18
 753 1176 753 1176 878 1176 c 0,19,20
 1001 1176 1001 1176 1096 1131.5 c 128,-1,21
 1191 1087 1191 1087 1250.5 1007.5 c 128,-1,22
 1310 928 1310 928 1329 817.5 c 128,-1,23
 1348 707 1348 707 1320 575 c 0,24,25
 1257 284 1257 284 1027 111 c 0,26,27
 990 84 990 84 958 64.5 c 128,-1,28
 926 45 926 45 893 30.5 c 128,-1,29
 860 16 860 16 822.5 6 c 128,-1,30
 785 -4 785 -4 738 -12 c 1,31,32
 776 -81 776 -81 819.5 -130.5 c 128,-1,33
 863 -180 863 -180 914.5 -211.5 c 128,-1,34
 966 -243 966 -243 1027 -258.5 c 128,-1,35
 1088 -274 1088 -274 1162 -276 c 1,36,-1
 1155 -307 l 1,0,1
869 1114 m 0,37,38
 793 1114 793 1114 725 1086 c 128,-1,39
 657 1058 657 1058 591 1001 c 0,40,41
 558 972 558 972 526 926.5 c 128,-1,42
 494 881 494 881 466 825.5 c 128,-1,43
 438 770 438 770 416.5 707.5 c 128,-1,44
 395 645 395 645 382 584 c 0,45,46
 353 449 353 449 358 347 c 128,-1,47
 363 245 363 245 397.5 176.5 c 128,-1,48
 432 108 432 108 493 73.5 c 128,-1,49
 554 39 554 39 637 39 c 0,50,51
 709 39 709 39 779 67.5 c 128,-1,52
 849 96 849 96 910 150 c 0,53,54
 943 180 943 180 975.5 226.5 c 128,-1,55
 1008 273 1008 273 1035.5 330 c 128,-1,56
 1063 387 1063 387 1085.5 451 c 128,-1,57
 1108 515 1108 515 1122 580 c 0,58,59
 1149 705 1149 705 1142 804 c 128,-1,60
 1135 903 1135 903 1100.5 972 c 128,-1,61
 1066 1041 1066 1041 1006.5 1077.5 c 128,-1,62
 947 1114 947 1114 869 1114 c 0,37,38
EndSplineSet
EndChar

StartChar: R
Encoding: 82 82 44
Width: 1161
Flags: W
LayerCount: 2
Fore
SplineSet
866 0 m 1,0,-1
 567 537 l 1,1,-1
 468 537 l 1,2,-1
 394 190 l 2,3,4
 384 143 384 143 383.5 114.5 c 128,-1,5
 383 86 383 86 396.5 69 c 128,-1,6
 410 52 410 52 439.5 44.5 c 128,-1,7
 469 37 469 37 519 33 c 1,8,-1
 512 0 l 1,9,-1
 31 0 l 1,10,-1
 38 33 l 1,11,12
 87 37 87 37 117.5 44.5 c 128,-1,13
 148 52 148 52 167.5 70 c 128,-1,14
 187 88 187 88 198.5 121 c 128,-1,15
 210 154 210 154 222 209 c 2,16,-1
 382 963 l 2,17,18
 392 1008 392 1008 393 1036.5 c 128,-1,19
 394 1065 394 1065 382 1082 c 128,-1,20
 370 1099 370 1099 343 1106.5 c 128,-1,21
 316 1114 316 1114 268 1118 c 1,22,-1
 276 1153 l 1,23,-1
 755 1153 l 2,24,25
 973 1153 973 1153 1068 1073.5 c 128,-1,26
 1163 994 1163 994 1131 846 c 0,27,28
 1117 783 1117 783 1084 731.5 c 128,-1,29
 1051 680 1051 680 1001 645 c 0,30,31
 975 629 975 629 950.5 615.5 c 128,-1,32
 926 602 926 602 897.5 591 c 128,-1,33
 869 580 869 580 834.5 571 c 128,-1,34
 800 562 800 562 754 555 c 1,35,-1
 1019 115 l 2,36,37
 1032 92 1032 92 1046 77.5 c 128,-1,38
 1060 63 1060 63 1076 54 c 128,-1,39
 1092 45 1092 45 1111 40 c 128,-1,40
 1130 35 1130 35 1154 33 c 1,41,-1
 1147 0 l 1,42,-1
 866 0 l 1,0,-1
481 598 m 1,43,44
 545 598 545 598 590 600.5 c 128,-1,45
 635 603 635 603 671 609.5 c 128,-1,46
 707 616 707 616 737.5 627 c 128,-1,47
 768 638 768 638 803 655 c 0,48,49
 856 681 856 681 892 731.5 c 128,-1,50
 928 782 928 782 942 850 c 0,51,52
 968 974 968 974 902.5 1030.5 c 128,-1,53
 837 1087 837 1087 675 1087 c 0,54,55
 622 1087 622 1087 600.5 1074 c 128,-1,56
 579 1061 579 1061 571 1024 c 2,57,-1
 481 598 l 1,43,44
EndSplineSet
EndChar

StartChar: S
Encoding: 83 83 45
Width: 969
Flags: W
LayerCount: 2
Fore
SplineSet
943 807 m 1,0,1
 941 844 941 844 937 872.5 c 128,-1,2
 933 901 933 901 926 924 c 128,-1,3
 919 947 919 947 908 967.5 c 128,-1,4
 897 988 897 988 880 1010 c 0,5,6
 842 1059 842 1059 796 1082.5 c 128,-1,7
 750 1106 750 1106 690 1106 c 0,8,9
 649 1106 649 1106 613 1094 c 128,-1,10
 577 1082 577 1082 548.5 1060 c 128,-1,11
 520 1038 520 1038 500.5 1008 c 128,-1,12
 481 978 481 978 474 942 c 0,13,14
 466 907 466 907 473.5 875 c 128,-1,15
 481 843 481 843 505 810.5 c 128,-1,16
 529 778 529 778 570 744 c 128,-1,17
 611 710 611 710 672 672 c 0,18,19
 748 625 748 625 800 580 c 128,-1,20
 852 535 852 535 881.5 488.5 c 128,-1,21
 911 442 911 442 919 394 c 128,-1,22
 927 346 927 346 916 293 c 0,23,24
 902 225 902 225 862.5 167 c 128,-1,25
 823 109 823 109 766.5 66.5 c 128,-1,26
 710 24 710 24 640 -0.5 c 128,-1,27
 570 -25 570 -25 494 -25 c 0,28,29
 440 -25 440 -25 391 -14.5 c 128,-1,30
 342 -4 342 -4 297 14 c 0,31,32
 272 25 272 25 253 30 c 128,-1,33
 234 35 234 35 220 35 c 0,34,35
 200 35 200 35 183 18.5 c 128,-1,36
 166 2 166 2 159 -23 c 1,37,-1
 120 -23 l 1,38,-1
 147 346 l 1,39,-1
 186 346 l 1,40,41
 218 186 218 186 287 112.5 c 128,-1,42
 356 39 356 39 473 39 c 0,43,44
 521 39 521 39 563.5 53 c 128,-1,45
 606 67 606 67 639.5 93 c 128,-1,46
 673 119 673 119 696.5 155 c 128,-1,47
 720 191 720 191 730 236 c 0,48,49
 742 298 742 298 724 336 c 0,50,51
 702 387 702 387 647.5 438.5 c 128,-1,52
 593 490 593 490 509 541 c 0,53,54
 444 579 444 579 400.5 616.5 c 128,-1,55
 357 654 357 654 333 694.5 c 128,-1,56
 309 735 309 735 303.5 780.5 c 128,-1,57
 298 826 298 826 309 879 c 0,58,59
 338 1015 338 1015 447 1096 c 0,60,61
 500 1134 500 1134 559 1155 c 128,-1,62
 618 1176 618 1176 675 1176 c 0,63,64
 717 1176 717 1176 761.5 1166.5 c 128,-1,65
 806 1157 806 1157 850 1139 c 0,66,67
 872 1128 872 1128 890.5 1123 c 128,-1,68
 909 1118 909 1118 923 1118 c 0,69,70
 969 1118 969 1118 990 1176 c 1,71,-1
 1027 1176 l 1,72,-1
 988 807 l 1,73,-1
 943 807 l 1,0,1
EndSplineSet
EndChar

StartChar: T
Encoding: 84 84 46
Width: 1063
Flags: W
LayerCount: 2
Fore
SplineSet
577 1079 m 1,0,1
 505 1079 505 1079 456.5 1071.5 c 128,-1,2
 408 1064 408 1064 373 1040 c 128,-1,3
 338 1016 338 1016 310.5 972 c 128,-1,4
 283 928 283 928 253 856 c 1,5,-1
 212 856 l 1,6,-1
 276 1153 l 1,7,-1
 1267 1153 l 1,8,-1
 1203 856 l 1,9,-1
 1170 856 l 1,10,11
 1171 928 1171 928 1163.5 972 c 128,-1,12
 1156 1016 1156 1016 1132 1040 c 128,-1,13
 1108 1064 1108 1064 1062.5 1071.5 c 128,-1,14
 1017 1079 1017 1079 944 1079 c 2,15,-1
 850 1079 l 1,16,-1
 661 190 l 2,17,18
 650 141 650 141 650 111.5 c 128,-1,19
 650 82 650 82 664.5 66 c 128,-1,20
 679 50 679 50 710 43.5 c 128,-1,21
 741 37 741 37 793 33 c 1,22,-1
 786 0 l 1,23,-1
 279 0 l 1,24,-1
 286 33 l 1,25,26
 341 37 341 37 374.5 43.5 c 128,-1,27
 408 50 408 50 429 68 c 128,-1,28
 450 86 450 86 462 119 c 128,-1,29
 474 152 474 152 486 209 c 2,30,-1
 671 1079 l 1,31,-1
 577 1079 l 1,32,-1
 577 1079 l 1,0,1
EndSplineSet
EndChar

StartChar: U
Encoding: 85 85 47
Width: 1257
Flags: W
LayerCount: 2
Fore
SplineSet
1156 442 m 1,0,1
 1145 391 1145 391 1133.5 350 c 128,-1,2
 1122 309 1122 309 1108 274.5 c 128,-1,3
 1094 240 1094 240 1077 211 c 128,-1,4
 1060 182 1060 182 1039 156 c 0,5,6
 895 -25 895 -25 612 -25 c 0,7,8
 390 -25 390 -25 305 84 c 128,-1,9
 220 193 220 193 269 420 c 2,10,-1
 384 963 l 2,11,12
 394 1011 394 1011 395.5 1040 c 128,-1,13
 397 1069 397 1069 384 1085 c 128,-1,14
 371 1101 371 1101 342 1107.5 c 128,-1,15
 313 1114 313 1114 262 1118 c 1,16,-1
 270 1153 l 1,17,-1
 761 1153 l 1,18,-1
 753 1118 l 1,19,20
 700 1114 700 1114 667.5 1107 c 128,-1,21
 635 1100 635 1100 615 1083.5 c 128,-1,22
 595 1067 595 1067 583.5 1038 c 128,-1,23
 572 1009 572 1009 562 963 c 2,24,-1
 444 406 l 2,25,26
 427 324 427 324 425.5 270.5 c 128,-1,27
 424 217 424 217 438 176 c 0,28,29
 461 113 461 113 517 82 c 128,-1,30
 573 51 573 51 667 51 c 0,31,32
 715 51 715 51 762.5 60.5 c 128,-1,33
 810 70 810 70 852 88 c 128,-1,34
 894 106 894 106 928.5 132 c 128,-1,35
 963 158 963 158 986 190 c 0,36,37
 1002 209 1002 209 1014.5 232 c 128,-1,38
 1027 255 1027 255 1038 283.5 c 128,-1,39
 1049 312 1049 312 1058.5 347 c 128,-1,40
 1068 382 1068 382 1077 426 c 2,41,-1
 1177 897 l 2,42,43
 1191 962 1191 962 1193.5 1003.5 c 128,-1,44
 1196 1045 1196 1045 1183.5 1069 c 128,-1,45
 1171 1093 1171 1093 1141 1103.5 c 128,-1,46
 1111 1114 1111 1114 1060 1118 c 1,47,-1
 1068 1153 l 1,48,-1
 1472 1153 l 1,49,-1
 1464 1118 l 1,50,51
 1410 1112 1410 1112 1375.5 1101.5 c 128,-1,52
 1341 1091 1341 1091 1318.5 1067.5 c 128,-1,53
 1296 1044 1296 1044 1281.5 1003.5 c 128,-1,54
 1267 963 1267 963 1253 897 c 2,55,-1
 1156 442 l 1,56,-1
 1156 442 l 1,0,1
EndSplineSet
EndChar

StartChar: V
Encoding: 86 86 48
Width: 1257
Flags: W
LayerCount: 2
Fore
SplineSet
1449 1118 m 1,0,1
 1418 1116 1418 1116 1396.5 1110 c 128,-1,2
 1375 1104 1375 1104 1355 1087.5 c 128,-1,3
 1335 1071 1335 1071 1312 1040 c 128,-1,4
 1289 1009 1289 1009 1256 956 c 2,5,-1
 661 -20 l 1,6,-1
 636 -20 l 1,7,-1
 412 938 l 2,8,9
 395 995 395 995 382 1030 c 128,-1,10
 369 1065 369 1065 354 1084.5 c 128,-1,11
 339 1104 339 1104 318 1111 c 128,-1,12
 297 1118 297 1118 266 1118 c 1,13,-1
 274 1153 l 1,14,-1
 737 1153 l 1,15,-1
 729 1118 l 1,16,17
 661 1116 661 1116 626.5 1105.5 c 128,-1,18
 592 1095 592 1095 585 1063 c 0,19,20
 583 1053 583 1053 583 1039 c 128,-1,21
 583 1025 583 1025 586.5 1002.5 c 128,-1,22
 590 980 590 980 597 947.5 c 128,-1,23
 604 915 604 915 616 868 c 2,24,-1
 753 281 l 1,25,-1
 1145 920 l 2,26,27
 1171 958 1171 958 1185.5 991 c 128,-1,28
 1200 1024 1200 1024 1205 1047 c 0,29,30
 1209 1065 1209 1065 1205 1077.5 c 128,-1,31
 1201 1090 1201 1090 1188 1098.5 c 128,-1,32
 1175 1107 1175 1107 1152 1111.5 c 128,-1,33
 1129 1116 1129 1116 1093 1118 c 1,34,-1
 1101 1153 l 1,35,-1
 1457 1153 l 1,36,-1
 1449 1118 l 1,37,-1
 1449 1118 l 1,0,1
EndSplineSet
EndChar

StartChar: W
Encoding: 87 87 49
Width: 1642
Flags: W
LayerCount: 2
Fore
SplineSet
1859 1118 m 1,0,1
 1823 1112 1823 1112 1799 1104.5 c 128,-1,2
 1775 1097 1775 1097 1757 1084 c 128,-1,3
 1739 1071 1739 1071 1724 1050 c 128,-1,4
 1709 1029 1709 1029 1690 995 c 0,5,6
 1634 899 1634 899 1590 822.5 c 128,-1,7
 1546 746 1546 746 1509.5 683.5 c 128,-1,8
 1473 621 1473 621 1442.5 568 c 128,-1,9
 1412 515 1412 515 1383.5 465.5 c 128,-1,10
 1355 416 1355 416 1327 366 c 128,-1,11
 1299 316 1299 316 1268 258.5 c 128,-1,12
 1237 201 1237 201 1200 133 c 128,-1,13
 1163 65 1163 65 1117 -20 c 1,14,-1
 1091 -20 l 1,15,-1
 971 717 l 1,16,-1
 546 -20 l 1,17,-1
 519 -20 l 1,18,-1
 382 915 l 2,19,20
 370 976 370 976 360 1014.5 c 128,-1,21
 350 1053 350 1053 335.5 1075 c 128,-1,22
 321 1097 321 1097 299.5 1106.5 c 128,-1,23
 278 1116 278 1116 245 1118 c 1,24,-1
 253 1153 l 1,25,-1
 679 1153 l 1,26,-1
 671 1118 l 1,27,28
 638 1116 638 1116 616 1113 c 128,-1,29
 594 1110 594 1110 579.5 1104 c 128,-1,30
 565 1098 565 1098 557.5 1088 c 128,-1,31
 550 1078 550 1078 547 1063 c 0,32,33
 544 1049 544 1049 544.5 1028.5 c 128,-1,34
 545 1008 545 1008 550 983 c 2,35,-1
 662 330 l 1,36,-1
 952 819 l 1,37,-1
 925 963 l 2,38,39
 914 1016 914 1016 904.5 1047 c 128,-1,40
 895 1078 895 1078 880.5 1093.5 c 128,-1,41
 866 1109 866 1109 843 1113.5 c 128,-1,42
 820 1118 820 1118 782 1118 c 1,43,-1
 790 1153 l 1,44,-1
 1255 1153 l 1,45,-1
 1247 1118 l 1,46,47
 1174 1118 1174 1118 1139.5 1104 c 128,-1,48
 1105 1090 1105 1090 1099 1059 c 0,49,50
 1094 1034 1094 1034 1100.5 1001.5 c 128,-1,51
 1107 969 1107 969 1117 918 c 2,52,-1
 1221 324 l 1,53,-1
 1564 913 l 2,54,55
 1586 951 1586 951 1600.5 984.5 c 128,-1,56
 1615 1018 1615 1018 1620 1044 c 0,57,58
 1628 1080 1628 1080 1604.5 1096 c 128,-1,59
 1581 1112 1581 1112 1515 1118 c 1,60,-1
 1523 1153 l 1,61,-1
 1867 1153 l 1,62,-1
 1859 1118 l 1,63,-1
 1859 1118 l 1,0,1
EndSplineSet
EndChar

StartChar: X
Encoding: 88 88 50
Width: 1257
Flags: W
LayerCount: 2
Fore
SplineSet
1447 1118 m 1,0,1
 1407 1116 1407 1116 1375.5 1110 c 128,-1,2
 1344 1104 1344 1104 1312.5 1087 c 128,-1,3
 1281 1070 1281 1070 1243.5 1038.5 c 128,-1,4
 1206 1007 1206 1007 1154 954 c 2,5,-1
 833 639 l 1,6,-1
 1066 162 l 2,7,8
 1086 123 1086 123 1102 99.5 c 128,-1,9
 1118 76 1118 76 1136 62.5 c 128,-1,10
 1154 49 1154 49 1176.5 43 c 128,-1,11
 1199 37 1199 37 1234 33 c 1,12,-1
 1227 0 l 1,13,-1
 709 0 l 1,14,-1
 716 33 l 1,15,16
 733 35 733 35 745.5 36 c 128,-1,17
 758 37 758 37 763 37 c 0,18,19
 850 40 850 40 860 86 c 0,20,21
 869 130 869 130 808 258 c 2,22,-1
 694 502 l 1,23,-1
 434 244 l 2,24,25
 371 185 371 185 342.5 148 c 128,-1,26
 314 111 314 111 310 94 c 0,27,28
 307 77 307 77 311 67 c 128,-1,29
 315 57 315 57 328.5 50.5 c 128,-1,30
 342 44 342 44 367 40.5 c 128,-1,31
 392 37 392 37 431 33 c 1,32,-1
 424 0 l 1,33,-1
 16 0 l 1,34,-1
 23 33 l 1,35,36
 46 35 46 35 63 37.5 c 128,-1,37
 80 40 80 40 96.5 46.5 c 128,-1,38
 113 53 113 53 131.5 65 c 128,-1,39
 150 77 150 77 175 98.5 c 128,-1,40
 200 120 200 120 234.5 152 c 128,-1,41
 269 184 269 184 317 231 c 2,42,-1
 663 567 l 1,43,-1
 533 846 l 2,44,45
 488 935 488 935 458 988.5 c 128,-1,46
 428 1042 428 1042 401.5 1071 c 128,-1,47
 375 1100 375 1100 346.5 1109 c 128,-1,48
 318 1118 318 1118 276 1118 c 1,49,-1
 284 1153 l 1,50,-1
 808 1153 l 1,51,-1
 800 1118 l 1,52,-1
 751 1118 l 2,53,54
 708 1116 708 1116 686 1104.5 c 128,-1,55
 664 1093 664 1093 658 1067 c 0,56,57
 655 1052 655 1052 659 1030.5 c 128,-1,58
 663 1009 663 1009 674 978 c 128,-1,59
 685 947 685 947 704.5 905 c 128,-1,60
 724 863 724 863 751 807 c 2,61,-1
 802 702 l 1,62,-1
 1050 942 l 2,63,64
 1097 991 1097 991 1119.5 1018.5 c 128,-1,65
 1142 1046 1142 1046 1145 1063 c 0,66,67
 1148 1078 1148 1078 1145 1088 c 128,-1,68
 1142 1098 1142 1098 1129 1104.5 c 128,-1,69
 1116 1111 1116 1111 1093 1114 c 128,-1,70
 1070 1117 1070 1117 1034 1118 c 1,71,-1
 1042 1153 l 1,72,-1
 1455 1153 l 1,73,-1
 1447 1118 l 1,74,-1
 1447 1118 l 1,0,1
EndSplineSet
EndChar

StartChar: Y
Encoding: 89 89 51
Width: 1257
Flags: W
LayerCount: 2
Fore
SplineSet
1462 1118 m 1,0,1
 1427 1116 1427 1116 1398.5 1106 c 128,-1,2
 1370 1096 1370 1096 1338.5 1074 c 128,-1,3
 1307 1052 1307 1052 1269 1015.5 c 128,-1,4
 1231 979 1231 979 1178 922 c 2,5,-1
 837 528 l 1,6,-1
 765 190 l 2,7,8
 754 140 754 140 754.5 110 c 128,-1,9
 755 80 755 80 771 63.5 c 128,-1,10
 787 47 787 47 821 41 c 128,-1,11
 855 35 855 35 912 33 c 1,12,-1
 905 0 l 1,13,-1
 373 0 l 1,14,-1
 380 33 l 1,15,16
 440 37 440 37 476 43 c 128,-1,17
 512 49 512 49 534 67 c 128,-1,18
 556 85 556 85 568.5 118 c 128,-1,19
 581 151 581 151 593 209 c 2,20,-1
 657 512 l 1,21,-1
 498 846 l 2,22,23
 455 937 455 937 426 991 c 128,-1,24
 397 1045 397 1045 374 1073.5 c 128,-1,25
 351 1102 351 1102 328.5 1110 c 128,-1,26
 306 1118 306 1118 276 1118 c 1,27,-1
 284 1153 l 1,28,-1
 769 1153 l 1,29,-1
 761 1118 l 1,30,31
 699 1116 699 1116 666.5 1107 c 128,-1,32
 634 1098 634 1098 627 1067 c 0,33,34
 624 1053 624 1053 628.5 1032.5 c 128,-1,35
 633 1012 633 1012 642 989 c 2,36,-1
 816 604 l 1,37,-1
 1149 997 l 2,38,39
 1166 1017 1166 1017 1175.5 1033 c 128,-1,40
 1185 1049 1185 1049 1188 1063 c 0,41,42
 1195 1094 1195 1094 1171 1106 c 128,-1,43
 1147 1118 1147 1118 1079 1118 c 1,44,-1
 1087 1153 l 1,45,-1
 1470 1153 l 1,46,-1
 1462 1118 l 1,47,-1
 1462 1118 l 1,0,1
EndSplineSet
EndChar

StartChar: Z
Encoding: 90 90 52
Width: 1063
Flags: W
LayerCount: 2
Fore
SplineSet
997 0 m 1,0,-1
 14 0 l 1,1,-1
 19 27 l 1,2,-1
 1006 1085 l 1,3,-1
 621 1085 l 2,4,5
 446 1085 446 1085 373 1012 c 0,6,7
 359 997 359 997 347.5 983 c 128,-1,8
 336 969 336 969 325.5 951.5 c 128,-1,9
 315 934 315 934 303.5 911 c 128,-1,10
 292 888 292 888 279 854 c 1,11,-1
 234 854 l 1,12,-1
 333 1153 l 1,13,-1
 1251 1153 l 1,14,-1
 1245 1126 l 1,15,-1
 266 66 l 1,16,-1
 714 66 l 2,17,18
 866 66 866 66 946 133 c 0,19,20
 961 149 961 149 974 164.5 c 128,-1,21
 987 180 987 180 1001 199 c 128,-1,22
 1015 218 1015 218 1030 243.5 c 128,-1,23
 1045 269 1045 269 1063 305 c 1,24,-1
 1104 305 l 1,25,-1
 997 0 l 1,0,-1
EndSplineSet
EndChar

StartChar: bracketleft
Encoding: 91 91 53
Width: 580
Flags: W
LayerCount: 2
Fore
SplineSet
96 -270 m 1,0,-1
 399 1153 l 1,1,-1
 765 1153 l 1,2,-1
 755 1110 l 1,3,-1
 600 1110 l 2,4,5
 556 1110 556 1110 535.5 1092 c 128,-1,6
 515 1074 515 1074 506 1032 c 2,7,-1
 257 -137 l 2,8,9
 239 -227 239 -227 322 -227 c 2,10,-1
 471 -227 l 1,11,-1
 462 -270 l 1,12,-1
 96 -270 l 1,0,-1
EndSplineSet
EndChar

StartChar: backslash
Encoding: 92 92 54
Width: 424
Flags: W
LayerCount: 2
Fore
SplineSet
357 -92 m 1,0,-1
 287 -92 l 1,1,-1
 280 1118 l 1,2,-1
 348 1118 l 1,3,-1
 357 -92 l 1,0,-1
EndSplineSet
EndChar

StartChar: bracketright
Encoding: 93 93 55
Width: 580
Flags: W
LayerCount: 2
Fore
SplineSet
166 -227 m 1,0,1
 208 -227 208 -227 231 -210.5 c 128,-1,2
 254 -194 254 -194 262 -152 c 2,3,-1
 511 1018 l 2,4,5
 531 1110 531 1110 444 1110 c 2,6,-1
 294 1110 l 1,7,-1
 304 1153 l 1,8,-1
 671 1153 l 1,9,-1
 368 -270 l 1,10,-1
 1 -270 l 1,11,-1
 10 -227 l 1,12,-1
 166 -227 l 1,13,-1
 166 -227 l 1,0,1
EndSplineSet
EndChar

StartChar: asciicircum
Encoding: 94 94 56
Width: 817
Flags: W
LayerCount: 2
Fore
SplineSet
601 1153 m 1,0,-1
 708 1153 l 1,1,-1
 885 516 l 1,2,-1
 766 516 l 1,3,-1
 626 1020 l 1,4,-1
 269 516 l 1,5,-1
 152 516 l 1,6,-1
 601 1153 l 1,0,-1
EndSplineSet
EndChar

StartChar: underscore
Encoding: 95 95 57
Width: 870
Flags: W
LayerCount: 2
Fore
SplineSet
-27 -131 m 1,0,-1
 842 -131 l 1,1,-1
 823 -217 l 1,2,-1
 -46 -217 l 1,3,-1
 -27 -131 l 1,0,-1
EndSplineSet
EndChar

StartChar: grave
Encoding: 96 96 58
Width: 580
Flags: W
LayerCount: 2
Fore
SplineSet
307 1051 m 2,0,1
 263 1086 263 1086 272 1126 c 0,2,3
 277 1151 277 1151 297 1166.5 c 128,-1,4
 317 1182 317 1182 343 1182 c 0,5,6
 362 1182 362 1182 375 1173 c 128,-1,7
 388 1164 388 1164 408 1141 c 2,8,-1
 609 883 l 1,9,-1
 539 883 l 1,10,-1
 307 1051 l 2,0,1
EndSplineSet
EndChar

StartChar: a
Encoding: 97 97 59
Width: 772
Flags: W
LayerCount: 2
Fore
SplineSet
782 70 m 1,0,1
 755 44 755 44 733 27 c 128,-1,2
 711 10 711 10 691.5 0.5 c 128,-1,3
 672 -9 672 -9 652 -12.5 c 128,-1,4
 632 -16 632 -16 608 -16 c 0,5,6
 554 -16 554 -16 535 12.5 c 128,-1,7
 516 41 516 41 525 111 c 1,8,9
 477 76 477 76 438 52 c 128,-1,10
 399 28 399 28 365.5 13 c 128,-1,11
 332 -2 332 -2 302.5 -9 c 128,-1,12
 273 -16 273 -16 244 -16 c 0,13,14
 203 -16 203 -16 172.5 -2.5 c 128,-1,15
 142 11 142 11 123 35.5 c 128,-1,16
 104 60 104 60 98.5 94 c 128,-1,17
 93 128 93 128 102 170 c 0,18,19
 111 213 111 213 135.5 254 c 128,-1,20
 160 295 160 295 194 319 c 0,21,22
 226 345 226 345 254 363 c 128,-1,23
 282 381 282 381 324 400 c 128,-1,24
 366 419 366 419 432.5 444 c 128,-1,25
 499 469 499 469 607 508 c 1,26,-1
 630 614 l 2,27,28
 646 687 646 687 618.5 723.5 c 128,-1,29
 591 760 591 760 528 760 c 0,30,31
 502 760 502 760 477.5 753 c 128,-1,32
 453 746 453 746 434 734.5 c 128,-1,33
 415 723 415 723 402 707.5 c 128,-1,34
 389 692 389 692 385 674 c 0,35,36
 383 667 383 667 382.5 657 c 128,-1,37
 382 647 382 647 382 637 c 128,-1,38
 382 627 382 627 381.5 618 c 128,-1,39
 381 609 381 609 380 604 c 0,40,41
 377 589 377 589 367.5 576 c 128,-1,42
 358 563 358 563 344.5 552.5 c 128,-1,43
 331 542 331 542 315 536 c 128,-1,44
 299 530 299 530 284 530 c 0,45,46
 255 530 255 530 237.5 552.5 c 128,-1,47
 220 575 220 575 226 606 c 0,48,49
 235 647 235 647 265 682.5 c 128,-1,50
 295 718 295 718 340 744.5 c 128,-1,51
 385 771 385 771 441 786 c 128,-1,52
 497 801 497 801 559 801 c 0,53,54
 717 801 717 801 755 705 c 0,55,56
 768 674 768 674 767 632 c 128,-1,57
 766 590 766 590 751 522 c 2,58,-1
 679 182 l 2,59,60
 667 125 667 125 673.5 103.5 c 128,-1,61
 680 82 680 82 709 82 c 0,62,63
 729 82 729 82 747 89 c 128,-1,64
 765 96 765 96 792 115 c 1,65,-1
 782 70 l 1,0,1
599 467 m 1,66,67
 515 438 515 438 455.5 411.5 c 128,-1,68
 396 385 396 385 356.5 356.5 c 128,-1,69
 317 328 317 328 295 295.5 c 128,-1,70
 273 263 273 263 264 223 c 2,71,-1
 263 217 l 2,72,73
 257 189 257 189 260.5 165 c 128,-1,74
 264 141 264 141 275 123 c 128,-1,75
 286 105 286 105 304 94.5 c 128,-1,76
 322 84 322 84 345 84 c 0,77,78
 369 84 369 84 407.5 94 c 128,-1,79
 446 104 446 104 481 123 c 0,80,81
 511 135 511 135 524 155.5 c 128,-1,82
 537 176 537 176 545 213 c 2,83,-1
 599 467 l 1,66,67
EndSplineSet
EndChar

StartChar: b
Encoding: 98 98 60
Width: 870
Flags: W
LayerCount: 2
Fore
SplineSet
404 653 m 1,0,1
 423 684 423 684 453.5 711.5 c 128,-1,2
 484 739 484 739 520.5 758.5 c 128,-1,3
 557 778 557 778 598 789.5 c 128,-1,4
 639 801 639 801 678 801 c 0,5,6
 744 801 744 801 793.5 772 c 128,-1,7
 843 743 843 743 873 692.5 c 128,-1,8
 903 642 903 642 911.5 573 c 128,-1,9
 920 504 920 504 903 424 c 0,10,11
 883 330 883 330 834.5 249.5 c 128,-1,12
 786 169 786 169 719 110 c 128,-1,13
 652 51 652 51 571 17.5 c 128,-1,14
 490 -16 490 -16 404 -16 c 0,15,16
 351 -16 351 -16 301.5 -6.5 c 128,-1,17
 252 3 252 3 214.5 18.5 c 128,-1,18
 177 34 177 34 156.5 53.5 c 128,-1,19
 136 73 136 73 140 94 c 2,20,-1
 332 997 l 2,21,22
 338 1025 338 1025 338 1042.5 c 128,-1,23
 338 1060 338 1060 330.5 1069.5 c 128,-1,24
 323 1079 323 1079 307 1082 c 128,-1,25
 291 1085 291 1085 265 1085 c 2,26,-1
 234 1085 l 1,27,-1
 240 1112 l 1,28,-1
 294 1126 l 2,29,30
 327 1135 327 1135 353.5 1142 c 128,-1,31
 380 1149 380 1149 405 1156.5 c 128,-1,32
 430 1164 430 1164 455 1172 c 128,-1,33
 480 1180 480 1180 510 1190 c 1,34,-1
 518 1186 l 1,35,-1
 404 653 l 1,0,1
292 123 m 2,36,37
 288 105 288 105 298.5 90 c 128,-1,38
 309 75 309 75 329.5 63.5 c 128,-1,39
 350 52 350 52 379 45.5 c 128,-1,40
 408 39 408 39 442 39 c 0,41,42
 554 39 554 39 628 116 c 128,-1,43
 702 193 702 193 734 342 c 0,44,45
 751 422 751 422 749 486.5 c 128,-1,46
 747 551 747 551 727.5 596 c 128,-1,47
 708 641 708 641 671.5 665.5 c 128,-1,48
 635 690 635 690 584 690 c 0,49,50
 550 690 550 690 517 679.5 c 128,-1,51
 484 669 484 669 456.5 651.5 c 128,-1,52
 429 634 429 634 409.5 610 c 128,-1,53
 390 586 390 586 384 559 c 2,54,-1
 292 123 l 2,36,37
EndSplineSet
EndChar

StartChar: c
Encoding: 99 99 61
Width: 772
Flags: W
LayerCount: 2
Fore
SplineSet
771 256 m 1,0,1
 743 218 743 218 720.5 189 c 128,-1,2
 698 160 698 160 678 137.5 c 128,-1,3
 658 115 658 115 639.5 98 c 128,-1,4
 621 81 621 81 600 66 c 0,5,6
 539 22 539 22 485 3 c 128,-1,7
 431 -16 431 -16 371 -16 c 0,8,9
 298 -16 298 -16 243 12.5 c 128,-1,10
 188 41 188 41 155 92 c 128,-1,11
 122 143 122 143 112.5 214 c 128,-1,12
 103 285 103 285 121 371 c 0,13,14
 143 474 143 474 196 559.5 c 128,-1,15
 249 645 249 645 327 702 c 0,16,17
 459 801 459 801 596 801 c 0,18,19
 650 801 650 801 695 786.5 c 128,-1,20
 740 772 740 772 771 747.5 c 128,-1,21
 802 723 802 723 816.5 690.5 c 128,-1,22
 831 658 831 658 823 621 c 0,23,24
 820 606 820 606 811 593 c 128,-1,25
 802 580 802 580 788.5 570.5 c 128,-1,26
 775 561 775 561 758.5 555 c 128,-1,27
 742 549 742 549 724 549 c 0,28,29
 699 549 699 549 682 570.5 c 128,-1,30
 665 592 665 592 661 629 c 2,31,-1
 657 666 l 1,32,33
 660 715 660 715 639.5 733.5 c 128,-1,34
 619 752 619 752 573 752 c 0,35,36
 520 752 520 752 472 729.5 c 128,-1,37
 424 707 424 707 384.5 666.5 c 128,-1,38
 345 626 345 626 316 570 c 128,-1,39
 287 514 287 514 272 446 c 0,40,41
 256 372 256 372 263 310 c 128,-1,42
 270 248 270 248 296 203.5 c 128,-1,43
 322 159 322 159 366 134 c 128,-1,44
 410 109 410 109 469 109 c 0,45,46
 507 109 507 109 540 117.5 c 128,-1,47
 573 126 573 126 606 144.5 c 128,-1,48
 639 163 639 163 673.5 194 c 128,-1,49
 708 225 708 225 749 270 c 1,50,-1
 771 256 l 1,51,-1
 771 256 l 1,0,1
EndSplineSet
EndChar

StartChar: d
Encoding: 100 100 62
Width: 870
Flags: W
LayerCount: 2
Fore
SplineSet
612 98 m 1,0,1
 556 36 556 36 497.5 10 c 128,-1,2
 439 -16 439 -16 365 -16 c 0,3,4
 293 -16 293 -16 239.5 11 c 128,-1,5
 186 38 186 38 154 86.5 c 128,-1,6
 122 135 122 135 113 203.5 c 128,-1,7
 104 272 104 272 122 356 c 0,8,9
 142 450 142 450 187.5 531 c 128,-1,10
 233 612 233 612 295.5 672 c 128,-1,11
 358 732 358 732 431.5 766.5 c 128,-1,12
 505 801 505 801 580 801 c 0,13,14
 629 801 629 801 668 785 c 128,-1,15
 707 769 707 769 746 725 c 1,16,-1
 803 997 l 2,17,18
 809 1024 809 1024 809.5 1041 c 128,-1,19
 810 1058 810 1058 803 1068 c 128,-1,20
 796 1078 796 1078 781.5 1081.5 c 128,-1,21
 767 1085 767 1085 742 1085 c 2,22,-1
 703 1085 l 1,23,-1
 709 1112 l 1,24,25
 753 1124 753 1124 788.5 1133.5 c 128,-1,26
 824 1143 824 1143 855.5 1151 c 128,-1,27
 887 1159 887 1159 917.5 1168.5 c 128,-1,28
 948 1178 948 1178 981 1190 c 1,29,-1
 989 1186 l 1,30,-1
 779 199 l 2,31,32
 772 165 772 165 771.5 145 c 128,-1,33
 771 125 771 125 779.5 114.5 c 128,-1,34
 788 104 788 104 805.5 101 c 128,-1,35
 823 98 823 98 851 98 c 0,36,37
 856 98 856 98 861.5 98 c 128,-1,38
 867 98 867 98 875 100 c 1,39,-1
 869 74 l 1,40,-1
 594 -16 l 1,41,-1
 589 -12 l 1,42,-1
 612 98 l 1,0,1
714 578 m 2,43,44
 721 612 721 612 713 643.5 c 128,-1,45
 705 675 705 675 685.5 699 c 128,-1,46
 666 723 666 723 636.5 737.5 c 128,-1,47
 607 752 607 752 573 752 c 0,48,49
 524 752 524 752 479 729 c 128,-1,50
 434 706 434 706 396.5 663.5 c 128,-1,51
 359 621 359 621 331 561 c 128,-1,52
 303 501 303 501 287 426 c 0,53,54
 270 345 270 345 273.5 280 c 128,-1,55
 277 215 277 215 299 169.5 c 128,-1,56
 321 124 321 124 359.5 99 c 128,-1,57
 398 74 398 74 451 74 c 0,58,59
 489 74 489 74 524 86.5 c 128,-1,60
 559 99 559 99 589 125 c 0,61,62
 605 139 605 139 616 154.5 c 128,-1,63
 627 170 627 170 629 178 c 2,64,-1
 714 578 l 2,43,44
EndSplineSet
EndChar

StartChar: e
Encoding: 101 101 63
Width: 772
Flags: W
LayerCount: 2
Fore
SplineSet
795 274 m 1,0,1
 709 128 709 128 601 56 c 128,-1,2
 493 -16 493 -16 365 -16 c 0,3,4
 290 -16 290 -16 235 10.5 c 128,-1,5
 180 37 180 37 148.5 87.5 c 128,-1,6
 117 138 117 138 109.5 210 c 128,-1,7
 102 282 102 282 122 373 c 0,8,9
 143 472 143 472 188.5 551 c 128,-1,10
 234 630 234 630 295 685.5 c 128,-1,11
 356 741 356 741 429 771 c 128,-1,12
 502 801 502 801 578 801 c 0,13,14
 646 801 646 801 698.5 775.5 c 128,-1,15
 751 750 751 750 779 700 c 0,16,17
 789 681 789 681 797 660 c 128,-1,18
 805 639 805 639 808.5 613.5 c 128,-1,19
 812 588 812 588 812 555.5 c 128,-1,20
 812 523 812 523 807 481 c 1,21,-1
 272 481 l 1,22,23
 254 386 254 386 259.5 314.5 c 128,-1,24
 265 243 265 243 290.5 196 c 128,-1,25
 316 149 316 149 359.5 125.5 c 128,-1,26
 403 102 403 102 461 102 c 0,27,28
 502 102 502 102 540 112 c 128,-1,29
 578 122 578 122 615.5 144 c 128,-1,30
 653 166 653 166 691.5 201 c 128,-1,31
 730 236 730 236 772 287 c 1,32,-1
 795 274 l 1,0,1
642 539 m 1,33,34
 644 596 644 596 639.5 634 c 128,-1,35
 635 672 635 672 620.5 695 c 128,-1,36
 606 718 606 718 580 727.5 c 128,-1,37
 554 737 554 737 512 737 c 0,38,39
 432 737 432 737 376.5 689.5 c 128,-1,40
 321 642 321 642 286 539 c 1,41,-1
 642 539 l 1,33,34
EndSplineSet
EndChar

StartChar: f
Encoding: 102 102 64
Width: 580
Flags: W
LayerCount: 2
Fore
SplineSet
480 727 m 1,0,-1
 364 180 l 2,1,2
 353 132 353 132 352.5 102.5 c 128,-1,3
 352 73 352 73 365.5 57 c 128,-1,4
 379 41 379 41 409.5 35 c 128,-1,5
 440 29 440 29 492 27 c 1,6,-1
 487 0 l 1,7,-1
 35 0 l 1,8,-1
 40 27 l 1,9,10
 88 29 88 29 118 36 c 128,-1,11
 148 43 148 43 166.5 59.5 c 128,-1,12
 185 76 185 76 195.5 105 c 128,-1,13
 206 134 206 134 216 180 c 2,14,-1
 332 727 l 1,15,-1
 191 727 l 1,16,-1
 203 784 l 1,17,-1
 344 784 l 1,18,19
 357 836 357 836 369 875 c 128,-1,20
 381 914 381 914 395 946 c 128,-1,21
 409 978 409 978 426 1005.5 c 128,-1,22
 443 1033 443 1033 467 1063 c 0,23,24
 515 1123 515 1123 585.5 1156.5 c 128,-1,25
 656 1190 656 1190 737 1190 c 0,26,27
 777 1190 777 1190 808.5 1182 c 128,-1,28
 840 1174 840 1174 861 1159.5 c 128,-1,29
 882 1145 882 1145 891 1125 c 128,-1,30
 900 1105 900 1105 895 1081 c 0,31,32
 889 1050 889 1050 863 1030 c 128,-1,33
 837 1010 837 1010 808 1010 c 0,34,35
 785 1010 785 1010 771.5 1024 c 128,-1,36
 758 1038 758 1038 742 1073 c 0,37,38
 726 1110 726 1110 709 1125.5 c 128,-1,39
 692 1141 692 1141 666 1141 c 0,40,41
 615 1141 615 1141 582 1100.5 c 128,-1,42
 549 1060 549 1060 533 985 c 2,43,-1
 490 784 l 1,44,-1
 705 784 l 1,45,-1
 693 727 l 1,46,-1
 480 727 l 1,0,-1
EndSplineSet
EndChar

StartChar: g
Encoding: 103 103 65
Width: 870
Flags: W
LayerCount: 2
Fore
SplineSet
817 676 m 1,0,1
 826 634 826 634 826.5 601 c 128,-1,2
 827 568 827 568 819 530 c 0,3,4
 805 464 805 464 775.5 417 c 128,-1,5
 746 370 746 370 693 332 c 0,6,7
 636 294 636 294 582 276 c 128,-1,8
 528 258 528 258 474 258 c 0,9,10
 460 258 460 258 440.5 260 c 128,-1,11
 421 262 421 262 392 268 c 1,12,13
 373 262 373 262 352 249.5 c 128,-1,14
 331 237 331 237 312.5 221 c 128,-1,15
 294 205 294 205 280.5 188.5 c 128,-1,16
 267 172 267 172 264 158 c 0,17,18
 255 117 255 117 390 111 c 2,19,-1
 613 100 l 2,20,21
 709 95 709 95 755 45.5 c 128,-1,22
 801 -4 801 -4 784 -86 c 0,23,24
 773 -136 773 -136 742 -177 c 128,-1,25
 711 -218 711 -218 651 -260 c 0,26,27
 567 -319 567 -319 467.5 -349 c 128,-1,28
 368 -379 368 -379 269 -379 c 0,29,30
 207 -379 207 -379 155 -365.5 c 128,-1,31
 103 -352 103 -352 66.5 -329.5 c 128,-1,32
 30 -307 30 -307 12.5 -276.5 c 128,-1,33
 -5 -246 -5 -246 2 -211 c 0,34,35
 7 -186 7 -186 21.5 -162.5 c 128,-1,36
 36 -139 36 -139 62.5 -113.5 c 128,-1,37
 89 -88 89 -88 127.5 -60 c 128,-1,38
 166 -32 166 -32 219 2 c 1,39,40
 170 28 170 28 155.5 48 c 128,-1,41
 141 68 141 68 146 94 c 0,42,43
 151 116 151 116 162 131.5 c 128,-1,44
 173 147 173 147 195.5 166.5 c 128,-1,45
 218 186 218 186 253.5 213 c 128,-1,46
 289 240 289 240 343 285 c 1,47,48
 304 306 304 306 278 330 c 128,-1,49
 252 354 252 354 238.5 381.5 c 128,-1,50
 225 409 225 409 223 442 c 128,-1,51
 221 475 221 475 230 516 c 0,52,53
 243 577 243 577 277 629.5 c 128,-1,54
 311 682 311 682 359 720 c 128,-1,55
 407 758 407 758 465.5 779.5 c 128,-1,56
 524 801 524 801 586 801 c 0,57,58
 618 801 618 801 649 793 c 128,-1,59
 680 785 680 785 715 774 c 2,60,-1
 749 762 l 2,61,62
 773 751 773 751 794 747 c 128,-1,63
 815 743 815 743 841 743 c 2,64,-1
 976 743 l 1,65,-1
 962 676 l 1,66,-1
 817 676 l 1,0,1
255 -2 m 1,67,68
 222 -37 222 -37 200.5 -59 c 128,-1,69
 179 -81 179 -81 166 -96.5 c 128,-1,70
 153 -112 153 -112 146.5 -125 c 128,-1,71
 140 -138 140 -138 137 -154 c 0,72,73
 131 -182 131 -182 144 -205.5 c 128,-1,74
 157 -229 157 -229 187 -245.5 c 128,-1,75
 217 -262 217 -262 262 -271.5 c 128,-1,76
 307 -281 307 -281 366 -281 c 0,77,78
 439 -281 439 -281 502 -269 c 128,-1,79
 565 -257 565 -257 613 -235 c 128,-1,80
 661 -213 661 -213 691.5 -181.5 c 128,-1,81
 722 -150 722 -150 730 -111 c 0,82,83
 735 -87 735 -87 727 -71 c 128,-1,84
 719 -55 719 -55 695.5 -45 c 128,-1,85
 672 -35 672 -35 632 -31 c 128,-1,86
 592 -27 592 -27 533 -27 c 0,87,88
 501 -27 501 -27 461 -25.5 c 128,-1,89
 421 -24 421 -24 382 -20.5 c 128,-1,90
 343 -17 343 -17 309 -12.5 c 128,-1,91
 275 -8 275 -8 255 -2 c 1,67,68
388 584 m 1,92,93
 374 521 374 521 376.5 469 c 128,-1,94
 379 417 379 417 394.5 380.5 c 128,-1,95
 410 344 410 344 438.5 323.5 c 128,-1,96
 467 303 467 303 506 303 c 0,97,98
 566 303 566 303 610 345 c 128,-1,99
 654 387 654 387 671 463 c 0,100,101
 682 512 682 512 679.5 568.5 c 128,-1,102
 677 625 677 625 662 670 c 0,103,104
 651 708 651 708 622.5 730 c 128,-1,105
 594 752 594 752 552 752 c 0,106,107
 492 752 492 752 448.5 709 c 128,-1,108
 405 666 405 666 388 588 c 1,109,-1
 388 584 l 1,92,93
EndSplineSet
EndChar

StartChar: h
Encoding: 104 104 66
Width: 870
Flags: W
LayerCount: 2
Fore
SplineSet
311 178 m 1,0,1
 302 133 302 133 300 105 c 128,-1,2
 298 77 298 77 307 61 c 128,-1,3
 316 45 316 45 337.5 38 c 128,-1,4
 359 31 359 31 396 27 c 1,5,-1
 391 0 l 1,6,-1
 14 0 l 1,7,-1
 19 27 l 1,8,9
 58 31 58 31 81.5 37.5 c 128,-1,10
 105 44 105 44 120 60 c 128,-1,11
 135 76 135 76 144.5 104 c 128,-1,12
 154 132 154 132 164 178 c 2,13,-1
 338 997 l 2,14,15
 344 1025 344 1025 344.5 1042.5 c 128,-1,16
 345 1060 345 1060 337.5 1069.5 c 128,-1,17
 330 1079 330 1079 313.5 1082 c 128,-1,18
 297 1085 297 1085 269 1085 c 2,19,-1
 246 1085 l 1,20,-1
 252 1112 l 1,21,-1
 305 1126 l 2,22,23
 342 1137 342 1137 371.5 1145.5 c 128,-1,24
 401 1154 401 1154 425.5 1161 c 128,-1,25
 450 1168 450 1168 471.5 1175 c 128,-1,26
 493 1182 493 1182 516 1190 c 1,27,-1
 525 1184 l 1,28,-1
 412 653 l 1,29,30
 450 693 450 693 485.5 721 c 128,-1,31
 521 749 521 749 556 767 c 128,-1,32
 591 785 591 785 626.5 793 c 128,-1,33
 662 801 662 801 700 801 c 0,34,35
 912 801 912 801 854 524 c 2,36,-1
 780 178 l 2,37,38
 771 133 771 133 768 106.5 c 128,-1,39
 765 80 765 80 772.5 64 c 128,-1,40
 780 48 780 48 799 40.5 c 128,-1,41
 818 33 818 33 853 27 c 1,42,-1
 848 0 l 1,43,-1
 479 0 l 1,44,-1
 484 27 l 1,45,46
 523 31 523 31 547.5 38 c 128,-1,47
 572 45 572 45 588.5 61 c 128,-1,48
 605 77 605 77 615.5 105 c 128,-1,49
 626 133 626 133 635 178 c 2,50,-1
 708 522 l 2,51,52
 749 707 749 707 617 707 c 0,53,54
 591 707 591 707 566 701 c 128,-1,55
 541 695 541 695 515.5 682 c 128,-1,56
 490 669 490 669 462 648 c 128,-1,57
 434 627 434 627 401 598 c 1,58,-1
 311 178 l 1,59,-1
 311 178 l 1,0,1
EndSplineSet
EndChar

StartChar: i
Encoding: 105 105 67
Width: 483
Flags: W
LayerCount: 2
Fore
SplineSet
348 178 m 2,0,1
 338 131 338 131 336.5 102.5 c 128,-1,2
 335 74 335 74 345 58 c 128,-1,3
 355 42 355 42 379 35.5 c 128,-1,4
 403 29 403 29 445 27 c 1,5,-1
 440 0 l 1,6,-1
 29 0 l 1,7,-1
 34 27 l 1,8,9
 80 29 80 29 108.5 35.5 c 128,-1,10
 137 42 137 42 155 58 c 128,-1,11
 173 74 173 74 183 102.5 c 128,-1,12
 193 131 193 131 203 178 c 2,13,-1
 289 582 l 2,14,15
 301 639 301 639 293 662.5 c 128,-1,16
 285 686 285 686 254 686 c 0,17,18
 241 684 241 684 225.5 683 c 128,-1,19
 210 682 210 682 191 682 c 2,20,-1
 179 680 l 1,21,-1
 184 705 l 1,22,-1
 473 801 l 1,23,-1
 480 797 l 1,24,-1
 348 178 l 2,0,1
475 1190 m 0,25,26
 512 1190 512 1190 533 1163.5 c 128,-1,27
 554 1137 554 1137 546 1100 c 0,28,29
 542 1081 542 1081 531.5 1065 c 128,-1,30
 521 1049 521 1049 506.5 1037 c 128,-1,31
 492 1025 492 1025 474 1018.5 c 128,-1,32
 456 1012 456 1012 438 1012 c 0,33,34
 401 1012 401 1012 380.5 1037.5 c 128,-1,35
 360 1063 360 1063 368 1100 c 0,36,37
 372 1118 372 1118 382.5 1134.5 c 128,-1,38
 393 1151 393 1151 408 1163.5 c 128,-1,39
 423 1176 423 1176 440 1183 c 128,-1,40
 457 1190 457 1190 475 1190 c 0,25,26
EndSplineSet
EndChar

StartChar: j
Encoding: 106 106 68
Width: 483
Flags: W
LayerCount: 2
Fore
SplineSet
336 0 m 2,0,1
 255 -379 255 -379 -37 -379 c 0,2,3
 -72 -379 -72 -379 -101 -372 c 128,-1,4
 -130 -365 -130 -365 -149.5 -352.5 c 128,-1,5
 -169 -340 -169 -340 -178.5 -323 c 128,-1,6
 -188 -306 -188 -306 -183 -285 c 0,7,8
 -177 -256 -177 -256 -151 -235.5 c 128,-1,9
 -125 -215 -125 -215 -94 -215 c 0,10,11
 -74 -215 -74 -215 -58.5 -228 c 128,-1,12
 -43 -241 -43 -241 -24 -270 c 0,13,14
 -7 -299 -7 -299 5.5 -309 c 128,-1,15
 18 -319 18 -319 38 -319 c 0,16,17
 55 -319 55 -319 74.5 -310 c 128,-1,18
 94 -301 94 -301 104 -289 c 0,19,20
 114 -276 114 -276 122 -260.5 c 128,-1,21
 130 -245 130 -245 137.5 -221 c 128,-1,22
 145 -197 145 -197 153.5 -163 c 128,-1,23
 162 -129 162 -129 173 -78 c 2,24,-1
 313 582 l 2,25,26
 325 639 325 639 317 662.5 c 128,-1,27
 309 686 309 686 278 686 c 0,28,29
 266 686 266 686 247 684 c 128,-1,30
 228 682 228 682 210 682 c 2,31,-1
 199 680 l 1,32,-1
 205 707 l 1,33,34
 246 719 246 719 281 729.5 c 128,-1,35
 316 740 316 740 350 751 c 128,-1,36
 384 762 384 762 419.5 774 c 128,-1,37
 455 786 455 786 498 801 c 1,38,-1
 505 797 l 1,39,-1
 336 0 l 2,0,1
500 1190 m 0,40,41
 537 1190 537 1190 558 1163.5 c 128,-1,42
 579 1137 579 1137 571 1100 c 0,43,44
 567 1082 567 1082 556.5 1066 c 128,-1,45
 546 1050 546 1050 531.5 1038 c 128,-1,46
 517 1026 517 1026 499 1019 c 128,-1,47
 481 1012 481 1012 463 1012 c 0,48,49
 426 1012 426 1012 405.5 1037.5 c 128,-1,50
 385 1063 385 1063 393 1100 c 0,51,52
 397 1118 397 1118 407.5 1134.5 c 128,-1,53
 418 1151 418 1151 433 1163.5 c 128,-1,54
 448 1176 448 1176 465 1183 c 128,-1,55
 482 1190 482 1190 500 1190 c 0,40,41
EndSplineSet
EndChar

StartChar: k
Encoding: 107 107 69
Width: 870
Flags: W
LayerCount: 2
Fore
SplineSet
305 1126 m 2,0,1
 344 1135 344 1135 375 1143 c 128,-1,2
 406 1151 406 1151 432.5 1159 c 128,-1,3
 459 1167 459 1167 483.5 1174.5 c 128,-1,4
 508 1182 508 1182 535 1190 c 1,5,-1
 541 1186 l 1,6,-1
 385 455 l 1,7,-1
 669 666 l 2,8,9
 692 683 692 683 705.5 698.5 c 128,-1,10
 719 714 719 714 721 725 c 0,11,12
 725 745 725 745 708 751.5 c 128,-1,13
 691 758 691 758 640 760 c 1,14,-1
 645 784 l 1,15,-1
 1002 784 l 1,16,-1
 997 758 l 1,17,-1
 982 758 l 2,18,19
 959 758 959 758 938.5 755.5 c 128,-1,20
 918 753 918 753 899 748 c 0,21,22
 855 735 855 735 771 680 c 128,-1,23
 687 625 687 625 575 539 c 2,24,-1
 514 492 l 1,25,-1
 708 154 l 2,26,27
 728 121 728 121 747.5 98 c 128,-1,28
 767 75 767 75 788 60 c 128,-1,29
 809 45 809 45 832.5 37 c 128,-1,30
 856 29 856 29 884 27 c 1,31,-1
 879 0 l 1,32,-1
 500 0 l 1,33,-1
 505 27 l 1,34,-1
 537 27 l 2,35,36
 554 27 554 27 565.5 33.5 c 128,-1,37
 577 40 577 40 579 51 c 0,38,39
 581 59 581 59 579 67.5 c 128,-1,40
 577 76 577 76 569 88 c 0,41,42
 565 93 565 93 563.5 97 c 128,-1,43
 562 101 562 101 561 104 c 2,44,-1
 381 436 l 1,45,-1
 313 117 l 2,46,47
 303 69 303 69 320 50 c 128,-1,48
 337 31 337 31 391 29 c 2,49,-1
 425 27 l 1,50,-1
 420 0 l 1,51,-1
 12 0 l 1,52,-1
 17 27 l 1,53,54
 66 35 66 35 93.5 41.5 c 128,-1,55
 121 48 121 48 136 59 c 128,-1,56
 151 70 151 70 158 89 c 128,-1,57
 165 108 165 108 173 143 c 2,58,-1
 351 981 l 2,59,60
 358 1013 358 1013 358.5 1033.5 c 128,-1,61
 359 1054 359 1054 353 1066 c 128,-1,62
 347 1078 347 1078 333.5 1082.5 c 128,-1,63
 320 1087 320 1087 299 1087 c 0,64,65
 285 1087 285 1087 272 1086 c 128,-1,66
 259 1085 259 1085 242 1085 c 1,67,-1
 248 1112 l 1,68,-1
 305 1126 l 2,0,1
EndSplineSet
EndChar

StartChar: l
Encoding: 108 108 70
Width: 483
Flags: W
LayerCount: 2
Fore
SplineSet
269 1112 m 1,0,1
 316 1124 316 1124 354.5 1133.5 c 128,-1,2
 393 1143 393 1143 427 1151 c 128,-1,3
 461 1159 461 1159 493 1168.5 c 128,-1,4
 525 1178 525 1178 561 1190 c 1,5,-1
 569 1186 l 1,6,-1
 347 145 l 2,7,8
 340 110 340 110 340.5 88.5 c 128,-1,9
 341 67 341 67 352 54 c 128,-1,10
 363 41 363 41 387 35 c 128,-1,11
 411 29 411 29 451 27 c 1,12,-1
 446 0 l 1,13,-1
 37 0 l 1,14,-1
 42 27 l 1,15,16
 83 29 83 29 110.5 36 c 128,-1,17
 138 43 138 43 156 57.5 c 128,-1,18
 174 72 174 72 184 95 c 128,-1,19
 194 118 194 118 202 152 c 2,20,-1
 378 981 l 2,21,22
 391 1042 391 1042 381 1064.5 c 128,-1,23
 371 1087 371 1087 329 1087 c 0,24,25
 317 1087 317 1087 302 1086 c 128,-1,26
 287 1085 287 1085 273 1085 c 2,27,-1
 263 1085 l 1,28,-1
 269 1112 l 1,29,-1
 269 1112 l 1,0,1
EndSplineSet
EndChar

StartChar: m
Encoding: 109 109 71
Width: 1354
Flags: W
LayerCount: 2
Fore
SplineSet
186 723 m 1,0,1
 223 730 223 730 255.5 738.5 c 128,-1,2
 288 747 288 747 318.5 757 c 128,-1,3
 349 767 349 767 380 778 c 128,-1,4
 411 789 411 789 446 801 c 1,5,-1
 458 797 l 1,6,-1
 430 666 l 1,7,8
 493 707 493 707 537 733.5 c 128,-1,9
 581 760 581 760 614 775 c 128,-1,10
 647 790 647 790 673 795.5 c 128,-1,11
 699 801 699 801 727 801 c 0,12,13
 801 801 801 801 838 765 c 128,-1,14
 875 729 875 729 881 653 c 1,15,16
 968 732 968 732 1044.5 766.5 c 128,-1,17
 1121 801 1121 801 1196 801 c 0,18,19
 1399 801 1399 801 1333 492 c 2,20,-1
 1257 133 l 2,21,22
 1245 79 1245 79 1259 56 c 128,-1,23
 1273 33 1273 33 1311 31 c 2,24,-1
 1355 27 l 1,25,-1
 1350 0 l 1,26,-1
 969 0 l 1,27,-1
 974 27 l 1,28,29
 1011 31 1011 31 1035 37 c 128,-1,30
 1059 43 1059 43 1074 56 c 128,-1,31
 1089 69 1089 69 1098 92 c 128,-1,32
 1107 115 1107 115 1115 152 c 2,33,-1
 1193 518 l 2,34,35
 1204 571 1204 571 1205 607.5 c 128,-1,36
 1206 644 1206 644 1195.5 667 c 128,-1,37
 1185 690 1185 690 1162 700.5 c 128,-1,38
 1139 711 1139 711 1103 711 c 0,39,40
 1043 711 1043 711 992 686 c 128,-1,41
 941 661 941 661 890 604 c 1,42,-1
 797 166 l 2,43,44
 788 126 788 126 788 99 c 128,-1,45
 788 72 788 72 798.5 56 c 128,-1,46
 809 40 809 40 832 33.5 c 128,-1,47
 855 27 855 27 892 27 c 1,48,-1
 887 0 l 1,49,-1
 498 0 l 1,50,-1
 503 27 l 1,51,52
 540 29 540 29 564.5 35 c 128,-1,53
 589 41 589 41 605 54.5 c 128,-1,54
 621 68 621 68 630 91 c 128,-1,55
 639 114 639 114 647 150 c 2,56,-1
 728 528 l 2,57,58
 766 711 766 711 653 711 c 0,59,60
 603 711 603 711 550.5 690.5 c 128,-1,61
 498 670 498 670 458 641 c 0,62,63
 445 633 445 633 435.5 621.5 c 128,-1,64
 426 610 426 610 426 608 c 2,65,-1
 321 117 l 2,66,67
 316 91 316 91 317.5 74 c 128,-1,68
 319 57 319 57 330 46.5 c 128,-1,69
 341 36 341 36 362.5 31.5 c 128,-1,70
 384 27 384 27 419 27 c 1,71,-1
 414 0 l 1,72,-1
 29 0 l 1,73,-1
 34 27 l 1,74,75
 70 27 70 27 95 33 c 128,-1,76
 120 39 120 39 136.5 53 c 128,-1,77
 153 67 153 67 163.5 90 c 128,-1,78
 174 113 174 113 181 147 c 2,79,-1
 274 588 l 2,80,81
 288 651 288 651 279.5 675.5 c 128,-1,82
 271 700 271 700 236 700 c 0,83,84
 222 700 222 700 209.5 698.5 c 128,-1,85
 197 697 197 697 180 692 c 1,86,-1
 186 723 l 1,87,-1
 186 723 l 1,0,1
EndSplineSet
EndChar

StartChar: n
Encoding: 110 110 72
Width: 870
Flags: W
LayerCount: 2
Fore
SplineSet
182 723 m 1,0,1
 220 734 220 734 252 743 c 128,-1,2
 284 752 284 752 313.5 760.5 c 128,-1,3
 343 769 343 769 373 779 c 128,-1,4
 403 789 403 789 438 801 c 1,5,-1
 450 797 l 1,6,-1
 421 659 l 1,7,8
 473 701 473 701 512.5 728.5 c 128,-1,9
 552 756 552 756 584.5 772 c 128,-1,10
 617 788 617 788 644.5 794.5 c 128,-1,11
 672 801 672 801 702 801 c 0,12,13
 802 801 802 801 840 733.5 c 128,-1,14
 878 666 878 666 851 541 c 2,15,-1
 766 141 l 2,16,17
 760 109 760 109 760 88.5 c 128,-1,18
 760 68 760 68 769.5 55 c 128,-1,19
 779 42 779 42 798 35.5 c 128,-1,20
 817 29 817 29 849 27 c 1,21,-1
 844 0 l 1,22,-1
 481 0 l 1,23,-1
 486 27 l 1,24,25
 520 29 520 29 543 36.5 c 128,-1,26
 566 44 566 44 582 60.5 c 128,-1,27
 598 77 598 77 608.5 104 c 128,-1,28
 619 131 619 131 628 172 c 2,29,-1
 706 537 l 2,30,31
 724 625 724 625 700.5 665 c 128,-1,32
 677 705 677 705 614 705 c 0,33,34
 592 705 592 705 572.5 700.5 c 128,-1,35
 553 696 553 696 530.5 684.5 c 128,-1,36
 508 673 508 673 480.5 654 c 128,-1,37
 453 635 453 635 415 606 c 1,38,-1
 311 117 l 2,39,40
 306 94 306 94 308 77.5 c 128,-1,41
 310 61 310 61 320.5 50.5 c 128,-1,42
 331 40 331 40 351.5 34.5 c 128,-1,43
 372 29 372 29 404 27 c 1,44,-1
 399 0 l 1,45,-1
 31 0 l 1,46,-1
 36 27 l 1,47,48
 70 29 70 29 92.5 36 c 128,-1,49
 115 43 115 43 130 57.5 c 128,-1,50
 145 72 145 72 154.5 96 c 128,-1,51
 164 120 164 120 172 156 c 2,52,-1
 263 588 l 2,53,54
 277 651 277 651 268 675.5 c 128,-1,55
 259 700 259 700 224 700 c 0,56,57
 210 700 210 700 197 698.5 c 128,-1,58
 184 697 184 697 176 692 c 1,59,-1
 182 723 l 1,60,-1
 182 723 l 1,0,1
EndSplineSet
EndChar

StartChar: o
Encoding: 111 111 73
Width: 870
Flags: W
LayerCount: 2
Fore
SplineSet
604 801 m 256,0,1
 688 801 688 801 752 771 c 128,-1,2
 816 741 816 741 856 688.5 c 128,-1,3
 896 636 896 636 909.5 564 c 128,-1,4
 923 492 923 492 905 408 c 0,5,6
 886 317 886 317 840 239.5 c 128,-1,7
 794 162 794 162 729.5 105 c 128,-1,8
 665 48 665 48 587.5 16 c 128,-1,9
 510 -16 510 -16 428 -16 c 0,10,11
 345 -16 345 -16 281.5 15 c 128,-1,12
 218 46 218 46 178.5 100.5 c 128,-1,13
 139 155 139 155 126 230 c 128,-1,14
 113 305 113 305 132 393 c 0,15,16
 151 483 151 483 196 558 c 128,-1,17
 241 633 241 633 303.5 687 c 128,-1,18
 366 741 366 741 443 771 c 128,-1,19
 520 801 520 801 604 801 c 256,0,1
571 752 m 0,20,21
 525 752 525 752 483 732.5 c 128,-1,22
 441 713 441 713 406.5 677 c 128,-1,23
 372 641 372 641 346.5 590.5 c 128,-1,24
 321 540 321 540 308 479 c 0,25,26
 291 398 291 398 289 317.5 c 128,-1,27
 287 237 287 237 304 173.5 c 128,-1,28
 321 110 321 110 359 70.5 c 128,-1,29
 397 31 397 31 459 31 c 0,30,31
 508 31 508 31 551.5 52.5 c 128,-1,32
 595 74 595 74 630.5 115 c 128,-1,33
 666 156 666 156 692.5 214 c 128,-1,34
 719 272 719 272 735 346 c 0,35,36
 754 436 754 436 751 510.5 c 128,-1,37
 748 585 748 585 726.5 639 c 128,-1,38
 705 693 705 693 665 722.5 c 128,-1,39
 625 752 625 752 571 752 c 0,20,21
EndSplineSet
EndChar

StartChar: p
Encoding: 112 112 74
Width: 870
Flags: W
LayerCount: 2
Fore
SplineSet
165 713 m 1,0,1
 204 723 204 723 237 732.5 c 128,-1,2
 270 742 270 742 301.5 752.5 c 128,-1,3
 333 763 333 763 365 774.5 c 128,-1,4
 397 786 397 786 436 801 c 1,5,-1
 445 797 l 1,6,-1
 417 664 l 1,7,8
 492 736 492 736 557.5 768.5 c 128,-1,9
 623 801 623 801 698 801 c 0,10,11
 761 801 761 801 808.5 773.5 c 128,-1,12
 856 746 856 746 884.5 697 c 128,-1,13
 913 648 913 648 920 579.5 c 128,-1,14
 927 511 927 511 910 430 c 0,15,16
 890 335 890 335 844 253.5 c 128,-1,17
 798 172 798 172 735.5 112 c 128,-1,18
 673 52 673 52 599 18 c 128,-1,19
 525 -16 525 -16 449 -16 c 0,20,21
 421 -16 421 -16 400 -12.5 c 128,-1,22
 379 -9 379 -9 360.5 -1 c 128,-1,23
 342 7 342 7 324.5 21.5 c 128,-1,24
 307 36 307 36 288 57 c 1,25,-1
 230 -215 l 2,26,27
 221 -256 221 -256 221.5 -281.5 c 128,-1,28
 222 -307 222 -307 236 -321.5 c 128,-1,29
 250 -336 250 -336 279 -341 c 128,-1,30
 308 -346 308 -346 356 -346 c 1,31,-1
 349 -377 l 1,32,-1
 -72 -377 l 1,33,-1
 -65 -348 l 1,34,35
 -26 -344 -26 -344 -1 -337.5 c 128,-1,36
 24 -331 24 -331 40 -318 c 128,-1,37
 56 -305 56 -305 65.5 -283.5 c 128,-1,38
 75 -262 75 -262 82 -227 c 2,39,-1
 255 586 l 2,40,41
 262 622 262 622 262.5 642 c 128,-1,42
 263 662 263 662 254.5 672 c 128,-1,43
 246 682 246 682 226.5 684 c 128,-1,44
 207 686 207 686 176 686 c 0,45,46
 171 686 171 686 167.5 686 c 128,-1,47
 164 686 164 686 159 684 c 1,48,-1
 165 713 l 1,0,1
308 154 m 2,49,50
 303 133 303 133 315.5 112.5 c 128,-1,51
 328 92 328 92 351 75.5 c 128,-1,52
 374 59 374 59 404.5 49 c 128,-1,53
 435 39 435 39 467 39 c 0,54,55
 514 39 514 39 557.5 62.5 c 128,-1,56
 601 86 601 86 637.5 128.5 c 128,-1,57
 674 171 674 171 701.5 230.5 c 128,-1,58
 729 290 729 290 744 362 c 0,59,60
 760 437 760 437 758 499 c 128,-1,61
 756 561 756 561 737.5 604.5 c 128,-1,62
 719 648 719 648 684.5 672 c 128,-1,63
 650 696 650 696 602 696 c 0,64,65
 572 696 572 696 538 685.5 c 128,-1,66
 504 675 504 675 474.5 658.5 c 128,-1,67
 445 642 445 642 424 621.5 c 128,-1,68
 403 601 403 601 399 582 c 2,69,-1
 308 154 l 2,49,50
EndSplineSet
EndChar

StartChar: q
Encoding: 113 113 75
Width: 870
Flags: W
LayerCount: 2
Fore
SplineSet
908 797 m 1,0,-1
 686 -246 l 2,1,2
 680 -273 680 -273 680.5 -290 c 128,-1,3
 681 -307 681 -307 690.5 -319 c 128,-1,4
 700 -331 700 -331 720 -339 c 128,-1,5
 740 -347 740 -347 774 -354 c 1,6,-1
 769 -377 l 1,7,-1
 357 -377 l 1,8,-1
 364 -348 l 1,9,10
 411 -344 411 -344 442.5 -337 c 128,-1,11
 474 -330 474 -330 494.5 -316 c 128,-1,12
 515 -302 515 -302 527.5 -277.5 c 128,-1,13
 540 -253 540 -253 548 -215 c 2,14,-1
 617 111 l 1,15,16
 475 -16 475 -16 315 -16 c 0,17,18
 254 -16 254 -16 209 11.5 c 128,-1,19
 164 39 164 39 138 88 c 128,-1,20
 112 137 112 137 106.5 205.5 c 128,-1,21
 101 274 101 274 118 356 c 0,22,23
 138 450 138 450 185 532 c 128,-1,24
 232 614 232 614 296 674 c 128,-1,25
 360 734 360 734 437.5 768.5 c 128,-1,26
 515 803 515 803 596 803 c 0,27,28
 623 803 623 803 646 799.5 c 128,-1,29
 669 796 669 796 691 788.5 c 128,-1,30
 713 781 713 781 735.5 769 c 128,-1,31
 758 757 758 757 784 739 c 1,32,-1
 890 797 l 1,33,-1
 908 797 l 1,0,-1
717 580 m 2,34,35
 753 754 753 754 592 754 c 0,36,37
 537 754 537 754 487 730.5 c 128,-1,38
 437 707 437 707 396.5 663.5 c 128,-1,39
 356 620 356 620 325.5 558.5 c 128,-1,40
 295 497 295 497 279 420 c 0,41,42
 263 344 263 344 266 282.5 c 128,-1,43
 269 221 269 221 290 178 c 128,-1,44
 311 135 311 135 348.5 111.5 c 128,-1,45
 386 88 386 88 438 88 c 0,46,47
 480 88 480 88 521.5 103.5 c 128,-1,48
 563 119 563 119 599 143 c 0,49,50
 614 154 614 154 623.5 171.5 c 128,-1,51
 633 189 633 189 640 221 c 2,52,-1
 717 580 l 2,34,35
EndSplineSet
EndChar

StartChar: r
Encoding: 114 114 76
Width: 580
Flags: W
LayerCount: 2
Fore
SplineSet
162 707 m 1,0,1
 203 719 203 719 237.5 729.5 c 128,-1,2
 272 740 272 740 304 751 c 128,-1,3
 336 762 336 762 368.5 774 c 128,-1,4
 401 786 401 786 438 801 c 1,5,-1
 448 797 l 1,6,-1
 414 637 l 1,7,8
 457 682 457 682 490 713.5 c 128,-1,9
 523 745 523 745 551 764.5 c 128,-1,10
 579 784 579 784 604.5 792.5 c 128,-1,11
 630 801 630 801 657 801 c 0,12,13
 702 801 702 801 722.5 776.5 c 128,-1,14
 743 752 743 752 734 709 c 0,15,16
 726 671 726 671 703 651 c 128,-1,17
 680 631 680 631 648 631 c 0,18,19
 631 631 631 631 616 638.5 c 128,-1,20
 601 646 601 646 585 666 c 0,21,22
 574 678 574 678 566 684 c 128,-1,23
 558 690 558 690 545 690 c 0,24,25
 529 690 529 690 505 675.5 c 128,-1,26
 481 661 481 661 458 640 c 128,-1,27
 435 619 435 619 417 594.5 c 128,-1,28
 399 570 399 570 395 549 c 2,29,-1
 312 156 l 2,30,31
 304 119 304 119 306 95 c 128,-1,32
 308 71 308 71 321.5 56.5 c 128,-1,33
 335 42 335 42 362 35.5 c 128,-1,34
 389 29 389 29 431 27 c 1,35,-1
 426 0 l 1,36,-1
 8 0 l 1,37,-1
 13 27 l 1,38,39
 56 35 56 35 82.5 42 c 128,-1,40
 109 49 109 49 124.5 61 c 128,-1,41
 140 73 140 73 148 92.5 c 128,-1,42
 156 112 156 112 163 145 c 2,43,-1
 256 582 l 2,44,45
 268 639 268 639 259 662.5 c 128,-1,46
 250 686 250 686 219 686 c 0,47,48
 202 686 202 686 188.5 684 c 128,-1,49
 175 682 175 682 156 680 c 1,50,-1
 162 707 l 1,51,-1
 162 707 l 1,0,1
EndSplineSet
EndChar

StartChar: s
Encoding: 115 115 77
Width: 678
Flags: W
LayerCount: 2
Fore
SplineSet
638 547 m 1,0,1
 633 662 633 662 599 712 c 128,-1,2
 565 762 565 762 493 762 c 0,3,4
 462 762 462 762 435.5 753 c 128,-1,5
 409 744 409 744 388 728 c 128,-1,6
 367 712 367 712 353 690 c 128,-1,7
 339 668 339 668 333 643 c 0,8,9
 325 606 325 606 337.5 575 c 128,-1,10
 350 544 350 544 381 524 c 2,11,-1
 548 412 l 2,12,13
 614 367 614 367 638.5 318.5 c 128,-1,14
 663 270 663 270 649 207 c 0,15,16
 639 161 639 161 611 120.5 c 128,-1,17
 583 80 583 80 543.5 49.5 c 128,-1,18
 504 19 504 19 455.5 1.5 c 128,-1,19
 407 -16 407 -16 356 -16 c 0,20,21
 337 -16 337 -16 306.5 -11.5 c 128,-1,22
 276 -7 276 -7 245.5 -1 c 128,-1,23
 215 5 215 5 190 9.5 c 128,-1,24
 165 14 165 14 156 14 c 0,25,26
 139 14 139 14 131.5 10 c 128,-1,27
 124 6 124 6 111 -6 c 1,28,-1
 88 -6 l 1,29,-1
 146 264 l 1,30,-1
 175 264 l 1,31,32
 175 227 175 227 177 200 c 128,-1,33
 179 173 179 173 182.5 152 c 128,-1,34
 186 131 186 131 192.5 114 c 128,-1,35
 199 97 199 97 210 82 c 0,36,37
 228 53 228 53 263.5 36.5 c 128,-1,38
 299 20 299 20 344 20 c 0,39,40
 410 20 410 20 455.5 54 c 128,-1,41
 501 88 501 88 513 145 c 0,42,43
 531 225 531 225 451 276 c 2,44,-1
 363 334 l 2,45,46
 313 365 313 365 280 394 c 128,-1,47
 247 423 247 423 229.5 453.5 c 128,-1,48
 212 484 212 484 208 516.5 c 128,-1,49
 204 549 204 549 212 586 c 0,50,51
 222 633 222 633 248 672 c 128,-1,52
 274 711 274 711 311.5 739.5 c 128,-1,53
 349 768 349 768 396 783.5 c 128,-1,54
 443 799 443 799 495 799 c 0,55,56
 527 799 527 799 556 794 c 128,-1,57
 585 789 585 789 611 778 c 0,58,59
 636 766 636 766 654 766 c 0,60,61
 661 766 661 766 665 767 c 128,-1,62
 669 768 669 768 683 780 c 2,63,-1
 688 784 l 1,64,-1
 707 784 l 1,65,-1
 657 547 l 1,66,-1
 638 547 l 1,67,-1
 638 547 l 1,0,1
EndSplineSet
EndChar

StartChar: t
Encoding: 116 116 78
Width: 483
Flags: W
LayerCount: 2
Fore
SplineSet
422 727 m 1,0,-1
 316 229 l 2,1,2
 299 148 299 148 311.5 111 c 128,-1,3
 324 74 324 74 373 74 c 0,4,5
 402 74 402 74 430 87.5 c 128,-1,6
 458 101 458 101 491 133 c 1,7,-1
 509 115 l 1,8,9
 451 46 451 46 395 15 c 128,-1,10
 339 -16 339 -16 272 -16 c 0,11,12
 120 -16 120 -16 166 205 c 2,13,-1
 277 727 l 1,14,-1
 185 727 l 2,15,16
 177 730 177 730 180 739 c 0,17,18
 183 757 183 757 215 772 c 0,19,20
 227 776 227 776 248.5 792 c 128,-1,21
 270 808 270 808 298.5 833.5 c 128,-1,22
 327 859 327 859 359 891 c 128,-1,23
 391 923 391 923 424 958 c 0,24,25
 438 972 438 972 447 983.5 c 128,-1,26
 456 995 456 995 470 1008 c 1,27,28
 478 1008 478 1008 479 1003.5 c 128,-1,29
 480 999 480 999 477 985 c 2,30,-1
 434 784 l 1,31,-1
 610 784 l 1,32,-1
 598 727 l 1,33,-1
 422 727 l 1,0,-1
EndSplineSet
EndChar

StartChar: u
Encoding: 117 117 79
Width: 870
Flags: W
LayerCount: 2
Fore
SplineSet
847 63 m 1,0,1
 811 52 811 52 780.5 43.5 c 128,-1,2
 750 35 750 35 720 26 c 128,-1,3
 690 17 690 17 659 7.5 c 128,-1,4
 628 -2 628 -2 593 -14 c 1,5,-1
 585 -12 l 1,6,-1
 616 133 l 1,7,-1
 524 57 l 2,8,9
 479 20 479 20 429 2 c 128,-1,10
 379 -16 379 -16 330 -16 c 0,11,12
 283 -16 283 -16 247.5 -0.5 c 128,-1,13
 212 15 212 15 190.5 44.5 c 128,-1,14
 169 74 169 74 162.5 115.5 c 128,-1,15
 156 157 156 157 167 209 c 2,16,-1
 260 647 l 2,17,18
 266 677 266 677 265.5 697.5 c 128,-1,19
 265 718 265 718 255 731 c 128,-1,20
 245 744 245 744 225.5 751 c 128,-1,21
 206 758 206 758 175 760 c 1,22,-1
 180 784 l 1,23,-1
 434 784 l 1,24,-1
 313 215 l 2,25,26
 307 187 307 187 312.5 163 c 128,-1,27
 318 139 318 139 331.5 121.5 c 128,-1,28
 345 104 345 104 365.5 94 c 128,-1,29
 386 84 386 84 410 84 c 0,30,31
 491 84 491 84 577 143 c 0,32,33
 598 157 598 157 610 177.5 c 128,-1,34
 622 198 622 198 630 236 c 2,35,-1
 716 643 l 2,36,37
 723 677 723 677 722 697.5 c 128,-1,38
 721 718 721 718 709.5 730 c 128,-1,39
 698 742 698 742 674 747 c 128,-1,40
 650 752 650 752 611 754 c 1,41,-1
 617 784 l 1,42,-1
 891 784 l 1,43,-1
 764 186 l 2,44,45
 758 156 758 156 758 136.5 c 128,-1,46
 758 117 758 117 767 106 c 128,-1,47
 776 95 776 95 794.5 90.5 c 128,-1,48
 813 86 813 86 843 86 c 2,49,-1
 852 86 l 1,50,-1
 847 63 l 1,51,-1
 847 63 l 1,0,1
EndSplineSet
EndChar

StartChar: v
Encoding: 118 118 80
Width: 870
Flags: W
LayerCount: 2
Fore
SplineSet
990 758 m 1,0,1
 971 756 971 756 957 751 c 128,-1,2
 943 746 943 746 928 731.5 c 128,-1,3
 913 717 913 717 894.5 691 c 128,-1,4
 876 665 876 665 848 621 c 2,5,-1
 509 63 l 2,6,7
 478 13 478 13 462 -6 c 128,-1,8
 446 -25 446 -25 438 -25 c 0,9,10
 427 -25 427 -25 422 -3 c 128,-1,11
 417 19 417 19 411 57 c 2,12,-1
 308 557 l 2,13,14
 294 624 294 624 283 663 c 128,-1,15
 272 702 272 702 260 722.5 c 128,-1,16
 248 743 248 743 232.5 749.5 c 128,-1,17
 217 756 217 756 194 758 c 1,18,-1
 199 784 l 1,19,-1
 541 784 l 1,20,-1
 536 758 l 1,21,22
 489 753 489 753 469.5 742.5 c 128,-1,23
 450 732 450 732 445 709 c 0,24,25
 443 696 443 696 442 679 c 128,-1,26
 441 662 441 662 445 643 c 2,27,-1
 529 199 l 1,28,-1
 796 649 l 2,29,30
 804 663 804 663 810 675.5 c 128,-1,31
 816 688 816 688 818 700 c 0,32,33
 828 749 828 749 749 758 c 1,34,-1
 754 784 l 1,35,-1
 995 784 l 1,36,-1
 990 758 l 1,37,-1
 990 758 l 1,0,1
EndSplineSet
EndChar

StartChar: w
Encoding: 119 119 81
Width: 1257
Flags: W
LayerCount: 2
Fore
SplineSet
1369 758 m 1,0,1
 1353 752 1353 752 1343.5 746.5 c 128,-1,2
 1334 741 1334 741 1325 732 c 128,-1,3
 1316 723 1316 723 1306 707 c 128,-1,4
 1296 691 1296 691 1278 664 c 2,5,-1
 909 61 l 2,6,7
 892 34 892 34 881.5 17 c 128,-1,8
 871 0 871 0 863.5 -9.5 c 128,-1,9
 856 -19 856 -19 851 -22 c 128,-1,10
 846 -25 846 -25 842 -25 c 0,11,12
 837 -25 837 -25 833.5 -22 c 128,-1,13
 830 -19 830 -19 827.5 -11 c 128,-1,14
 825 -3 825 -3 822.5 11.5 c 128,-1,15
 820 26 820 26 817 49 c 2,16,-1
 745 463 l 1,17,-1
 462 43 l 2,18,19
 437 8 437 8 424.5 -8.5 c 128,-1,20
 412 -25 412 -25 404 -25 c 0,21,22
 387 -25 387 -25 375 51 c 2,23,-1
 266 647 l 2,24,25
 260 681 260 681 253.5 702 c 128,-1,26
 247 723 247 723 239.5 734.5 c 128,-1,27
 232 746 232 746 222 751 c 128,-1,28
 212 756 212 756 198 758 c 1,29,-1
 203 784 l 1,30,-1
 516 784 l 1,31,-1
 511 758 l 1,32,33
 486 755 486 755 469 750.5 c 128,-1,34
 452 746 452 746 441 738.5 c 128,-1,35
 430 731 430 731 424 720 c 128,-1,36
 418 709 418 709 415 694 c 0,37,38
 411 672 411 672 418 647 c 2,39,-1
 494 193 l 1,40,-1
 724 541 l 1,41,42
 715 607 715 607 708 647.5 c 128,-1,43
 701 688 701 688 690.5 711.5 c 128,-1,44
 680 735 680 735 663 744.5 c 128,-1,45
 646 754 646 754 618 758 c 1,46,-1
 623 784 l 1,47,-1
 975 784 l 1,48,-1
 970 758 l 1,49,50
 938 752 938 752 917.5 747 c 128,-1,51
 897 742 897 742 884.5 735.5 c 128,-1,52
 872 729 872 729 865.5 719.5 c 128,-1,53
 859 710 859 710 856 694 c 0,54,55
 854 685 854 685 853.5 679.5 c 128,-1,56
 853 674 853 674 854 665 c 128,-1,57
 855 656 855 656 857 639.5 c 128,-1,58
 859 623 859 623 862 592 c 2,59,-1
 928 203 l 1,60,-1
 1164 588 l 2,61,62
 1186 623 1186 623 1200.5 652.5 c 128,-1,63
 1215 682 1215 682 1220 702 c 0,64,65
 1225 725 1225 725 1210.5 736 c 128,-1,66
 1196 747 1196 747 1154 758 c 1,67,-1
 1159 784 l 1,68,-1
 1374 784 l 1,69,-1
 1369 758 l 1,0,1
EndSplineSet
EndChar

StartChar: x
Encoding: 120 120 82
Width: 870
Flags: W
LayerCount: 2
Fore
SplineSet
488 27 m 1,0,1
 532 28 532 28 547 36.5 c 128,-1,2
 562 45 562 45 567 68 c 0,3,4
 570 81 570 81 563 98 c 2,5,-1
 457 342 l 1,6,-1
 275 129 l 2,7,8
 228 76 228 76 225 57 c 0,9,10
 221 40 221 40 235.5 33.5 c 128,-1,11
 250 27 250 27 288 27 c 1,12,-1
 283 0 l 1,13,-1
 31 0 l 1,14,-1
 36 27 l 1,15,16
 57 29 57 29 73 32.5 c 128,-1,17
 89 36 89 36 104 45 c 128,-1,18
 119 54 119 54 136.5 70.5 c 128,-1,19
 154 87 154 87 180 115 c 2,20,-1
 439 401 l 1,21,-1
 328 653 l 2,22,23
 314 682 314 682 303 702 c 128,-1,24
 292 722 292 722 280 734.5 c 128,-1,25
 268 747 268 747 253.5 752.5 c 128,-1,26
 239 758 239 758 218 758 c 2,27,-1
 204 758 l 1,28,-1
 209 784 l 1,29,-1
 567 784 l 1,30,-1
 562 758 l 1,31,32
 523 756 523 756 503.5 746.5 c 128,-1,33
 484 737 484 737 480 719 c 0,34,35
 476 702 476 702 488.5 660.5 c 128,-1,36
 501 619 501 619 527 563 c 2,37,-1
 544 530 l 1,38,39
 584 575 584 575 612.5 605 c 128,-1,40
 641 635 641 635 660 656 c 128,-1,41
 679 677 679 677 688.5 691.5 c 128,-1,42
 698 706 698 706 701 719 c 0,43,44
 705 737 705 737 691.5 746.5 c 128,-1,45
 678 756 678 756 640 758 c 1,46,-1
 645 784 l 1,47,-1
 920 784 l 1,48,-1
 915 758 l 1,49,50
 872 756 872 756 831 736.5 c 128,-1,51
 790 717 790 717 756 682 c 2,52,-1
 569 471 l 1,53,-1
 717 131 l 2,54,55
 732 102 732 102 745 82 c 128,-1,56
 758 62 758 62 772 50 c 128,-1,57
 786 38 786 38 802 32.5 c 128,-1,58
 818 27 818 27 839 27 c 1,59,-1
 834 0 l 1,60,-1
 483 0 l 1,61,-1
 488 27 l 1,62,-1
 488 27 l 1,0,1
EndSplineSet
EndChar

StartChar: y
Encoding: 121 121 83
Width: 870
Flags: W
LayerCount: 2
Fore
SplineSet
988 758 m 1,0,1
 956 755 956 755 933.5 737.5 c 128,-1,2
 911 720 911 720 887 680 c 2,3,-1
 468 -31 l 2,4,5
 414 -125 414 -125 366 -191 c 128,-1,6
 318 -257 318 -257 273 -299 c 128,-1,7
 228 -341 228 -341 185.5 -360 c 128,-1,8
 143 -379 143 -379 99 -379 c 0,9,10
 45 -379 45 -379 14 -351.5 c 128,-1,11
 -17 -324 -17 -324 -8 -279 c 0,12,13
 -2 -248 -2 -248 25 -225.5 c 128,-1,14
 52 -203 52 -203 83 -203 c 0,15,16
 103 -203 103 -203 126 -206.5 c 128,-1,17
 149 -210 149 -210 172 -221 c 0,18,19
 183 -226 183 -226 192.5 -229.5 c 128,-1,20
 202 -233 202 -233 210 -233 c 0,21,22
 229 -233 229 -233 259 -213 c 128,-1,23
 289 -193 289 -193 316 -156 c 0,24,25
 330 -137 330 -137 348.5 -108.5 c 128,-1,26
 367 -80 367 -80 384 -51.5 c 128,-1,27
 401 -23 401 -23 413 0.5 c 128,-1,28
 425 24 425 24 427 33 c 0,29,30
 431 53 431 53 420.5 98 c 128,-1,31
 410 143 410 143 386 209 c 1,32,-1
 372 260 l 1,33,-1
 369 274 l 1,34,-1
 262 702 l 2,35,36
 255 725 255 725 237 740 c 128,-1,37
 219 755 219 755 186 760 c 1,38,-1
 191 784 l 1,39,-1
 549 784 l 1,40,-1
 544 758 l 1,41,42
 486 756 486 756 462.5 745 c 128,-1,43
 439 734 439 734 434 711 c 0,44,45
 431 697 431 697 431.5 680 c 128,-1,46
 432 663 432 663 435 643 c 2,47,-1
 543 205 l 1,48,-1
 813 684 l 2,49,50
 819 692 819 692 822.5 700.5 c 128,-1,51
 826 709 826 709 827 715 c 0,52,53
 836 758 836 758 753 758 c 1,54,-1
 758 784 l 1,55,-1
 993 784 l 1,56,-1
 988 758 l 1,57,-1
 988 758 l 1,0,1
EndSplineSet
EndChar

StartChar: z
Encoding: 122 122 84
Width: 772
Flags: W
LayerCount: 2
Fore
SplineSet
47 0 m 1,0,-1
 52 27 l 1,1,-1
 665 731 l 1,2,-1
 423 731 l 2,3,4
 385 731 385 731 359 725 c 128,-1,5
 333 719 333 719 313 702 c 128,-1,6
 293 685 293 685 277 655.5 c 128,-1,7
 261 626 261 626 245 578 c 1,8,-1
 214 578 l 1,9,-1
 258 784 l 1,10,-1
 866 784 l 1,11,-1
 861 758 l 1,12,-1
 243 51 l 1,13,-1
 483 51 l 2,14,15
 551 51 551 51 597.5 63 c 128,-1,16
 644 75 644 75 665 98 c 0,17,18
 676 109 676 109 685 120.5 c 128,-1,19
 694 132 694 132 703.5 148 c 128,-1,20
 713 164 713 164 723.5 186.5 c 128,-1,21
 734 209 734 209 747 242 c 1,22,-1
 777 236 l 1,23,-1
 702 0 l 1,24,-1
 47 0 l 1,0,-1
EndSplineSet
EndChar

StartChar: braceleft
Encoding: 123 123 85
Width: 836
Flags: W
LayerCount: 2
Fore
SplineSet
541 -315 m 1,0,1
 499 -315 499 -315 468.5 -312.5 c 128,-1,2
 438 -310 438 -310 414.5 -304.5 c 128,-1,3
 391 -299 391 -299 373.5 -290.5 c 128,-1,4
 356 -282 356 -282 341 -270 c 0,5,6
 309 -247 309 -247 299.5 -196.5 c 128,-1,7
 290 -146 290 -146 306 -72 c 2,8,-1
 372 238 l 2,9,10
 381 281 381 281 381.5 312.5 c 128,-1,11
 382 344 382 344 370 367 c 128,-1,12
 358 390 358 390 332.5 406 c 128,-1,13
 307 422 307 422 266 434 c 1,14,15
 313 449 313 449 344.5 464 c 128,-1,16
 376 479 376 479 397.5 500.5 c 128,-1,17
 419 522 419 522 432.5 553.5 c 128,-1,18
 446 585 446 585 456 633 c 2,19,-1
 522 942 l 2,20,21
 537 1014 537 1014 561.5 1059.5 c 128,-1,22
 586 1105 586 1105 625.5 1132 c 128,-1,23
 665 1159 665 1159 722 1170.5 c 128,-1,24
 779 1182 779 1182 859 1184 c 1,25,-1
 855 1163 l 1,26,27
 808 1153 808 1153 774.5 1136.5 c 128,-1,28
 741 1120 741 1120 717 1094.5 c 128,-1,29
 693 1069 693 1069 677.5 1033.5 c 128,-1,30
 662 998 662 998 652 950 c 2,31,-1
 590 657 l 2,32,33
 579 603 579 603 564 567 c 128,-1,34
 549 531 549 531 525 505.5 c 128,-1,35
 501 480 501 480 465.5 463.5 c 128,-1,36
 430 447 430 447 378 432 c 1,37,38
 425 422 425 422 453.5 406.5 c 128,-1,39
 482 391 482 391 495 365.5 c 128,-1,40
 508 340 508 340 507.5 302.5 c 128,-1,41
 507 265 507 265 495 211 c 2,42,-1
 433 -82 l 2,43,44
 422 -131 422 -131 422.5 -166 c 128,-1,45
 423 -201 423 -201 436 -226 c 128,-1,46
 449 -251 449 -251 475.5 -268 c 128,-1,47
 502 -285 502 -285 544 -297 c 1,48,-1
 541 -315 l 1,49,-1
 541 -315 l 1,0,1
EndSplineSet
EndChar

StartChar: bar
Encoding: 124 124 86
Width: 348
Flags: W
LayerCount: 2
Fore
SplineSet
480 1176 m 1,0,-1
 225 -25 l 1,1,-1
 111 -25 l 1,2,-1
 366 1176 l 1,3,-1
 480 1176 l 1,0,-1
EndSplineSet
EndChar

StartChar: asciitilde
Encoding: 126 126 87
Width: 942
Flags: W
LayerCount: 2
Fore
SplineSet
974 471 m 1,0,1
 935 430 935 430 903 402 c 128,-1,2
 871 374 871 374 842 356.5 c 128,-1,3
 813 339 813 339 785.5 331.5 c 128,-1,4
 758 324 758 324 727 324 c 0,5,6
 698 324 698 324 675.5 327 c 128,-1,7
 653 330 653 330 627.5 340 c 128,-1,8
 602 350 602 350 568 368.5 c 128,-1,9
 534 387 534 387 483 418 c 0,10,11
 463 430 463 430 437 436 c 128,-1,12
 411 442 411 442 386 442 c 0,13,14
 366 442 366 442 349 437.5 c 128,-1,15
 332 433 332 433 315 422.5 c 128,-1,16
 298 412 298 412 279.5 395.5 c 128,-1,17
 261 379 261 379 239 354 c 1,18,-1
 157 410 l 1,19,20
 196 451 196 451 228 479 c 128,-1,21
 260 507 260 507 288.5 524.5 c 128,-1,22
 317 542 317 542 344.5 549.5 c 128,-1,23
 372 557 372 557 403 557 c 0,24,25
 431 557 431 557 453 553.5 c 128,-1,26
 475 550 475 550 501 540 c 128,-1,27
 527 530 527 530 561 511.5 c 128,-1,28
 595 493 595 493 647 463 c 0,29,30
 667 450 667 450 692.5 444 c 128,-1,31
 718 438 718 438 744 438 c 0,32,33
 762 438 762 438 779.5 442.5 c 128,-1,34
 797 447 797 447 814.5 457.5 c 128,-1,35
 832 468 832 468 851 485 c 128,-1,36
 870 502 870 502 892 528 c 1,37,-1
 974 471 l 1,38,-1
 974 471 l 1,0,1
EndSplineSet
EndChar

StartChar: ccedilla
Encoding: 231 231 90
Width: 805
Flags: W
LayerCount: 2
Fore
SplineSet
775 198 m 1,0,-1
 764 142 l 1,1,2
 616 37 616 37 445 -9 c 1,3,-1
 408 -65 l 1,4,5
 481 -86 481 -86 481 -146 c 0,6,7
 481 -197 481 -197 424.5 -240.5 c 128,-1,8
 368 -284 368 -284 301 -284 c 0,9,10
 272 -284 272 -284 232 -277 c 1,11,-1
 287 -201 l 1,12,13
 322 -223 322 -223 348 -223 c 0,14,15
 412 -223 412 -223 412 -172 c 0,16,17
 412 -117 412 -117 311 -111 c 1,18,-1
 376 -19 l 1,19,20
 145 5 145 5 145 228 c 0,21,22
 145 445 145 445 302 622 c 128,-1,23
 459 799 459 799 652 799 c 0,24,25
 736 799 736 799 819 762 c 1,26,-1
 770 578 l 1,27,-1
 725 578 l 1,28,-1
 728 589 l 2,29,30
 735 622 735 622 735 638 c 0,31,32
 735 737 735 737 599 737 c 0,33,34
 475 737 475 737 382.5 595 c 128,-1,35
 290 453 290 453 290 263 c 0,36,37
 290 62 290 62 446 62 c 0,38,39
 563 62 563 62 775 198 c 1,0,-1
EndSplineSet
EndChar

StartChar: icircumflex
Encoding: 238 238 95
Width: 468
Flags: W
LayerCount: 2
Fore
SplineSet
328 0 m 1,0,-1
 140 0 l 1,1,-1
 140 1117 l 1,2,-1
 328 1117 l 1,3,-1
 328 0 l 1,0,-1
521 1297 m 1,4,-1
 370 1297 l 1,5,-1
 231 1560 l 1,6,-1
 93 1297 l 1,7,-1
 -54 1297 l 1,8,-1
 120 1676 l 1,9,-1
 347 1676 l 1,10,-1
 521 1297 l 1,4,-1
EndSplineSet
EndChar

StartChar: idieresis
Encoding: 239 239 96
Width: 468
Flags: W
LayerCount: 2
Fore
SplineSet
328 0 m 1,0,-1
 140 0 l 1,1,-1
 140 1117 l 1,2,-1
 328 1117 l 1,3,-1
 328 0 l 1,0,-1
506 1304 m 1,4,-1
 317 1304 l 1,5,-1
 317 1499 l 1,6,-1
 506 1499 l 1,7,-1
 506 1304 l 1,4,-1
151 1304 m 1,8,-1
 -38 1304 l 1,9,-1
 -38 1499 l 1,10,-1
 151 1499 l 1,11,-1
 151 1304 l 1,8,-1
EndSplineSet
EndChar

StartChar: dagger
Encoding: 8224 8224 101
Width: 932
Flags: W
LayerCount: 2
Fore
SplineSet
347 -231 m 1,0,-1
 567 622 l 1,1,-1
 248 592 l 1,2,-1
 297 700 l 1,3,-1
 576 668 l 1,4,-1
 607 1066 l 1,5,-1
 755 1093 l 1,6,-1
 621 668 l 1,7,-1
 941 700 l 1,8,-1
 895 592 l 1,9,-1
 612 622 l 1,10,-1
 496 -213 l 1,11,-1
 347 -231 l 1,0,-1
EndSplineSet
EndChar

StartChar: degree
Encoding: 176 176 102
Width: 409
Flags: W
LayerCount: 2
Fore
SplineSet
395 844 m 0,0,1
 344 844 344 844 307.5 880 c 128,-1,2
 271 916 271 916 271 968 c 0,3,4
 271 1021 271 1021 307.5 1057 c 128,-1,5
 344 1093 344 1093 395 1093 c 0,6,7
 447 1093 447 1093 483 1057 c 128,-1,8
 519 1021 519 1021 519 968 c 0,9,10
 519 916 519 916 483 880 c 128,-1,11
 447 844 447 844 395 844 c 0,0,1
395 888 m 256,12,13
 427 888 427 888 450.5 912 c 128,-1,14
 474 936 474 936 474 968 c 256,15,16
 474 1000 474 1000 450.5 1024 c 128,-1,17
 427 1048 427 1048 395 1048 c 256,18,19
 363 1048 363 1048 339 1024 c 128,-1,20
 315 1000 315 1000 315 968 c 256,21,22
 315 936 315 936 339 912 c 128,-1,23
 363 888 363 888 395 888 c 256,12,13
EndSplineSet
EndChar

StartChar: cent
Encoding: 162 162 103
Width: 693
Flags: W
LayerCount: 2
Fore
SplineSet
365 -18 m 1,0,-1
 404 176 l 1,1,2
 142 195 142 195 142 355 c 0,3,4
 142 459 142 459 242 534.5 c 128,-1,5
 342 610 342 610 492 622 c 1,6,-1
 527 799 l 1,7,-1
 572 799 l 1,8,-1
 537 622 l 1,9,10
 637 617 637 617 715 601 c 1,11,-1
 689 471 l 1,12,-1
 644 471 l 1,13,14
 644 477 644 477 645 488 c 0,15,16
 648 509 648 509 648 517 c 0,17,18
 648 572 648 572 528 578 c 1,19,-1
 459 229 l 1,20,21
 567 229 567 229 661 280 c 1,22,-1
 650 229 l 1,23,24
 544 176 544 176 448 176 c 1,25,-1
 409 -18 l 1,26,-1
 365 -18 l 1,0,-1
415 232 m 1,27,-1
 484 578 l 1,28,29
 272 547 272 547 272 383 c 0,30,31
 272 255 272 255 415 232 c 1,27,-1
EndSplineSet
EndChar

StartChar: sterling
Encoding: 163 163 104
Width: 874
Flags: W
LayerCount: 2
Fore
SplineSet
17 0 m 1,0,-1
 109 88 l 1,1,-1
 122 88 l 2,2,3
 229 88 229 88 272.5 136.5 c 128,-1,4
 316 185 316 185 347 343 c 2,5,-1
 356 391 l 1,6,-1
 196 391 l 1,7,-1
 205 436 l 1,8,-1
 365 436 l 1,9,-1
 378 499 l 2,10,11
 407 642 407 642 496.5 721 c 128,-1,12
 586 800 586 800 718 800 c 0,13,14
 797 800 797 800 892 765 c 1,15,-1
 858 586 l 1,16,-1
 808 586 l 1,17,-1
 810 598 l 2,18,19
 812 608 812 608 812 620 c 0,20,21
 812 746 812 746 679 746 c 0,22,23
 614 746 614 746 584.5 710 c 128,-1,24
 555 674 555 674 535 569 c 2,25,-1
 508 436 l 1,26,-1
 748 436 l 1,27,-1
 739 391 l 1,28,-1
 499 391 l 1,29,-1
 492 359 l 2,30,31
 473 265 473 265 427.5 208 c 128,-1,32
 382 151 382 151 275 88 c 1,33,-1
 480 88 l 2,34,35
 617 88 617 88 679 102.5 c 128,-1,36
 741 117 741 117 819 167 c 1,37,-1
 808 113 l 1,38,39
 735 35 735 35 665.5 7.5 c 128,-1,40
 596 -20 596 -20 470 -20 c 1,41,-1
 442 -19 l 1,42,-1
 17 0 l 1,0,-1
EndSplineSet
EndChar

StartChar: section
Encoding: 167 167 105
Width: 932
Flags: W
LayerCount: 2
Fore
SplineSet
107 -153 m 1,0,-1
 232 -80 l 1,1,2
 348 -178 348 -178 481 -178 c 0,3,4
 564 -178 564 -178 621.5 -127.5 c 128,-1,5
 679 -77 679 -77 679 -5 c 0,6,7
 679 48 679 48 645.5 80.5 c 128,-1,8
 612 113 612 113 513 160 c 2,9,-1
 440 193 l 2,10,11
 247 283 247 283 247 409 c 0,12,13
 247 528 247 528 409 652 c 1,14,15
 328 717 328 717 328 815 c 0,16,17
 328 938 328 938 440 1015.5 c 128,-1,18
 552 1093 552 1093 727 1093 c 0,19,20
 814 1093 814 1093 933 1060 c 1,21,-1
 897 879 l 1,22,-1
 853 879 l 1,23,24
 857 904 857 904 857 916 c 0,25,26
 857 1039 857 1039 652 1039 c 0,27,28
 560 1039 560 1039 500.5 987 c 128,-1,29
 441 935 441 935 441 853 c 0,30,31
 441 798 441 798 466 774.5 c 128,-1,32
 491 751 491 751 613 686 c 2,33,-1
 674 652 l 2,34,35
 854 553 854 553 854 444 c 0,36,37
 854 319 854 319 703 200 c 1,38,39
 801 136 801 136 801 40 c 0,40,41
 801 -75 801 -75 684.5 -153 c 128,-1,42
 568 -231 568 -231 397 -231 c 0,43,44
 244 -231 244 -231 107 -153 c 1,0,-1
667 229 m 1,45,46
 747 319 747 319 747 394 c 0,47,48
 747 470 747 470 628 527 c 2,49,-1
 558 562 l 2,50,51
 495 593 495 593 445 625 c 1,52,53
 355 545 355 545 355 456 c 0,54,55
 355 382 355 382 474 326 c 2,56,-1
 571 279 l 2,57,58
 607 263 607 263 667 229 c 1,45,46
EndSplineSet
EndChar

StartChar: bullet
Encoding: 8226 8226 106
Width: 931
Flags: W
LayerCount: 2
Fore
SplineSet
817 662 m 256,0,1
 817 517 817 517 713.5 414 c 128,-1,2
 610 311 610 311 465 311 c 256,3,4
 320 311 320 311 217 414 c 128,-1,5
 114 517 114 517 114 662 c 256,6,7
 114 807 114 807 217 910 c 128,-1,8
 320 1013 320 1013 465 1013 c 256,9,10
 610 1013 610 1013 713.5 910 c 128,-1,11
 817 807 817 807 817 662 c 256,0,1
EndSplineSet
EndChar

StartChar: paragraph
Encoding: 182 182 107
Width: 932
Flags: W
LayerCount: 2
Fore
SplineSet
365 -239 m 1,0,-1
 511 496 l 1,1,2
 241 542 241 542 241 747 c 0,3,4
 241 876 241 876 346.5 968 c 128,-1,5
 452 1060 452 1060 628 1085 c 1,6,-1
 660 1244 l 1,7,-1
 704 1244 l 1,8,-1
 673 1085 l 1,9,-1
 703 1086 l 2,10,11
 744 1086 744 1086 796 1080 c 1,12,-1
 828 1244 l 1,13,-1
 873 1244 l 1,14,-1
 839 1071 l 1,15,16
 891 1057 891 1057 948 1036 c 1,17,-1
 938 988 l 1,18,19
 898 1005 898 1005 830 1024 c 1,20,-1
 742 586 l 1,21,22
 794 603 794 603 869 643 c 1,23,-1
 859 586 l 1,24,25
 794 549 794 549 732 530 c 1,26,-1
 578 -239 l 1,27,-1
 534 -239 l 1,28,-1
 684 514 l 1,29,30
 597 496 597 496 556 496 c 1,31,-1
 409 -239 l 1,32,-1
 365 -239 l 1,0,-1
695 568 m 1,33,-1
 787 1031 l 1,34,35
 738 1040 738 1040 704 1040 c 0,36,37
 691 1040 691 1040 664 1039 c 1,38,-1
 567 553 l 1,39,40
 625 553 625 553 695 568 c 1,33,-1
EndSplineSet
EndChar

StartChar: registered
Encoding: 174 174 108
Width: 897
Flags: W
LayerCount: 2
Fore
SplineSet
580 445 m 0,0,1
 448 445 448 445 354.5 538.5 c 128,-1,2
 261 632 261 632 261 764 c 256,3,4
 261 896 261 896 354.5 990 c 128,-1,5
 448 1084 448 1084 580 1084 c 0,6,7
 714 1084 714 1084 807 990 c 128,-1,8
 900 896 900 896 900 764 c 256,9,10
 900 632 900 632 806.5 538.5 c 128,-1,11
 713 445 713 445 580 445 c 0,0,1
580 484 m 0,12,13
 695 484 695 484 777.5 567 c 128,-1,14
 860 650 860 650 860 764 c 256,15,16
 860 878 860 878 777.5 961 c 128,-1,17
 695 1044 695 1044 580 1044 c 0,18,19
 466 1044 466 1044 383.5 961 c 128,-1,20
 301 878 301 878 301 764 c 256,21,22
 301 650 301 650 383.5 567 c 128,-1,23
 466 484 466 484 580 484 c 0,12,13
529 737 m 1,24,-1
 501 596 l 1,25,-1
 394 596 l 1,26,-1
 403 639 l 1,27,-1
 456 639 l 1,28,-1
 511 915 l 1,29,-1
 458 915 l 1,30,-1
 466 959 l 1,31,-1
 598 959 l 2,32,33
 751 959 751 959 751 875 c 0,34,35
 751 800 751 800 650 750 c 1,36,-1
 685 639 l 1,37,-1
 747 639 l 1,38,-1
 738 596 l 1,39,-1
 641 596 l 1,40,-1
 591 737 l 1,41,-1
 529 737 l 1,24,-1
538 782 m 1,42,-1
 574 782 l 2,43,44
 697 782 697 782 697 866 c 0,45,46
 697 915 697 915 607 915 c 2,47,-1
 564 915 l 1,48,-1
 538 782 l 1,42,-1
EndSplineSet
EndChar

StartChar: copyright
Encoding: 169 169 109
Width: 1244
Flags: W
LayerCount: 2
Fore
SplineSet
725 -27 m 0,0,1
 495 -27 495 -27 330.5 137 c 128,-1,2
 166 301 166 301 166 533 c 256,3,4
 166 765 166 765 330.5 929 c 128,-1,5
 495 1093 495 1093 725 1093 c 0,6,7
 958 1093 958 1093 1122 929 c 128,-1,8
 1286 765 1286 765 1286 533 c 256,9,10
 1286 301 1286 301 1122 137 c 128,-1,11
 958 -27 958 -27 725 -27 c 0,0,1
725 18 m 0,12,13
 939 18 939 18 1090 169 c 128,-1,14
 1241 320 1241 320 1241 533 c 256,15,16
 1241 746 1241 746 1090 897 c 128,-1,17
 939 1048 939 1048 725 1048 c 0,18,19
 513 1048 513 1048 362 897 c 128,-1,20
 211 746 211 746 211 533 c 256,21,22
 211 320 211 320 362 169 c 128,-1,23
 513 18 513 18 725 18 c 0,12,13
890 246 m 1,24,25
 785 213 785 213 704 213 c 0,26,27
 580 213 580 213 508 279.5 c 128,-1,28
 436 346 436 346 436 462 c 0,29,30
 436 625 436 625 541 734.5 c 128,-1,31
 646 844 646 844 805 844 c 0,32,33
 896 844 896 844 1003 814 c 1,34,-1
 967 675 l 1,35,-1
 915 684 l 1,36,-1
 923 766 l 1,37,38
 854 798 854 798 792 798 c 0,39,40
 688 798 688 798 616 700 c 128,-1,41
 544 602 544 602 544 462 c 0,42,43
 544 271 544 271 722 271 c 0,44,45
 823 271 823 271 902 307 c 1,46,-1
 890 246 l 1,24,25
EndSplineSet
EndChar

StartChar: trademark
Encoding: 8482 8482 110
Width: 1333
Flags: W
LayerCount: 2
Fore
SplineSet
440 1021 m 1,0,-1
 307 1021 l 1,1,-1
 288 923 l 1,2,-1
 225 923 l 1,3,-1
 254 1066 l 1,4,-1
 751 1066 l 1,5,-1
 723 923 l 1,6,-1
 661 923 l 1,7,-1
 679 1021 l 1,8,-1
 546 1021 l 1,9,-1
 456 569 l 1,10,-1
 554 569 l 1,11,-1
 545 524 l 1,12,-1
 243 524 l 1,13,-1
 253 569 l 1,14,-1
 350 569 l 1,15,-1
 440 1021 l 1,0,-1
1011 569 m 1,16,-1
 942 956 l 1,17,-1
 857 524 l 1,18,-1
 688 524 l 1,19,-1
 697 569 l 1,20,-1
 794 569 l 1,21,-1
 884 1021 l 1,22,-1
 787 1021 l 1,23,-1
 796 1066 l 1,24,-1
 1036 1066 l 1,25,-1
 1092 747 l 1,26,-1
 1265 1066 l 1,27,-1
 1481 1066 l 1,28,-1
 1473 1021 l 1,29,-1
 1375 1021 l 1,30,-1
 1285 569 l 1,31,-1
 1383 569 l 1,32,-1
 1373 524 l 1,33,-1
 1178 524 l 1,34,-1
 1270 985 l 1,35,-1
 1041 569 l 1,36,-1
 1011 569 l 1,16,-1
EndSplineSet
EndChar

StartChar: acute
Encoding: 180 180 111
Width: 256
Flags: W
LayerCount: 2
Fore
SplineSet
118 999 m 1,0,1
 195 1083 195 1083 192 1046 c 1,2,3
 183 1014 183 1014 135.5 924 c 128,-1,4
 88 834 88 834 66 802 c 1,5,6
 55 796 55 796 62 848 c 1,7,8
 83 919 83 919 118 999 c 1,0,1
EndSplineSet
EndChar

StartChar: dieresis
Encoding: 168 168 112
Width: 862
Flags: W
LayerCount: 2
Fore
SplineSet
495 923 m 1,0,-1
 408 1033 l 1,1,-1
 520 1119 l 1,2,-1
 607 1003 l 1,3,-1
 495 923 l 1,0,-1
841 923 m 1,4,-1
 752 1035 l 1,5,-1
 866 1119 l 1,6,-1
 951 1004 l 1,7,-1
 841 923 l 1,4,-1
EndSplineSet
EndChar

StartChar: plusminus
Encoding: 177 177 113
Width: 932
Flags: W
LayerCount: 2
Fore
SplineSet
76 0 m 1,0,-1
 92 80 l 1,1,-1
 873 80 l 1,2,-1
 858 0 l 1,3,-1
 76 0 l 1,0,-1
469 213 m 1,4,-1
 525 493 l 1,5,-1
 174 493 l 1,6,-1
 189 573 l 1,7,-1
 541 573 l 1,8,-1
 596 852 l 1,9,-1
 676 852 l 1,10,-1
 621 573 l 1,11,-1
 971 573 l 1,12,-1
 956 493 l 1,13,-1
 605 493 l 1,14,-1
 549 213 l 1,15,-1
 469 213 l 1,4,-1
EndSplineSet
EndChar

StartChar: yen
Encoding: 165 165 114
Width: 965
Flags: W
LayerCount: 2
Fore
SplineSet
156 0 m 1,0,-1
 247 99 l 1,1,2
 269 97 269 97 279 97 c 0,3,4
 415 97 415 97 477 257 c 1,5,-1
 272 257 l 1,6,-1
 280 301 l 1,7,-1
 489 301 l 1,8,9
 495 346 495 346 499 409 c 1,10,-1
 301 409 l 1,11,-1
 310 453 l 1,12,-1
 499 453 l 1,13,14
 499 465 499 465 499 470 c 0,15,16
 499 567 499 567 463.5 631 c 128,-1,17
 428 695 428 695 375 695 c 256,18,19
 322 695 322 695 250 638 c 128,-1,20
 178 581 178 581 139 509 c 1,21,-1
 106 534 l 1,22,23
 172 650 172 650 268.5 724.5 c 128,-1,24
 365 799 365 799 452 799 c 0,25,26
 612 799 612 799 612 518 c 1,27,-1
 611 472 l 1,28,29
 736 799 736 799 971 799 c 0,30,31
 1045 799 1045 799 1100 765 c 1,32,-1
 1016 653 l 1,33,34
 967 684 967 684 915 684 c 0,35,36
 742 684 742 684 651 453 c 1,37,-1
 835 453 l 1,38,-1
 826 409 l 1,39,-1
 643 409 l 1,40,-1
 634 369 l 2,41,42
 627 335 627 335 609 301 c 1,43,-1
 805 301 l 1,44,-1
 796 257 l 1,45,-1
 585 257 l 1,46,47
 519 138 519 138 389 91 c 1,48,-1
 624 77 l 1,49,-1
 534 -18 l 1,50,-1
 156 0 l 1,0,-1
EndSplineSet
EndChar

StartChar: mu1
Encoding: 181 181 115
Width: 992
Flags: W
LayerCount: 2
Fore
SplineSet
100 -302 m 1,0,-1
 155 -76 l 1,1,-1
 270 500 l 2,2,3
 282 560 282 560 282 611 c 0,4,5
 282 693 282 693 206 782 c 1,6,-1
 368 790 l 1,7,8
 427 740 427 740 427 623 c 0,9,10
 427 576 427 576 409 481 c 2,11,-1
 355 213 l 2,12,13
 347 176 347 176 347 161 c 0,14,15
 347 106 347 106 391 106 c 0,16,17
 446 106 446 106 553.5 229 c 128,-1,18
 661 352 661 352 753 519 c 1,19,-1
 805 782 l 1,20,-1
 958 790 l 1,21,-1
 905 569 l 1,22,-1
 834 213 l 2,23,24
 818 132 818 132 818 106 c 0,25,26
 818 53 818 53 861 53 c 0,27,28
 931 53 931 53 1075 218 c 1,29,-1
 1062 151 l 1,30,31
 905 -18 905 -18 779 -18 c 0,32,33
 675 -18 675 -18 675 91 c 0,34,35
 675 128 675 128 692 213 c 2,36,-1
 727 391 l 1,37,-1
 717 391 l 1,38,39
 517 0 517 0 312 0 c 1,40,-1
 255 -284 l 1,41,-1
 100 -302 l 1,0,-1
EndSplineSet
EndChar

StartChar: logicalnot
Encoding: 172 172 116
Width: 932
Flags: W
LayerCount: 2
Fore
SplineSet
177 510 m 1,0,-1
 193 590 l 1,1,-1
 975 590 l 1,2,-1
 906 248 l 1,3,-1
 814 248 l 1,4,-1
 866 510 l 1,5,-1
 177 510 l 1,0,-1
EndSplineSet
EndChar

StartChar: florin
Encoding: 402 402 117
Width: 679
Flags: W
LayerCount: 2
Fore
SplineSet
158 -231 m 1,0,-1
 210 -18 l 1,1,-1
 286 364 l 1,2,-1
 108 364 l 1,3,-1
 117 409 l 1,4,-1
 294 409 l 1,5,-1
 298 427 l 2,6,7
 330 586 330 586 463 692.5 c 128,-1,8
 596 799 596 799 761 799 c 0,9,10
 818 799 818 799 860 784 c 1,11,-1
 764 678 l 1,12,13
 712 729 712 729 643 729 c 0,14,15
 500 729 500 729 457 512 c 2,16,-1
 436 409 l 1,17,-1
 623 409 l 1,18,-1
 614 364 l 1,19,-1
 427 364 l 1,20,-1
 313 -213 l 1,21,-1
 158 -231 l 1,0,-1
EndSplineSet
EndChar

StartChar: ellipsis
Encoding: 8230 8230 118
Width: 1474
Flags: W
LayerCount: 2
Fore
SplineSet
178 0 m 1,0,-1
 206 142 l 1,1,-1
 348 142 l 1,2,-1
 319 0 l 1,3,-1
 178 0 l 1,0,-1
667 0 m 1,4,-1
 695 142 l 1,5,-1
 837 142 l 1,6,-1
 808 0 l 1,7,-1
 667 0 l 1,4,-1
1155 0 m 1,8,-1
 1183 142 l 1,9,-1
 1326 142 l 1,10,-1
 1297 0 l 1,11,-1
 1155 0 l 1,8,-1
EndSplineSet
EndChar

StartChar: OE
Encoding: 338 338 119
Width: 1477
Flags: W
LayerCount: 2
Fore
SplineSet
816 0 m 1,0,-1
 831 70 l 1,1,2
 711 -27 711 -27 549 -27 c 0,3,4
 371 -27 371 -27 269 81 c 128,-1,5
 167 189 167 189 167 378 c 0,6,7
 167 661 167 661 358 877 c 128,-1,8
 549 1093 549 1093 799 1093 c 0,9,10
 931 1093 931 1093 1017 1007 c 1,11,-1
 1029 1066 l 1,12,-1
 1593 1066 l 1,13,-1
 1529 862 l 1,14,-1
 1484 862 l 1,15,16
 1490 891 1490 891 1490 913 c 0,17,18
 1490 969 1490 969 1424.5 990.5 c 128,-1,19
 1359 1012 1359 1012 1187 1012 c 2,20,-1
 1165 1012 l 1,21,-1
 1082 586 l 1,22,-1
 1402 586 l 1,23,-1
 1329 512 l 1,24,25
 1165 533 1165 533 1107 533 c 2,26,-1
 1071 533 l 1,27,-1
 1012 218 l 2,28,29
 1002 167 1002 167 1002 156 c 0,30,31
 1002 80 1002 80 1228 80 c 0,32,33
 1348 80 1348 80 1453 160 c 1,34,-1
 1442 103 l 1,35,36
 1318 -23 1318 -23 1203 -23 c 0,37,38
 1183 -23 1183 -23 1161 -21 c 2,39,-1
 816 0 l 1,0,-1
888 361 m 2,40,-1
 961 723 l 2,41,42
 974 786 974 786 974 841 c 0,43,44
 974 933 974 933 916.5 990.5 c 128,-1,45
 859 1048 859 1048 769 1048 c 0,46,47
 604 1048 604 1048 466.5 844 c 128,-1,48
 329 640 329 640 329 395 c 0,49,50
 329 218 329 218 396.5 117.5 c 128,-1,51
 464 17 464 17 585 17 c 0,52,53
 818 17 818 17 888 361 c 2,40,-1
EndSplineSet
EndChar

StartChar: oe
Encoding: 339 339 120
Width: 1350
Flags: W
LayerCount: 2
Fore
SplineSet
706 145 m 1,0,1
 535 -18 535 -18 370 -18 c 0,2,3
 273 -18 273 -18 209 55 c 128,-1,4
 145 128 145 128 145 237 c 0,5,6
 145 448 145 448 302.5 623.5 c 128,-1,7
 460 799 460 799 650 799 c 0,8,9
 794 799 794 799 859 630 c 1,10,11
 1025 799 1025 799 1183 799 c 0,12,13
 1246 799 1246 799 1286.5 758 c 128,-1,14
 1327 717 1327 717 1327 651 c 0,15,16
 1327 508 1327 508 1192.5 414 c 128,-1,17
 1058 320 1058 320 841 311 c 1,18,-1
 840 278 l 1,19,20
 840 66 840 66 998 66 c 0,21,22
 1113 66 1113 66 1327 200 c 1,23,-1
 1316 146 l 1,24,25
 1083 -18 1083 -18 917 -18 c 0,26,27
 758 -18 758 -18 706 145 c 1,0,1
431 35 m 0,28,29
 544 35 544 35 636 178.5 c 128,-1,30
 728 322 728 322 728 499 c 0,31,32
 728 607 728 607 689 672 c 128,-1,33
 650 737 650 737 584 737 c 0,34,35
 472 737 472 737 382 594 c 128,-1,36
 292 451 292 451 292 272 c 0,37,38
 292 35 292 35 431 35 c 0,28,29
844 355 m 1,39,40
 1004 368 1004 368 1097.5 438.5 c 128,-1,41
 1191 509 1191 509 1191 620 c 0,42,43
 1191 733 1191 733 1110 733 c 0,44,45
 1024 733 1024 733 941.5 616 c 128,-1,46
 859 499 859 499 844 355 c 1,39,40
EndSplineSet
EndChar

StartChar: endash
Encoding: 8211 8211 121
Width: 434
Flags: W
LayerCount: 2
Fore
SplineSet
434 154 m 1,0,-1
 0 154 l 1,1,-1
 0 234 l 1,2,-1
 434 234 l 1,3,-1
 434 154 l 1,0,-1
EndSplineSet
EndChar

StartChar: emdash
Encoding: 8212 8212 122
Width: 1862
Flags: W
LayerCount: 2
Fore
SplineSet
1866 572 m 1,0,-1
 -4 572 l 1,1,-1
 -4 732 l 1,2,-1
 1866 732 l 1,3,-1
 1866 572 l 1,0,-1
EndSplineSet
EndChar

StartChar: quotedblleft
Encoding: 8220 8220 123
Width: 645
Flags: W
LayerCount: 2
Fore
SplineSet
213 1051 m 1,0,1
 225 1061 225 1061 233.5 1065 c 128,-1,2
 242 1069 242 1069 254 1069 c 0,3,4
 279 1069 279 1069 300.5 1049.5 c 128,-1,5
 322 1030 322 1030 328 1003 c 0,6,7
 335 973 335 973 320.5 955 c 128,-1,8
 306 937 306 937 277 937 c 0,9,10
 234 937 234 937 193 981 c 128,-1,11
 152 1025 152 1025 139 1084 c 0,12,13
 133 1112 133 1112 138.5 1145.5 c 128,-1,14
 144 1179 144 1179 160 1210 c 0,15,16
 184 1252 184 1252 201 1252 c 0,17,18
 205 1252 205 1252 208.5 1249.5 c 128,-1,19
 212 1247 212 1247 213 1243 c 0,20,21
 213 1239 213 1239 211.5 1235.5 c 128,-1,22
 210 1232 210 1232 201 1219 c 0,23,24
 185 1194 185 1194 179 1167 c 128,-1,25
 173 1140 173 1140 178 1115 c 0,26,27
 182 1098 182 1098 191.5 1081 c 128,-1,28
 201 1064 201 1064 213 1051 c 1,0,1
-34 1051 m 1,29,30
 -22 1061 -22 1061 -14 1065 c 128,-1,31
 -6 1069 -6 1069 6 1069 c 0,32,33
 30 1069 30 1069 52 1049.5 c 128,-1,34
 74 1030 74 1030 80 1003 c 0,35,36
 86 973 86 973 72 955 c 128,-1,37
 58 937 58 937 29 937 c 0,38,39
 -14 937 -14 937 -55 981 c 128,-1,40
 -96 1025 -96 1025 -109 1084 c 0,41,42
 -114 1112 -114 1112 -108.5 1145.5 c 128,-1,43
 -103 1179 -103 1179 -87 1210 c 0,44,45
 -63 1252 -63 1252 -47 1252 c 0,46,47
 -42 1252 -42 1252 -39 1249.5 c 128,-1,48
 -36 1247 -36 1247 -35 1243 c 256,49,50
 -34 1239 -34 1239 -36 1235.5 c 128,-1,51
 -38 1232 -38 1232 -46 1219 c 0,52,53
 -63 1194 -63 1194 -69 1167 c 128,-1,54
 -75 1140 -75 1140 -69 1115 c 0,55,56
 -65 1098 -65 1098 -56 1081 c 128,-1,57
 -47 1064 -47 1064 -34 1051 c 1,29,30
EndSplineSet
EndChar

StartChar: quotedblright
Encoding: 8221 8221 124
Width: 637
Flags: W
LayerCount: 2
Fore
SplineSet
-16 1139 m 1,0,1
 -28 1129 -28 1129 -35.5 1125 c 128,-1,2
 -43 1121 -43 1121 -55 1121 c 0,3,4
 -80 1121 -80 1121 -102 1140 c 128,-1,5
 -124 1159 -124 1159 -131 1187 c 0,6,7
 -136 1216 -136 1216 -122.5 1234 c 128,-1,8
 -109 1252 -109 1252 -79 1252 c 0,9,10
 -36 1252 -36 1252 4.5 1208.5 c 128,-1,11
 45 1165 45 1165 58 1106 c 0,12,13
 64 1077 64 1077 58 1043.5 c 128,-1,14
 52 1010 52 1010 37 980 c 0,15,16
 13 937 13 937 -3 937 c 0,17,18
 -7 937 -7 937 -10.5 940 c 128,-1,19
 -14 943 -14 943 -15 947 c 0,20,21
 -16 950 -16 950 -14 954 c 128,-1,22
 -12 958 -12 958 -4 971 c 0,23,24
 13 995 13 995 18.5 1022.5 c 128,-1,25
 24 1050 24 1050 18 1075 c 0,26,27
 15 1091 15 1091 6 1108.5 c 128,-1,28
 -3 1126 -3 1126 -16 1139 c 1,0,1
232 1139 m 1,29,30
 220 1129 220 1129 212 1125 c 128,-1,31
 204 1121 204 1121 192 1121 c 0,32,33
 167 1121 167 1121 145 1140 c 128,-1,34
 123 1159 123 1159 117 1187 c 0,35,36
 111 1216 111 1216 125 1234 c 128,-1,37
 139 1252 139 1252 168 1252 c 0,38,39
 212 1252 212 1252 252.5 1208.5 c 128,-1,40
 293 1165 293 1165 306 1106 c 0,41,42
 313 1077 313 1077 307 1043.5 c 128,-1,43
 301 1010 301 1010 285 980 c 0,44,45
 261 937 261 937 245 937 c 0,46,47
 240 937 240 937 237 940 c 128,-1,48
 234 943 234 943 233 947 c 0,49,50
 232 950 232 950 234 954 c 128,-1,51
 236 958 236 958 244 971 c 0,52,53
 261 995 261 995 266.5 1022.5 c 128,-1,54
 272 1050 272 1050 267 1075 c 0,55,56
 263 1091 263 1091 254 1108.5 c 128,-1,57
 245 1126 245 1126 232 1139 c 1,29,30
EndSplineSet
EndChar

StartChar: divide
Encoding: 247 247 125
Width: 1006
Flags: W
LayerCount: 2
Fore
SplineSet
442 620 m 1,0,-1
 296 620 l 1,1,-1
 261 787 l 1,2,-1
 407 787 l 1,3,-1
 442 620 l 1,0,-1
783 352 m 1,4,-1
 69 352 l 1,5,-1
 49 450 l 1,6,-1
 763 450 l 1,7,-1
 783 352 l 1,4,-1
570 16 m 1,8,-1
 425 16 l 1,9,-1
 389 182 l 1,10,-1
 535 182 l 1,11,-1
 570 16 l 1,8,-1
EndSplineSet
EndChar

StartChar: lozenge
Encoding: 9674 9674 126
Width: 1118
Flags: W
LayerCount: 2
Fore
SplineSet
854 699 m 1,0,-1
 518 197 l 1,1,-1
 -31 699 l 1,2,-1
 304 1202 l 1,3,-1
 854 699 l 1,0,-1
699 699 m 1,4,-1
 339 1036 l 1,5,-1
 122 699 l 1,6,-1
 482 364 l 1,7,-1
 699 699 l 1,4,-1
EndSplineSet
EndChar

StartChar: Euro
Encoding: 8364 8364 128
Width: 812
Flags: W
LayerCount: 2
Fore
SplineSet
210 464 m 1,0,1
 252 596 252 596 371.5 697.5 c 128,-1,2
 491 799 491 799 674 799 c 0,3,4
 773 799 773 799 885 769 c 1,5,-1
 845 624 l 1,6,-1
 795 624 l 1,7,8
 801 653 801 653 801 665 c 0,9,10
 801 701 801 701 757 726 c 128,-1,11
 713 751 713 751 649 751 c 0,12,13
 445 751 445 751 349 464 c 1,14,-1
 686 464 l 1,15,-1
 677 420 l 1,16,-1
 337 420 l 2,17,18
 335 418 335 418 332 404 c 2,19,-1
 325 365 l 1,20,-1
 325 360 l 1,21,-1
 665 360 l 1,22,-1
 656 315 l 1,23,-1
 319 315 l 1,24,-1
 319 289 l 2,25,26
 319 178 319 178 370 115.5 c 128,-1,27
 421 53 421 53 512 53 c 0,28,29
 636 53 636 53 765 135 c 1,30,-1
 755 72 l 1,31,32
 604 -18 604 -18 459 -18 c 0,33,34
 324 -18 324 -18 249.5 59 c 128,-1,35
 175 136 175 136 175 274 c 0,36,37
 175 300 175 300 175 315 c 1,38,-1
 111 315 l 1,39,-1
 120 360 l 1,40,-1
 182 360 l 1,41,-1
 182 364 l 1,42,43
 189 401 189 401 194 420 c 1,44,-1
 118 420 l 1,45,-1
 127 464 l 1,46,-1
 210 464 l 1,0,1
EndSplineSet
EndChar

StartChar: guilsinglleft
Encoding: 8249 8249 129
Width: 560
Flags: W
LayerCount: 2
Fore
SplineSet
375 71 m 1,0,1
 304 237 304 237 167 391 c 1,2,3
 358 507 358 507 437 653 c 1,4,-1
 587 711 l 1,5,6
 536 589 536 589 315 441 c 1,7,8
 423 310 423 310 499 138 c 1,9,-1
 375 71 l 1,0,1
EndSplineSet
EndChar

StartChar: guilsinglright
Encoding: 8250 8250 130
Width: 560
Flags: W
LayerCount: 2
Fore
SplineSet
339 711 m 1,0,1
 410 545 410 545 546 391 c 1,2,3
 356 275 356 275 276 128 c 1,4,-1
 128 71 l 1,5,6
 178 193 178 193 400 341 c 1,7,8
 293 470 293 470 215 643 c 1,9,-1
 339 711 l 1,0,1
EndSplineSet
EndChar

StartChar: middot.001
Encoding: 8729 8729 134
Width: 570
Flags: W
LayerCount: 2
Fore
SplineSet
293 475 m 1,0,-1
 74 475 l 1,1,-1
 20 726 l 1,2,-1
 240 726 l 1,3,-1
 293 475 l 1,0,-1
EndSplineSet
EndChar

StartChar: quotesinglbase
Encoding: 8218 8218 135
Width: 418
Flags: W
LayerCount: 2
Fore
SplineSet
103 128 m 1,0,-1
 247 231 l 1,1,-1
 353 90 l 1,2,3
 345 -56 345 -56 262.5 -134.5 c 128,-1,4
 180 -213 180 -213 36 -213 c 1,5,-1
 76 -168 l 1,6,7
 189 -158 189 -158 211 -18 c 1,8,-1
 103 128 l 1,0,-1
EndSplineSet
EndChar

StartChar: quotedblbase
Encoding: 8222 8222 136
Width: 684
Flags: W
LayerCount: 2
Fore
SplineSet
91 92 m 1,0,-1
 204 178 l 1,1,-1
 292 64 l 1,2,3
 270 -213 270 -213 31 -213 c 1,4,-1
 60 -168 l 1,5,6
 166 -148 166 -148 179 -16 c 1,7,-1
 91 92 l 1,0,-1
401 92 m 1,8,-1
 516 178 l 1,9,-1
 602 64 l 1,10,11
 581 -213 581 -213 341 -213 c 1,12,-1
 372 -168 l 1,13,14
 476 -148 476 -148 490 -16 c 1,15,-1
 401 92 l 1,8,-1
EndSplineSet
EndChar

StartChar: perthousand
Encoding: 8240 8240 137
Width: 1571
Flags: W
LayerCount: 2
Fore
SplineSet
385 533 m 0,0,1
 304 533 304 533 254.5 584.5 c 128,-1,2
 205 636 205 636 205 722 c 0,3,4
 205 865 205 865 286.5 965.5 c 128,-1,5
 368 1066 368 1066 483 1066 c 0,6,7
 567 1066 567 1066 617.5 1014.5 c 128,-1,8
 668 963 668 963 668 877 c 0,9,10
 668 733 668 733 585.5 633 c 128,-1,11
 503 533 503 533 385 533 c 0,0,1
311 715 m 0,12,13
 311 578 311 578 398 578 c 0,14,15
 463 578 463 578 517 671.5 c 128,-1,16
 571 765 571 765 571 881 c 0,17,18
 571 1022 571 1022 483 1022 c 0,19,20
 416 1022 416 1022 363.5 928 c 128,-1,21
 311 834 311 834 311 715 c 0,12,13
850 0 m 0,22,23
 769 0 769 0 719.5 51.5 c 128,-1,24
 670 103 670 103 670 189 c 0,25,26
 670 331 670 331 751 432 c 128,-1,27
 832 533 832 533 947 533 c 0,28,29
 1031 533 1031 533 1081.5 481.5 c 128,-1,30
 1132 430 1132 430 1132 344 c 0,31,32
 1132 200 1132 200 1049.5 100 c 128,-1,33
 967 0 967 0 850 0 c 0,22,23
776 182 m 0,34,35
 776 44 776 44 862 44 c 0,36,37
 929 44 929 44 982 138 c 128,-1,38
 1035 232 1035 232 1035 348 c 0,39,40
 1035 490 1035 490 948 490 c 0,41,42
 880 490 880 490 828 395.5 c 128,-1,43
 776 301 776 301 776 182 c 0,34,35
131 -27 m 1,44,-1
 1111 1093 l 1,45,-1
 1206 1093 l 1,46,-1
 225 -27 l 1,47,-1
 131 -27 l 1,44,-1
1376 0 m 0,48,49
 1294 0 1294 0 1244.5 51.5 c 128,-1,50
 1195 103 1195 103 1195 189 c 0,51,52
 1195 331 1195 331 1276.5 432 c 128,-1,53
 1358 533 1358 533 1473 533 c 0,54,55
 1557 533 1557 533 1607.5 481.5 c 128,-1,56
 1658 430 1658 430 1658 344 c 0,57,58
 1658 200 1658 200 1575.5 100 c 128,-1,59
 1493 0 1493 0 1376 0 c 0,48,49
1301 183 m 0,60,61
 1301 44 1301 44 1389 44 c 0,62,63
 1453 44 1453 44 1507 138 c 128,-1,64
 1561 232 1561 232 1561 347 c 0,65,66
 1561 490 1561 490 1473 490 c 0,67,68
 1406 490 1406 490 1353.5 395.5 c 128,-1,69
 1301 301 1301 301 1301 183 c 0,60,61
EndSplineSet
EndChar

StartChar: circumflex
Encoding: 710 710 139
Width: 862
Flags: W
LayerCount: 2
Fore
SplineSet
870 976 m 1,0,-1
 783 923 l 1,1,2
 729 984 729 984 693 1082 c 1,3,4
 652 1032 652 1032 574 953 c 0,5,6
 571 949 571 949 553 931 c 1,7,-1
 452 923 l 1,8,9
 607 1037 607 1037 674 1120 c 1,10,-1
 772 1182 l 1,11,12
 805 1069 805 1069 870 976 c 1,0,-1
EndSplineSet
EndChar

StartChar: cedilla
Encoding: 184 184 140
Width: 862
Flags: W
LayerCount: 2
Fore
SplineSet
456 0 m 1,0,-1
 414 -64 l 1,1,2
 485 -86 485 -86 485 -147 c 0,3,4
 485 -198 485 -198 428.5 -241 c 128,-1,5
 372 -284 372 -284 303 -284 c 0,6,7
 272 -284 272 -284 237 -277 c 1,8,-1
 292 -201 l 1,9,10
 326 -223 326 -223 352 -223 c 0,11,12
 416 -223 416 -223 416 -171 c 0,13,14
 416 -112 416 -112 318 -112 c 1,15,-1
 394 0 l 1,16,-1
 456 0 l 1,0,-1
EndSplineSet
EndChar

StartChar: brokenbar
Encoding: 166 166 141
Width: 355
Flags: W
LayerCount: 2
Fore
SplineSet
86 -213 m 1,0,-1
 203 373 l 1,1,-1
 301 373 l 1,2,-1
 184 -213 l 1,3,-1
 86 -213 l 1,0,-1
238 551 m 1,4,-1
 355 1137 l 1,5,-1
 453 1137 l 1,6,-1
 337 551 l 1,7,-1
 238 551 l 1,4,-1
EndSplineSet
EndChar

StartChar: minus
Encoding: 8722 8722 142
Width: 1490
Flags: W
LayerCount: 2
Fore
SplineSet
1186 572 m 1,0,-1
 60 572 l 1,1,-1
 26 732 l 1,2,-1
 1152 732 l 1,3,-1
 1186 572 l 1,0,-1
EndSplineSet
EndChar

StartChar: multiply
Encoding: 215 215 143
Width: 786
Flags: W
LayerCount: 2
Fore
SplineSet
466 701 m 1,0,-1
 564 621 l 1,1,-1
 410 426 l 1,2,-1
 646 231 l 1,3,-1
 583 151 l 1,4,-1
 347 346 l 1,5,-1
 193 150 l 1,6,-1
 96 230 l 1,7,-1
 250 426 l 1,8,-1
 12 622 l 1,9,-1
 75 702 l 1,10,-1
 313 506 l 1,11,-1
 466 701 l 1,0,-1
EndSplineSet
EndChar

StartChar: onesuperior
Encoding: 185 185 144
Width: 596
Flags: W
LayerCount: 2
Fore
SplineSet
573 1093 m 1,0,-1
 487 657 l 2,1,2
 476 607 476 607 476 589 c 0,3,4
 476 570 476 570 532 563 c 1,5,-1
 591 560 l 1,6,-1
 582 516 l 1,7,-1
 210 516 l 1,8,-1
 218 560 l 1,9,-1
 279 563 l 2,10,11
 328 567 328 567 337.5 578 c 128,-1,12
 347 589 347 589 362 657 c 2,13,-1
 418 938 l 2,14,15
 423 960 423 960 423 978 c 0,16,17
 423 1004 423 1004 355 1013 c 2,18,-1
 310 1021 l 1,19,-1
 319 1066 l 1,20,-1
 573 1093 l 1,0,-1
EndSplineSet
EndChar

StartChar: twosuperior
Encoding: 178 178 145
Width: 596
Flags: W
LayerCount: 2
Fore
SplineSet
187 516 m 1,0,-1
 207 617 l 1,1,2
 362 712 362 712 454.5 803.5 c 128,-1,3
 547 895 547 895 547 952 c 0,4,5
 547 1046 547 1046 463 1046 c 0,6,7
 352 1046 352 1046 331 928 c 1,8,-1
 278 928 l 1,9,-1
 304 1059 l 1,10,11
 400 1093 400 1093 484 1093 c 0,12,13
 674 1093 674 1093 674 959 c 0,14,15
 674 887 674 887 624.5 842 c 128,-1,16
 575 797 575 797 297 617 c 1,17,-1
 607 617 l 1,18,-1
 587 516 l 1,19,-1
 187 516 l 1,0,-1
EndSplineSet
EndChar

StartChar: threesuperior
Encoding: 179 179 146
Width: 596
Flags: W
LayerCount: 2
Fore
SplineSet
185 545 m 1,0,-1
 257 620 l 1,1,2
 337 556 337 556 418 556 c 0,3,4
 460 556 460 556 490.5 587 c 128,-1,5
 521 618 521 618 521 661 c 0,6,7
 521 776 521 776 345 776 c 0,8,9
 323 776 323 776 301 773 c 1,10,-1
 331 859 l 1,11,12
 350 860 350 860 365 860 c 0,13,14
 412 860 412 860 466 849 c 1,15,16
 547 886 547 886 547 961 c 0,17,18
 547 1046 547 1046 454 1046 c 0,19,20
 365 1046 365 1046 342 941 c 1,21,-1
 289 941 l 1,22,-1
 311 1057 l 1,23,24
 398 1093 398 1093 484 1093 c 0,25,26
 662 1093 662 1093 662 984 c 0,27,28
 662 893 662 893 520 829 c 1,29,30
 625 790 625 790 625 693 c 0,31,32
 625 616 625 616 554.5 563 c 128,-1,33
 484 510 484 510 378 510 c 0,34,35
 289 510 289 510 185 545 c 1,0,-1
EndSplineSet
EndChar

StartChar: onehalf
Encoding: 189 189 147
Width: 1262
Flags: W
LayerCount: 2
Fore
SplineSet
528 1093 m 1,0,-1
 442 657 l 2,1,2
 432 606 432 606 432 589 c 0,3,4
 432 570 432 570 488 563 c 1,5,-1
 547 560 l 1,6,-1
 538 516 l 1,7,-1
 165 516 l 1,8,-1
 174 560 l 1,9,-1
 235 563 l 2,10,11
 283 567 283 567 293 578 c 128,-1,12
 303 589 303 589 318 657 c 2,13,-1
 373 938 l 2,14,15
 378 960 378 960 378 978 c 0,16,17
 378 1004 378 1004 310 1013 c 2,18,-1
 265 1021 l 1,19,-1
 274 1066 l 1,20,-1
 528 1093 l 1,0,-1
160 -27 m 1,21,-1
 1180 1093 l 1,22,-1
 1280 1093 l 1,23,-1
 257 -27 l 1,24,-1
 160 -27 l 1,21,-1
778 0 m 1,25,-1
 797 103 l 1,26,27
 952 197 952 197 1045 288 c 128,-1,28
 1138 379 1138 379 1138 436 c 0,29,30
 1138 530 1138 530 1053 530 c 0,31,32
 942 530 942 530 922 413 c 1,33,-1
 868 413 l 1,34,-1
 895 544 l 1,35,36
 989 578 989 578 1075 578 c 0,37,38
 1264 578 1264 578 1264 445 c 0,39,40
 1264 373 1264 373 1214.5 328 c 128,-1,41
 1165 283 1165 283 887 103 c 1,42,-1
 1197 103 l 1,43,-1
 1177 0 l 1,44,-1
 778 0 l 1,25,-1
EndSplineSet
EndChar

StartChar: onequarter
Encoding: 188 188 148
Width: 1262
Flags: W
LayerCount: 2
Fore
SplineSet
546 1093 m 1,0,-1
 460 657 l 2,1,2
 450 606 450 606 450 589 c 0,3,4
 450 570 450 570 506 563 c 1,5,-1
 565 560 l 1,6,-1
 556 516 l 1,7,-1
 183 516 l 1,8,-1
 192 560 l 1,9,-1
 253 563 l 2,10,11
 301 567 301 567 311 578 c 128,-1,12
 321 589 321 589 336 657 c 2,13,-1
 391 938 l 2,14,15
 396 960 396 960 396 978 c 0,16,17
 396 1004 396 1004 328 1013 c 2,18,-1
 283 1021 l 1,19,-1
 292 1066 l 1,20,-1
 546 1093 l 1,0,-1
178 -27 m 1,21,-1
 1198 1093 l 1,22,-1
 1298 1093 l 1,23,-1
 275 -27 l 1,24,-1
 178 -27 l 1,21,-1
981 164 m 1,25,-1
 732 182 l 1,26,-1
 747 261 l 1,27,-1
 1102 578 l 1,28,-1
 1170 578 l 1,29,-1
 1102 236 l 1,30,-1
 1212 229 l 1,31,-1
 1168 149 l 1,32,-1
 1086 157 l 1,33,34
 1076 102 1076 102 1076 74 c 0,35,36
 1076 52 1076 52 1129 49 c 2,37,-1
 1189 45 l 1,38,-1
 1180 0 l 1,39,-1
 820 0 l 1,40,-1
 829 45 l 1,41,-1
 886 49 l 2,42,43
 937 52 937 52 952 64 c 128,-1,44
 967 76 967 76 973 117 c 0,45,46
 976 134 976 134 981 164 c 1,25,-1
997 244 m 1,47,-1
 1038 446 l 1,48,-1
 823 255 l 1,49,-1
 997 244 l 1,47,-1
EndSplineSet
EndChar

StartChar: threequarters
Encoding: 190 190 149
Width: 1262
Flags: W
LayerCount: 2
Fore
SplineSet
174 545 m 1,0,-1
 247 620 l 1,1,2
 326 556 326 556 407 556 c 0,3,4
 448 556 448 556 478.5 587 c 128,-1,5
 509 618 509 618 509 661 c 0,6,7
 509 776 509 776 333 776 c 0,8,9
 311 776 311 776 289 773 c 1,10,-1
 319 859 l 1,11,12
 338 860 338 860 355 860 c 0,13,14
 401 860 401 860 455 849 c 1,15,16
 535 886 535 886 535 961 c 0,17,18
 535 1046 535 1046 442 1046 c 0,19,20
 354 1046 354 1046 330 941 c 1,21,-1
 277 941 l 1,22,-1
 301 1057 l 1,23,24
 387 1093 387 1093 472 1093 c 0,25,26
 651 1093 651 1093 651 984 c 0,27,28
 651 893 651 893 508 829 c 1,29,30
 614 790 614 790 614 693 c 0,31,32
 614 616 614 616 543 563 c 128,-1,33
 472 510 472 510 366 510 c 0,34,35
 277 510 277 510 174 545 c 1,0,-1
178 -27 m 1,36,-1
 1198 1093 l 1,37,-1
 1298 1093 l 1,38,-1
 275 -27 l 1,39,-1
 178 -27 l 1,36,-1
981 164 m 1,40,-1
 732 182 l 1,41,-1
 747 261 l 1,42,-1
 1102 578 l 1,43,-1
 1170 578 l 1,44,-1
 1102 236 l 1,45,-1
 1212 229 l 1,46,-1
 1168 149 l 1,47,-1
 1086 157 l 1,48,49
 1076 102 1076 102 1076 74 c 0,50,51
 1076 52 1076 52 1129 49 c 2,52,-1
 1189 45 l 1,53,-1
 1180 0 l 1,54,-1
 820 0 l 1,55,-1
 829 45 l 1,56,-1
 886 49 l 2,57,58
 938 52 938 52 952.5 64 c 128,-1,59
 967 76 967 76 973 117 c 0,60,61
 976 134 976 134 981 164 c 1,40,-1
997 244 m 1,62,-1
 1038 446 l 1,63,-1
 823 255 l 1,64,-1
 997 244 l 1,62,-1
EndSplineSet
EndChar

StartChar: macron
Encoding: 175 175 150
Width: 1118
Flags: W
LayerCount: 2
Fore
SplineSet
1134 1659 m 1,0,-1
 -16 1659 l 1,1,-1
 -16 1789 l 1,2,-1
 1134 1789 l 1,3,-1
 1134 1659 l 1,0,-1
EndSplineSet
EndChar

StartChar: periodcentered
Encoding: 183 183 151
Width: 724
Flags: W
LayerCount: 2
Fore
SplineSet
482 832 m 1,0,-1
 243 832 l 1,1,-1
 243 1117 l 1,2,-1
 482 1117 l 1,3,-1
 482 832 l 1,0,-1
EndSplineSet
EndChar

StartChar: H22073
Encoding: 9633 9633 152
Width: 1237
Flags: W
LayerCount: 2
Fore
SplineSet
-54 944 m 1,0,-1
 889 944 l 1,1,-1
 1090 0 l 1,2,-1
 146 0 l 1,3,-1
 -54 944 l 1,0,-1
37 868 m 1,4,-1
 205 76 l 1,5,-1
 997 76 l 1,6,-1
 829 868 l 1,7,-1
 37 868 l 1,4,-1
EndSplineSet
EndChar

StartChar: H18543
Encoding: 9642 9642 153
Width: 1089
Flags: W
LayerCount: 2
Fore
SplineSet
674 994 m 1,0,-1
 822 300 l 1,1,-1
 128 300 l 1,2,-1
 -19 994 l 1,3,-1
 674 994 l 1,0,-1
EndSplineSet
EndChar

StartChar: H18551
Encoding: 9643 9643 154
Width: 1089
Flags: W
LayerCount: 2
Fore
SplineSet
676 996 m 1,0,-1
 824 301 l 1,1,-1
 129 301 l 1,2,-1
 -18 996 l 1,3,-1
 676 996 l 1,0,-1
586 882 m 1,4,-1
 119 882 l 1,5,-1
 218 415 l 1,6,-1
 685 415 l 1,7,-1
 586 882 l 1,4,-1
EndSplineSet
EndChar

StartChar: H18533
Encoding: 9679 9679 155
Width: 1339
Flags: W
LayerCount: 2
Fore
SplineSet
51 719 m 0,0,1
 8 920 8 920 119 1061 c 128,-1,2
 230 1202 230 1202 429 1202 c 0,3,4
 629 1202 629 1202 800 1061 c 128,-1,5
 971 920 971 920 1014 719 c 0,6,7
 1056 521 1056 521 945 380 c 128,-1,8
 834 239 834 239 634 239 c 0,9,10
 435 239 435 239 264 380 c 128,-1,11
 93 521 93 521 51 719 c 0,0,1
EndSplineSet
EndChar

StartChar: openbullet
Encoding: 9702 9702 156
Width: 1089
Flags: W
LayerCount: 2
Fore
SplineSet
295 1171 m 0,0,1
 451 1171 451 1171 585 1060.5 c 128,-1,2
 719 950 719 950 752 794 c 256,3,4
 785 638 785 638 698 528 c 128,-1,5
 611 418 611 418 455 418 c 256,6,7
 299 418 299 418 165.5 528 c 128,-1,8
 32 638 32 638 0 794 c 0,9,10
 -33 950 -33 950 52.5 1060.5 c 128,-1,11
 138 1171 138 1171 295 1171 c 0,0,1
319 1057 m 0,12,13
 210 1057 210 1057 150 979.5 c 128,-1,14
 90 902 90 902 113 794 c 0,15,16
 136 685 136 685 229 608.5 c 128,-1,17
 322 532 322 532 430 532 c 256,18,19
 538 532 538 532 599.5 608.5 c 128,-1,20
 661 685 661 685 638 794 c 0,21,22
 615 902 615 902 522 979.5 c 128,-1,23
 429 1057 429 1057 319 1057 c 0,12,13
EndSplineSet
EndChar

StartChar: currency
Encoding: 164 164 157
Width: 932
Flags: W
LayerCount: 2
Fore
SplineSet
769 322 m 1,0,-1
 879 184 l 1,1,-1
 841 153 l 1,2,-1
 732 292 l 1,3,4
 616 214 616 214 504 214 c 0,5,6
 394 214 394 214 310 292 c 1,7,-1
 145 153 l 1,8,-1
 120 184 l 1,9,-1
 286 322 l 1,10,11
 243 397 243 397 243 470 c 0,12,13
 243 613 243 613 369 743 c 1,14,-1
 259 882 l 1,15,-1
 297 913 l 1,16,-1
 407 775 l 1,17,18
 521 852 521 852 634 852 c 0,19,20
 744 852 744 852 828 775 c 1,21,-1
 994 913 l 1,22,-1
 1019 882 l 1,23,-1
 852 743 l 1,24,25
 895 668 895 668 895 596 c 0,26,27
 895 455 895 455 769 322 c 1,0,-1
818 579 m 0,28,29
 818 666 818 666 762 721.5 c 128,-1,30
 706 777 706 777 620 777 c 0,31,32
 502 777 502 777 411 688 c 128,-1,33
 320 599 320 599 320 485 c 0,34,35
 320 400 320 400 376.5 344.5 c 128,-1,36
 433 289 433 289 519 289 c 0,37,38
 635 289 635 289 726.5 377.5 c 128,-1,39
 818 466 818 466 818 579 c 0,28,29
EndSplineSet
EndChar

StartChar: uniFFFC
Encoding: 65532 65532 158
Width: 2048
Flags: W
LayerCount: 2
Fore
SplineSet
2048 1150 m 1,0,-1
 1948 1150 l 1,1,-1
 1948 1373 l 1,2,-1
 1725 1373 l 1,3,-1
 1725 1473 l 1,4,-1
 2048 1473 l 1,5,-1
 2048 1150 l 1,0,-1
1473 1373 m 1,6,-1
 1150 1373 l 1,7,-1
 1150 1473 l 1,8,-1
 1473 1473 l 1,9,-1
 1473 1373 l 1,6,-1
2048 575 m 1,10,-1
 1948 575 l 1,11,-1
 1948 898 l 1,12,-1
 2048 898 l 1,13,-1
 2048 575 l 1,10,-1
1782 611 m 2,14,15
 1782 370 1782 370 1571 370 c 0,16,17
 1485 370 1485 370 1433 415 c 1,18,-1
 1506 494 l 1,19,20
 1531 468 1531 468 1571 468 c 0,21,22
 1666 468 1666 468 1666 606 c 2,23,-1
 1666 1090 l 1,24,-1
 1782 1090 l 1,25,-1
 1782 611 l 2,14,15
898 1373 m 1,26,-1
 575 1373 l 1,27,-1
 575 1473 l 1,28,-1
 898 1473 l 1,29,-1
 898 1373 l 1,26,-1
2048 0 m 1,30,-1
 1725 0 l 1,31,-1
 1725 100 l 1,32,-1
 1948 100 l 1,33,-1
 1948 323 l 1,34,-1
 2048 323 l 1,35,-1
 2048 0 l 1,30,-1
1423 591 m 0,36,37
 1423 382 1423 382 1149 382 c 2,38,-1
 909 382 l 1,39,-1
 909 1090 l 1,40,-1
 1144 1090 l 2,41,42
 1393 1090 1393 1090 1393 904 c 0,43,44
 1393 813 1393 813 1304 759 c 1,45,46
 1423 713 1423 713 1423 591 c 0,36,37
323 1373 m 1,47,-1
 100 1373 l 1,48,-1
 100 1150 l 1,49,-1
 0 1150 l 1,50,-1
 0 1473 l 1,51,-1
 323 1473 l 1,52,-1
 323 1373 l 1,47,-1
1473 0 m 1,53,-1
 1150 0 l 1,54,-1
 1150 100 l 1,55,-1
 1473 100 l 1,56,-1
 1473 0 l 1,53,-1
854 735 m 0,57,58
 854 562 854 562 772 466 c 128,-1,59
 690 370 690 370 537 370 c 256,60,61
 384 370 384 370 303.5 466 c 128,-1,62
 223 562 223 562 223 735 c 0,63,64
 223 910 223 910 303.5 1006 c 128,-1,65
 384 1102 384 1102 537 1102 c 256,66,67
 690 1102 690 1102 772 1006 c 128,-1,68
 854 910 854 910 854 735 c 0,57,58
100 575 m 1,69,-1
 0 575 l 1,70,-1
 0 898 l 1,71,-1
 100 898 l 1,72,-1
 100 575 l 1,69,-1
898 0 m 1,73,-1
 575 0 l 1,74,-1
 575 100 l 1,75,-1
 898 100 l 1,76,-1
 898 0 l 1,73,-1
323 0 m 1,77,-1
 0 0 l 1,78,-1
 0 323 l 1,79,-1
 100 323 l 1,80,-1
 100 100 l 1,81,-1
 323 100 l 1,82,-1
 323 0 l 1,77,-1
1277 893 m 0,83,84
 1277 992 1277 992 1114 992 c 2,85,-1
 1025 992 l 1,86,-1
 1025 798 l 1,87,-1
 1126 798 l 2,88,89
 1277 798 1277 798 1277 893 c 0,83,84
1307 591 m 0,90,91
 1307 700 1307 700 1136 700 c 2,92,-1
 1025 700 l 1,93,-1
 1025 480 l 1,94,-1
 1149 480 l 2,95,96
 1307 480 1307 480 1307 591 c 0,90,91
738 735 m 0,97,98
 738 1004 738 1004 537 1004 c 0,99,100
 339 1004 339 1004 339 735 c 0,101,102
 339 468 339 468 537 468 c 0,103,104
 738 468 738 468 738 735 c 0,97,98
EndSplineSet
EndChar

StartChar: dotbelowcomb
Encoding: 65538 -1 160
Width: 0
Flags: W
LayerCount: 2
Fore
SplineSet
666 -382 m 1,0,-1
 452 -382 l 1,1,-1
 452 -187 l 1,2,-1
 666 -187 l 1,3,-1
 666 -382 l 1,0,-1
EndSplineSet
EndChar

StartChar: zerowidthnonjoiner
Encoding: 8204 8204 175
Width: 0
GlyphClass: 2
Flags: W
LayerCount: 2
Fore
SplineSet
36 1289 m 1,0,-1
 36 -275 l 1,1,-1
 -36 -275 l 1,2,-1
 -36 1289 l 1,3,-1
 36 1289 l 1,0,-1
EndSplineSet
EndChar

StartChar: zerowidthjoiner
Encoding: 8205 8205 176
Width: 0
GlyphClass: 2
Flags: W
LayerCount: 2
Fore
SplineSet
36 -275 m 1,0,-1
 -36 -275 l 1,1,-1
 -36 1114 l 1,2,-1
 -170 978 l 1,3,-1
 -219 1027 l 1,4,-1
 -48 1196 l 1,5,-1
 -219 1364 l 1,6,-1
 -170 1413 l 1,7,-1
 0 1242 l 1,8,-1
 170 1413 l 1,9,-1
 219 1364 l 1,10,-1
 48 1196 l 1,11,-1
 219 1027 l 1,12,-1
 170 978 l 1,13,-1
 36 1114 l 1,14,-1
 36 -275 l 1,0,-1
EndSplineSet
EndChar

StartChar: lefttorightmark
Encoding: 8206 8206 177
Width: 0
GlyphClass: 2
Flags: W
LayerCount: 2
Fore
SplineSet
430 1198 m 1,0,-1
 213 984 l 1,1,-1
 164 1033 l 1,2,-1
 301 1163 l 1,3,-1
 35 1163 l 1,4,-1
 35 -275 l 1,5,-1
 -36 -275 l 1,6,-1
 -36 1234 l 1,7,-1
 301 1234 l 1,8,-1
 164 1364 l 1,9,-1
 213 1413 l 1,10,-1
 430 1198 l 1,0,-1
EndSplineSet
EndChar

StartChar: righttoleftmark
Encoding: 8207 8207 178
Width: 0
GlyphClass: 2
Flags: W
LayerCount: 2
Fore
SplineSet
35 -275 m 1,0,-1
 -36 -275 l 1,1,-1
 -36 1163 l 1,2,-1
 -302 1163 l 1,3,-1
 -165 1033 l 1,4,-1
 -214 984 l 1,5,-1
 -431 1198 l 1,6,-1
 -214 1413 l 1,7,-1
 -165 1364 l 1,8,-1
 -302 1234 l 1,9,-1
 35 1234 l 1,10,-1
 35 -275 l 1,0,-1
EndSplineSet
EndChar

StartChar: afii57388.001
Encoding: 1644 1644 179
Width: 325
GlyphClass: 2
Flags: W
LayerCount: 2
Fore
SplineSet
193 602 m 0,0,1
 188 589 188 589 182 577.5 c 128,-1,2
 176 566 176 566 170 555 c 0,3,4
 160 543 160 543 148.5 542.5 c 128,-1,5
 137 542 137 542 143 555 c 0,6,7
 172 607 172 607 186.5 656.5 c 128,-1,8
 201 706 201 706 201 736 c 1,9,10
 179 741 179 741 165 750.5 c 128,-1,11
 151 760 151 760 143 770.5 c 128,-1,12
 135 781 135 781 132 790 c 128,-1,13
 129 799 129 799 129 804 c 0,14,15
 129 819 129 819 134 834.5 c 128,-1,16
 139 850 139 850 148 862.5 c 128,-1,17
 157 875 157 875 169 883 c 128,-1,18
 181 891 181 891 196 891 c 0,19,20
 250 891 250 891 250 804 c 0,21,22
 250 790 250 790 246 768 c 128,-1,23
 242 746 242 746 235 719 c 128,-1,24
 228 692 228 692 217 662 c 128,-1,25
 206 632 206 632 193 602 c 0,0,1
EndSplineSet
EndChar

StartChar: afii57409
Encoding: 1569 1569 180
Width: 623
GlyphClass: 2
Flags: W
AnchorPoint: "Anchor-3" 345 -285 basechar 0
AnchorPoint: "Anchor-2" 225 690 basechar 0
LayerCount: 2
Fore
SplineSet
294 362 m 1,0,1
 270 388 270 388 252 398 c 128,-1,2
 234 408 234 408 208 408 c 0,3,4
 170 408 170 408 140.5 389 c 128,-1,5
 111 370 111 370 116 350 c 0,6,7
 119 335 119 335 136.5 318 c 128,-1,8
 154 301 154 301 178 288 c 0,9,10
 222 265 222 265 272 265 c 0,11,12
 311 265 311 265 371 281.5 c 128,-1,13
 431 298 431 298 489 325 c 2,14,-1
 507 333 l 1,15,16
 505 309 505 309 499 283 c 128,-1,17
 493 257 493 257 486 241 c 0,18,19
 474 221 474 221 457 208.5 c 128,-1,20
 440 196 440 196 408 185 c 2,21,-1
 375 174 l 2,22,23
 271 139 271 139 220.5 98.5 c 128,-1,24
 170 58 170 58 155 -1 c 1,25,26
 132 26 132 26 126 51 c 0,27,28
 120 78 120 78 127 104.5 c 128,-1,29
 134 131 134 131 158 167 c 1,30,31
 99 197 99 197 76.5 220 c 128,-1,32
 54 243 54 243 46 282 c 0,33,34
 29 362 29 362 93 441 c 0,35,36
 155 518 155 518 232 518 c 0,37,38
 268 518 268 518 296.5 497.5 c 128,-1,39
 325 477 325 477 331 446 c 0,40,41
 341 400 341 400 294 362 c 1,0,1
EndSplineSet
EndChar

StartChar: afii57440
Encoding: 1600 1600 181
Width: 525
GlyphClass: 2
Flags: W
LayerCount: 2
Fore
SplineSet
-29 144 m 1,0,-1
 494 144 l 2,1,2
 523 144 523 144 534.5 141 c 128,-1,3
 546 138 546 138 551 127 c 2,4,-1
 553 123 l 2,5,6
 554 121 554 121 555 120 c 2,7,-1
 573 32 l 2,8,9
 576 17 576 17 563.5 8.5 c 128,-1,10
 551 0 551 0 525 0 c 2,11,-1
 -3 0 l 2,12,13
 -24 0 -24 0 -41 9.5 c 128,-1,14
 -58 19 -58 19 -61 33 c 2,15,-1
 -79 120 l 2,16,17
 -80 121 -80 121 -80 123 c 2,18,-1
 -80 128 l 2,19,20
 -77 144 -77 144 -59 144 c 2,21,-1
 -29 144 l 1,0,-1
EndSplineSet
EndChar

StartChar: afii57453
Encoding: 1613 1613 182
Width: 0
GlyphClass: 4
Flags: W
AnchorPoint: "Anchor-3" 0 0 mark 0
AnchorPoint: "Anchor-1" 0 0 mark 0
LayerCount: 2
Fore
SplineSet
126 271 m 1,0,1
 134 232 134 232 119 201 c 0,2,3
 109 180 109 180 85.5 162 c 128,-1,4
 62 144 62 144 -68 77 c 1,5,-1
 -100 59 l 2,6,7
 -118 49 -118 49 -130 41 c 2,8,-1
 -153 26 l 1,9,-1
 -172 14 l 1,10,-1
 -183 6 l 2,11,12
 -188 3 -188 3 -191 1 c 2,13,-1
 -194 1 l 1,14,-1
 -196 1 l 2,15,16
 -198 3 -198 3 -199 5 c 0,17,18
 -199 7 -199 7 -198 12 c 0,19,20
 -197 15 -197 15 -194 27 c 0,21,22
 -185 63 -185 63 -178 80.5 c 128,-1,23
 -171 98 -171 98 -162 106 c 0,24,25
 -141 123 -141 123 17 203 c 0,26,27
 98 246 98 246 126 271 c 1,0,1
161 106 m 1,28,29
 169 66 169 66 154 35 c 0,30,31
 144 15 144 15 120.5 -3 c 128,-1,32
 97 -21 97 -21 -33 -88 c 1,33,-1
 -65 -107 l 2,34,35
 -83 -117 -83 -117 -95 -124 c 2,36,-1
 -118 -140 l 1,37,-1
 -136 -152 l 1,38,-1
 -148 -160 l 2,39,40
 -153 -163 -153 -163 -155 -165 c 2,41,-1
 -158 -165 l 1,42,-1
 -160 -165 l 2,43,44
 -163 -163 -163 -163 -163 -161 c 0,45,46
 -164 -158 -164 -158 -163 -154 c 0,47,48
 -162 -151 -162 -151 -158 -139 c 0,49,50
 -150 -103 -150 -103 -143 -85.5 c 128,-1,51
 -136 -68 -136 -68 -127 -60 c 0,52,53
 -106 -42 -106 -42 52 38 c 0,54,55
 132 80 132 80 161 106 c 1,28,29
EndSplineSet
EndChar

StartChar: afii57455.001
Encoding: 65539 -1 183
Width: 456
GlyphClass: 4
Flags: W
LayerCount: 2
Fore
SplineSet
60 1600 m 1,0,-1
 73 1505 l 1,1,-1
 -15 1557 l 1,2,3
 -101 1417 -101 1417 -176 1417 c 0,4,5
 -194 1417 -194 1417 -235 1428 c 1,6,7
 -148 1483 -148 1483 -62 1578 c 1,8,9
 -129 1623 -129 1623 -138 1665 c 0,10,11
 -151 1723 -151 1723 -121 1786 c 0,12,13
 -100 1827 -100 1827 -62 1827 c 0,14,15
 4 1827 4 1827 22 1742 c 0,16,17
 32 1696 32 1696 16 1629 c 1,18,19
 31 1620 31 1620 60 1600 c 1,0,-1
-25 1685 m 0,20,21
 -29 1707 -29 1707 -48 1725.5 c 128,-1,22
 -67 1744 -67 1744 -89 1744 c 0,23,24
 -107 1744 -107 1744 -102 1725 c 0,25,26
 -96 1696 -96 1696 -24 1653 c 1,27,28
 -22 1673 -22 1673 -25 1685 c 0,20,21
EndSplineSet
EndChar

StartChar: afii57458.001
Encoding: 65540 -1 184
Width: 347
GlyphClass: 4
Flags: W
LayerCount: 2
Fore
SplineSet
-63 526 m 0,0,1
 -73 573 -73 573 -50 613 c 0,2,3
 -24 654 -24 654 12 654 c 0,4,5
 66 654 66 654 109 608 c 0,6,7
 154 558 154 558 167 489 c 0,8,9
 179 437 179 437 160 411 c 0,10,11
 140 384 140 384 96 384 c 0,12,13
 66 384 66 384 35.5 402 c 128,-1,14
 5 420 5 420 -3 428 c 0,15,16
 -52 472 -52 472 -63 526 c 0,0,1
-19 504 m 1,17,18
 130 443 130 443 132 522 c 1,19,20
 127 545 127 545 109 564 c 1,21,22
 89 578 89 578 68 578 c 0,23,24
 46 578 46 578 16 555 c 0,25,26
 -24 524 -24 524 -19 504 c 1,17,18
EndSplineSet
EndChar

StartChar: afii57381
Encoding: 1642 1642 185
Width: 942
GlyphClass: 2
Flags: W
LayerCount: 2
Fore
SplineSet
228 -121 m 1,0,-1
 457 1228 l 1,1,-1
 543 1197 l 1,2,-1
 315 -153 l 1,3,-1
 228 -121 l 1,0,-1
853 48 m 256,4,5
 861 10 861 10 840 -17 c 128,-1,6
 819 -44 819 -44 781 -44 c 0,7,8
 742 -44 742 -44 709 -17 c 128,-1,9
 676 10 676 10 668 49 c 0,10,11
 661 86 661 86 682 113.5 c 128,-1,12
 703 141 703 141 741 141 c 0,13,14
 780 141 780 141 812.5 113.5 c 128,-1,15
 845 86 845 86 853 48 c 256,4,5
73 1044 m 0,16,17
 81 1007 81 1007 59.5 980 c 128,-1,18
 38 953 38 953 0 953 c 256,19,20
 -38 953 -38 953 -70.5 980 c 128,-1,21
 -103 1007 -103 1007 -111 1046 c 0,22,23
 -120 1084 -120 1084 -98 1111 c 128,-1,24
 -76 1138 -76 1138 -39 1138 c 0,25,26
 0 1138 0 1138 32 1111 c 128,-1,27
 64 1084 64 1084 73 1044 c 0,16,17
EndSplineSet
EndChar

StartChar: afii57461
Encoding: 1643 1643 186
Width: 906
GlyphClass: 2
Flags: W
LayerCount: 2
Fore
SplineSet
210 -479 m 1,0,-1
 611 462 l 1,1,-1
 716 462 l 1,2,-1
 315 -479 l 1,3,-1
 210 -479 l 1,0,-1
EndSplineSet
EndChar

StartChar: afii63167
Encoding: 1645 1645 187
Width: 1029
GlyphClass: 2
Flags: W
LayerCount: 2
Fore
SplineSet
638 671 m 1,0,-1
 972 674 l 1,1,-1
 972 561 l 1,2,-1
 646 563 l 1,3,-1
 893 324 l 1,4,-1
 812 243 l 1,5,-1
 567 496 l 1,6,-1
 573 155 l 1,7,-1
 458 155 l 1,8,-1
 462 496 l 1,9,-1
 217 243 l 1,10,-1
 135 324 l 1,11,-1
 388 565 l 1,12,-1
 58 561 l 1,13,-1
 58 674 l 1,14,-1
 386 671 l 1,15,-1
 156 897 l 1,16,-1
 237 980 l 1,17,-1
 462 752 l 1,18,-1
 458 1082 l 1,19,-1
 573 1082 l 1,20,-1
 567 748 l 1,21,-1
 791 980 l 1,22,-1
 872 897 l 1,23,-1
 638 671 l 1,0,-1
EndSplineSet
EndChar

StartChar: afii57459
Encoding: 65541 -1 188
Width: 467
GlyphClass: 2
Flags: W
LayerCount: 2
Fore
SplineSet
81 408 m 1,0,1
 108 385 108 385 137 385 c 0,2,3
 163 385 163 385 181 399 c 128,-1,4
 199 413 199 413 195 431 c 0,5,6
 190 457 190 457 155 489 c 0,7,8
 121 518 121 518 110 518 c 0,9,10
 97 518 97 518 86 477 c 128,-1,11
 75 436 75 436 81 408 c 1,0,1
276 349 m 1,12,13
 263 337 263 337 256 319 c 0,14,15
 247 299 247 299 239 290.5 c 128,-1,16
 231 282 231 282 214 273 c 0,17,18
 186 259 186 259 143 259 c 0,19,20
 91 259 91 259 61.5 281.5 c 128,-1,21
 32 304 32 304 22 351 c 0,22,23
 3 445 3 445 26 551 c 0,24,25
 51 662 51 662 107 662 c 0,26,27
 139 662 139 662 189.5 621.5 c 128,-1,28
 240 581 240 581 279 523 c 0,29,30
 349 420 349 420 371 314 c 0,31,32
 389 226 389 226 373 158 c 0,33,34
 362 115 362 115 329 87 c 128,-1,35
 296 59 296 59 230 38 c 0,36,37
 178 21 178 21 118.5 11 c 128,-1,38
 59 1 59 1 11 1 c 0,39,40
 -22 1 -22 1 -39.5 9 c 128,-1,41
 -57 17 -57 17 -61 33 c 2,42,-1
 -79 120 l 2,43,44
 -80 121 -80 121 -80 123 c 2,45,-1
 -80 128 l 2,46,47
 -77 144 -77 144 -49 144 c 2,48,-1
 -29 144 l 1,49,-1
 -12 144 l 2,50,51
 20 144 20 144 79.5 150.5 c 128,-1,52
 139 157 139 157 167 164 c 0,53,54
 261 185 261 185 310 224 c 0,55,56
 326 236 326 236 329.5 245 c 128,-1,57
 333 254 333 254 329 270 c 0,58,59
 318 321 318 321 276 349 c 1,12,13
EndSplineSet
EndChar

StartChar: afii57543
Encoding: 65542 -1 189
Width: 419
Flags: W
LayerCount: 2
Fore
SplineSet
-76 108 m 2,0,1
 -81 129 -81 129 -72 137 c 128,-1,2
 -63 145 -63 145 -45 145 c 0,3,4
 9 145 9 145 46.5 155 c 128,-1,5
 84 165 84 165 109 179 c 128,-1,6
 134 193 134 193 148.5 210 c 128,-1,7
 163 227 163 227 172 241.5 c 128,-1,8
 181 256 181 256 188.5 265.5 c 128,-1,9
 196 275 196 275 205 275 c 0,10,11
 215 275 215 275 221 265.5 c 128,-1,12
 227 256 227 256 234 241.5 c 128,-1,13
 241 227 241 227 251 210 c 128,-1,14
 261 193 261 193 279 179 c 128,-1,15
 297 165 297 165 327 155 c 128,-1,16
 357 145 357 145 402 145 c 0,17,18
 420 145 420 145 432.5 137 c 128,-1,19
 445 129 445 129 450 108 c 2,20,-1
 465 38 l 2,21,22
 469 17 469 17 453 8.5 c 128,-1,23
 437 0 437 0 419 0 c 0,24,25
 392 0 392 0 369 5 c 128,-1,26
 346 10 346 10 327 18.5 c 128,-1,27
 308 27 308 27 293 37.5 c 128,-1,28
 278 48 278 48 266 58 c 0,29,30
 241 81 241 81 227 99 c 128,-1,31
 213 117 213 117 203 117 c 256,32,33
 193 117 193 117 180 98.5 c 128,-1,34
 167 80 167 80 144 58.5 c 128,-1,35
 121 37 121 37 86.5 18.5 c 128,-1,36
 52 0 52 0 0 0 c 0,37,38
 -18 0 -18 0 -37.5 8.5 c 128,-1,39
 -57 17 -57 17 -62 38 c 2,40,-1
 -76 108 l 2,0,1
EndSplineSet
EndChar

StartChar: afii57534
Encoding: 1749 1749 190
Width: 535
GlyphClass: 2
Flags: W
LayerCount: 2
Fore
SplineSet
110 201 m 1,0,1
 182 149 182 149 250 149 c 0,2,3
 272 149 272 149 301 157 c 128,-1,4
 330 165 330 165 353 177 c 1,5,-1
 351 189 l 2,6,7
 338 249 338 249 300 286 c 0,8,9
 272 313 272 313 236.5 330.5 c 128,-1,10
 201 348 201 348 174 348 c 0,11,12
 140 348 140 348 125 314 c 128,-1,13
 110 280 110 280 110 201 c 1,0,1
236 0 m 0,14,15
 181 0 181 0 125 43 c 0,16,17
 65 89 65 89 51 158 c 0,18,19
 32 245 32 245 54 367 c 0,20,21
 81 518 81 518 150 518 c 0,22,23
 180 518 180 518 220.5 494 c 128,-1,24
 261 470 261 470 299 429 c 0,25,26
 387 334 387 334 412 219 c 0,27,28
 426 153 426 153 420 95 c 0,29,30
 418 71 418 71 406 61 c 0,31,32
 380 39 380 39 326 19.5 c 128,-1,33
 272 0 272 0 236 0 c 0,14,15
EndSplineSet
EndChar

StartChar: afii64240
Encoding: 65543 -1 191
Width: 351
Flags: W
LayerCount: 2
Fore
SplineSet
99 226 m 1,0,1
 178 161 178 161 243 129 c 1,2,3
 223 98 223 98 212 75 c 128,-1,4
 201 52 201 52 187 5 c 1,5,6
 122 52 122 52 47 91 c 1,7,-1
 35 98 l 1,8,9
 42 109 42 109 47 115 c 2,10,-1
 61 144 l 1,11,-1
 75 172 l 2,12,13
 91 202 91 202 99 226 c 1,0,1
EndSplineSet
EndChar

StartChar: afii64241
Encoding: 65544 -1 192
Width: 430
Flags: W
LayerCount: 2
Fore
SplineSet
58 198 m 1,0,1
 125 151 125 151 169 127 c 2,2,-1
 190 117 l 1,3,4
 217 167 217 167 232 210 c 2,5,-1
 235 217 l 1,6,7
 246 211 246 211 247 208 c 2,8,-1
 270 193 l 2,9,10
 303 171 303 171 339 152 c 2,11,-1
 362 140 l 2,12,13
 367 138 367 138 379 131 c 1,14,15
 345 85 345 85 324 12 c 1,16,17
 262 61 262 61 198 92 c 1,18,19
 176 56 176 56 156 -16 c 1,20,21
 116 20 116 20 41 63 c 2,22,-1
 17 77 l 2,23,24
 14 79 14 79 5 85 c 1,25,26
 41 144 41 144 58 198 c 1,0,1
EndSplineSet
EndChar

StartChar: afii63954
Encoding: 65545 -1 193
Width: 497
Flags: W
LayerCount: 2
Fore
SplineSet
86 205 m 1,0,1
 152 159 152 159 197 134 c 2,2,-1
 216 124 l 1,3,4
 244 174 244 174 259 217 c 1,5,-1
 263 224 l 1,6,7
 273 218 273 218 276 216 c 2,8,-1
 298 201 l 2,9,10
 330 178 330 178 367 159 c 2,11,-1
 390 147 l 2,12,13
 394 145 394 145 408 138 c 1,14,15
 373 92 373 92 351 19 c 1,16,17
 291 68 291 68 225 99 c 1,18,19
 203 63 203 63 184 -8 c 1,20,21
 143 28 143 28 69 70 c 2,22,-1
 44 85 l 2,23,24
 42 86 42 86 32 92 c 1,25,26
 68 152 68 152 86 205 c 1,0,1
103 412 m 1,27,-1
 115 403 l 2,28,29
 186 346 186 346 247 316 c 1,30,31
 226 286 226 286 216 262.5 c 128,-1,32
 206 239 206 239 191 191 c 1,33,34
 125 239 125 239 52 277 c 2,35,-1
 40 283 l 1,36,-1
 49 301 l 1,37,38
 90 374 90 374 103 412 c 1,27,-1
EndSplineSet
EndChar

StartChar: afii57382
Encoding: 65546 -1 194
Width: 445
Flags: W
LayerCount: 2
Fore
SplineSet
289 -2 m 1,0,1
 324 -30 324 -30 361 -54.5 c 128,-1,2
 398 -79 398 -79 440 -100 c 1,3,4
 421 -129 421 -129 409 -157.5 c 128,-1,5
 397 -186 397 -186 389 -217 c 1,6,7
 357 -193 357 -193 324.5 -171.5 c 128,-1,8
 292 -150 292 -150 259 -134 c 1,9,10
 244 -158 244 -158 231 -183.5 c 128,-1,11
 218 -209 218 -209 213 -237 c 1,12,13
 178 -213 178 -213 142.5 -189 c 128,-1,14
 107 -165 107 -165 66 -149 c 1,15,16
 82 -121 82 -121 97.5 -91 c 128,-1,17
 113 -61 113 -61 121 -29 c 1,18,19
 147 -52 147 -52 180 -72.5 c 128,-1,20
 213 -93 213 -93 247 -109 c 1,21,22
 262 -86 262 -86 273 -58.5 c 128,-1,23
 284 -31 284 -31 289 -2 c 1,0,1
281 -202 m 1,24,25
 318 -227 318 -227 356 -252.5 c 128,-1,26
 394 -278 394 -278 434 -296 c 1,27,28
 417 -326 417 -326 398 -358.5 c 128,-1,29
 379 -391 379 -391 370 -426 c 1,30,31
 335 -397 335 -397 299 -371 c 128,-1,32
 263 -345 263 -345 224 -328 c 1,33,34
 264 -271 264 -271 281 -202 c 1,24,25
EndSplineSet
EndChar

StartChar: afii64242
Encoding: 65547 -1 195
Width: 379
Flags: W
LayerCount: 2
Fore
SplineSet
141 489 m 1,0,1
 178 445 178 445 211 385 c 0,2,3
 228 355 228 355 244 315.5 c 128,-1,4
 260 276 260 276 265 251 c 0,5,6
 274 208 274 208 258 132 c 0,7,8
 246 80 246 80 235 53 c 0,9,10
 228 40 228 40 211.5 31.5 c 128,-1,11
 195 23 195 23 155 14 c 0,12,13
 99 2 99 2 45 2 c 2,14,-1
 0 2 l 2,15,16
 -26 2 -26 2 -42 10 c 128,-1,17
 -58 18 -58 18 -61 34 c 2,18,-1
 -80 124 l 1,19,-1
 -80 128 l 2,20,21
 -77 144 -77 144 -49 144 c 2,22,-1
 -10 145 l 1,23,-1
 29 146 l 2,24,25
 98 146 98 146 141 160.5 c 128,-1,26
 184 175 184 175 209 204 c 1,27,28
 189 247 189 247 165.5 278.5 c 128,-1,29
 142 310 142 310 98 355 c 1,30,-1
 141 489 l 1,0,1
EndSplineSet
EndChar

StartChar: afii62881
Encoding: 59416 59416 196
Width: 0
GlyphClass: 4
Flags: W
AnchorPoint: "Anchor-2" 0 0 mark 0
AnchorPoint: "Anchor-0" 0 0 mark 0
LayerCount: 2
Fore
SplineSet
57 686 m 1,0,1
 62 636 62 636 44 610 c 128,-1,2
 26 584 26 584 -34 555 c 2,3,-1
 -75 534 l 2,4,5
 -116 513 -116 513 -158 490 c 2,6,-1
 -187 476 l 2,7,8
 -228 453 -228 453 -241 444 c 0,9,10
 -259 431 -259 431 -265 430 c 0,11,12
 -278 423 -278 423 -282 419 c 0,13,14
 -286 411 -286 411 -288 411 c 0,15,16
 -293 411 -293 411 -293 420 c 0,17,18
 -296 430 -296 430 -292 450 c 128,-1,19
 -288 470 -288 470 -282 481 c 0,20,21
 -275 493 -275 493 -255.5 506.5 c 128,-1,22
 -236 520 -236 520 -191 541 c 2,23,-1
 -159 558 l 2,24,25
 -147 564 -147 564 -126 575 c 2,26,-1
 -94 592 l 1,27,-1
 -62 609 l 2,28,29
 -42 619 -42 619 -28 628 c 2,30,-1
 3 648 l 2,31,32
 25 662 25 662 44 676 c 0,33,34
 48 680 48 680 57 686 c 1,0,1
86 558 m 1,35,36
 90 509 90 509 72 483 c 128,-1,37
 54 457 54 457 -5 427 c 2,38,-1
 -46 407 l 2,39,40
 -88 385 -88 385 -130 363 c 2,41,-1
 -158 348 l 2,42,43
 -201 326 -201 326 -213 317 c 0,44,45
 -232 305 -232 305 -236 303 c 0,46,47
 -249 296 -249 296 -253 291 c 0,48,49
 -258 284 -258 284 -259 284 c 0,50,51
 -263 284 -263 284 -265 292 c 0,52,53
 -267 303 -267 303 -263.5 323 c 128,-1,54
 -260 343 -260 343 -254 353 c 0,55,56
 -247 366 -247 366 -227 379.5 c 128,-1,57
 -207 393 -207 393 -164 414 c 2,58,-1
 -130 431 l 2,59,60
 -119 437 -119 437 -98 447 c 2,61,-1
 -65 465 l 1,62,-1
 -34 481 l 2,63,64
 -14 492 -14 492 0 501 c 2,65,-1
 30 521 l 2,66,67
 53 535 53 535 73 549 c 0,68,69
 77 552 77 552 86 558 c 1,35,36
105 306 m 1,70,71
 105 298 105 298 106 286 c 2,72,-1
 111 249 l 1,73,-1
 117 217 l 2,74,75
 122 191 122 191 123.5 159.5 c 128,-1,76
 125 128 125 128 121 109 c 0,77,78
 109 50 109 50 58 50 c 0,79,80
 33 50 33 50 -6 68 c 1,81,82
 -54 -3 -54 -3 -114 -3 c 0,83,84
 -145 -3 -145 -3 -168 18.5 c 128,-1,85
 -191 40 -191 40 -199 75 c 0,86,87
 -209 122 -209 122 -197 173 c 0,88,89
 -188 222 -188 222 -169 222 c 0,90,91
 -160 222 -160 222 -157 208 c 0,92,93
 -155 197 -155 197 -155 182 c 2,94,-1
 -155 164 l 2,95,96
 -156 149 -156 149 -153 132 c 0,97,98
 -144 93 -144 93 -114 93 c 0,99,100
 -87 93 -87 93 -72 114 c 128,-1,101
 -57 135 -57 135 -56 174 c 2,102,-1
 -56 187 l 2,103,104
 -55 210 -55 210 -47.5 224.5 c 128,-1,105
 -40 239 -40 239 -30 239 c 256,106,107
 -20 239 -20 239 -17 226 c 0,108,109
 -17 223 -17 223 -17 218 c 2,110,-1
 -16 200 l 2,111,112
 -16 196 -16 196 -14 190 c 0,113,114
 -5 145 -5 145 55 145 c 0,115,116
 79 145 79 145 75 166 c 0,117,118
 74 172 74 172 71 180 c 0,119,120
 62 203 62 203 59 216 c 0,121,122
 52 244 52 244 60 263 c 128,-1,123
 68 282 68 282 91 297 c 2,124,-1
 101 305 l 1,125,-1
 105 306 l 1,70,71
EndSplineSet
Ligature2: "'ccmp' Glyph Composition/Decomposition in Arabic lookup 4 subtable" afii57457 afii57451
EndChar

StartChar: afii57373
Encoding: 65548 -1 200
Width: 420
Flags: W
LayerCount: 2
Fore
SplineSet
99 411 m 0,0,1
 91 407 91 407 82 399 c 128,-1,2
 73 391 73 391 65 382.5 c 128,-1,3
 57 374 57 374 52 364 c 128,-1,4
 47 354 47 354 45 345 c 1,5,6
 38 351 38 351 33.5 360.5 c 128,-1,7
 29 370 29 370 28.5 383 c 128,-1,8
 28 396 28 396 32.5 410 c 128,-1,9
 37 424 37 424 48 437 c 1,10,11
 19 449 19 449 5 464 c 128,-1,12
 -9 479 -9 479 -14 500 c 0,13,14
 -18 521 -18 521 -11 543.5 c 128,-1,15
 -4 566 -4 566 10 585 c 128,-1,16
 24 604 24 604 43.5 617 c 128,-1,17
 63 630 63 630 85 630 c 0,18,19
 106 630 106 630 122.5 619 c 128,-1,20
 139 608 139 608 143 591 c 0,21,22
 145 577 145 577 138.5 564.5 c 128,-1,23
 132 552 132 552 122 544 c 1,24,25
 111 558 111 558 98.5 563.5 c 128,-1,26
 86 569 86 569 75 569 c 0,27,28
 63 569 63 569 52.5 566 c 128,-1,29
 42 563 42 563 35.5 558 c 128,-1,30
 29 553 29 553 25.5 547.5 c 128,-1,31
 22 542 22 542 23 537 c 0,32,33
 25 531 25 531 32 523 c 128,-1,34
 39 515 39 515 50.5 507.5 c 128,-1,35
 62 500 62 500 77 495 c 128,-1,36
 92 490 92 490 110 490 c 0,37,38
 124 490 124 490 141 493.5 c 128,-1,39
 158 497 158 497 175 502.5 c 128,-1,40
 192 508 192 508 208.5 514.5 c 128,-1,41
 225 521 225 521 239 528 c 1,42,43
 237 506 237 506 233 491.5 c 128,-1,44
 229 477 229 477 221 467.5 c 128,-1,45
 213 458 213 458 200 452 c 128,-1,46
 187 446 187 446 167 441 c 0,47,48
 160 438 160 438 151 434.5 c 128,-1,49
 142 431 142 431 132.5 426.5 c 128,-1,50
 123 422 123 422 114.5 418 c 128,-1,51
 106 414 106 414 99 411 c 0,0,1
EndSplineSet
EndChar

StartChar: afii57374
Encoding: 65549 -1 201
Width: 624
GlyphClass: 2
Flags: W
LayerCount: 2
Fore
SplineSet
306 230 m 0,0,1
 316 229 316 229 339 236.5 c 128,-1,2
 362 244 362 244 374 251 c 0,3,4
 426 281 426 281 416 328 c 0,5,6
 407 368 407 368 369 401.5 c 128,-1,7
 331 435 331 435 294 435 c 0,8,9
 247 435 247 435 208 400 c 0,10,11
 190 385 190 385 180.5 365 c 128,-1,12
 171 345 171 345 174 330 c 0,13,14
 179 305 179 305 228 268 c 128,-1,15
 277 231 277 231 306 230 c 0,0,1
652 119 m 2,16,-1
 671 32 l 2,17,18
 678 0 678 0 618 0 c 0,19,20
 554 0 554 0 493 14 c 0,21,22
 450 25 450 25 420 35 c 128,-1,23
 390 45 390 45 328 73 c 0,24,25
 285 91 285 91 271 91 c 0,26,27
 259 91 259 91 209 65 c 2,28,-1
 175 47 l 2,29,30
 133 27 133 27 87 13.5 c 128,-1,31
 41 0 41 0 10 0 c 0,32,33
 -54 0 -54 0 -61 33 c 2,34,-1
 -79 120 l 2,35,36
 -80 121 -80 121 -80 123 c 2,37,-1
 -80 127 l 2,38,39
 -77 144 -77 144 -49 144 c 2,40,-1
 -29 144 l 2,41,42
 -6 144 -6 144 36.5 149 c 128,-1,43
 79 154 79 154 98 158 c 0,44,45
 148 170 148 170 144 189 c 0,46,47
 144 193 144 193 142 199 c 2,48,-1
 132 221 l 2,49,50
 128 231 128 231 124 247 c 0,51,52
 114 298 114 298 129 357.5 c 128,-1,53
 144 417 144 417 185 481 c 0,54,55
 219 534 219 534 266.5 573 c 128,-1,56
 314 612 314 612 344 612 c 0,57,58
 377 612 377 612 414 552 c 0,59,60
 429 526 429 526 443 488.5 c 128,-1,61
 457 451 457 451 465 420 c 0,62,63
 473 380 473 380 471.5 338.5 c 128,-1,64
 470 297 470 297 460 270 c 2,65,-1
 443 228 l 2,66,67
 433 201 433 201 431 198 c 0,68,69
 426 186 426 186 427 179 c 0,70,71
 430 166 430 166 458 157 c 0,72,73
 475 153 475 153 526 148 c 128,-1,74
 577 143 577 143 611 143 c 0,75,76
 640 143 640 143 650 126 c 1,77,-1
 651 122 l 2,78,79
 652 121 652 121 652 119 c 2,16,-1
EndSplineSet
EndChar

StartChar: afii57375
Encoding: 1619 1619 202
Width: 603
GlyphClass: 2
Flags: W
LayerCount: 2
Fore
SplineSet
-59 1036 m 0,0,1
 -49 1036 -49 1036 -13 1027 c 0,2,3
 31 1016 31 1016 79 1016 c 0,4,5
 162 1016 162 1016 233 1044.5 c 128,-1,6
 304 1073 304 1073 327 1116 c 0,7,8
 331 1123 331 1123 335 1123 c 2,9,-1
 338 1122 l 2,10,11
 340 1121 340 1121 340 1117 c 0,12,13
 345 1098 345 1098 335 1067 c 128,-1,14
 325 1036 325 1036 308 1015 c 0,15,16
 274 972 274 972 198.5 944 c 128,-1,17
 123 916 123 916 44 916 c 0,18,19
 14 916 14 916 -25 923 c 2,20,-1
 -50 926 l 2,21,22
 -59 928 -59 928 -64 928 c 0,23,24
 -95 928 -95 928 -133 882 c 0,25,26
 -138 877 -138 877 -141 877 c 0,27,28
 -147 877 -147 877 -150 891 c 0,29,30
 -156 920 -156 920 -138 968 c 0,31,32
 -124 999 -124 999 -103.5 1017.5 c 128,-1,33
 -83 1036 -83 1036 -59 1036 c 0,0,1
EndSplineSet
EndChar

StartChar: afii57471
Encoding: 65550 -1 203
Width: 1496
Flags: W
LayerCount: 2
Fore
SplineSet
1263 121 m 1,0,1
 1209 79 1209 79 1144.5 44 c 128,-1,2
 1080 9 1080 9 1028 -7 c 0,3,4
 878 -54 878 -54 651 -54 c 0,5,6
 412 -54 412 -54 251 16 c 0,7,8
 160 55 160 55 103 117.5 c 128,-1,9
 46 180 46 180 29 259 c 0,10,11
 8 357 8 357 38 454 c 0,12,13
 58 518 58 518 75 518 c 0,14,15
 82 518 82 518 84 510 c 0,16,17
 85 503 85 503 81 482 c 0,18,19
 71 414 71 414 80 371 c 0,20,21
 107 247 107 247 259 178 c 0,22,23
 339 141 339 141 452.5 120.5 c 128,-1,24
 566 100 566 100 685 100 c 0,25,26
 850 100 850 100 1000.5 130.5 c 128,-1,27
 1151 161 1151 161 1196 203 c 0,28,29
 1213 219 1213 219 1211 243 c 0,30,31
 1209 286 1209 286 1225 286 c 0,32,33
 1235 286 1235 286 1240.5 278.5 c 128,-1,34
 1246 271 1246 271 1260 239 c 0,35,36
 1279 199 1279 199 1300.5 181.5 c 128,-1,37
 1322 164 1322 164 1367 153 c 0,38,39
 1415 142 1415 142 1467 142 c 2,40,-1
 1482 142 l 2,41,42
 1512 142 1512 142 1523 125 c 1,43,-1
 1524 121 l 2,44,45
 1525 119 1525 119 1526 117 c 2,46,-1
 1544 31 l 2,47,48
 1547 17 1547 17 1536 8 c 128,-1,49
 1525 -1 1525 -1 1506 -1 c 0,50,51
 1422 -1 1422 -1 1377 13 c 0,52,53
 1334 26 1334 26 1310.5 48 c 128,-1,54
 1287 70 1287 70 1263 121 c 1,0,1
EndSplineSet
EndChar

StartChar: afii52258
Encoding: 65551 -1 204
Width: 1603
GlyphClass: 2
Flags: W
LayerCount: 2
Fore
SplineSet
1157 333 m 0,0,1
 1163 304 1163 304 1206 270 c 0,2,3
 1226 255 1226 255 1250 242.5 c 128,-1,4
 1274 230 1274 230 1285 230 c 0,5,6
 1294 230 1294 230 1315.5 236.5 c 128,-1,7
 1337 243 1337 243 1349 249 c 0,8,9
 1407 281 1407 281 1397 328 c 0,10,11
 1389 361 1389 361 1360 393 c 0,12,13
 1321 435 1321 435 1271 435 c 0,14,15
 1231 435 1231 435 1190 401 c 0,16,17
 1149 368 1149 368 1157 333 c 0,0,1
1631 119 m 2,18,-1
 1650 33 l 2,19,20
 1657 0 1657 0 1598 0 c 0,21,22
 1530 0 1530 0 1465 16 c 128,-1,23
 1400 32 1400 32 1320 69 c 0,24,25
 1264 94 1264 94 1248 94 c 0,26,27
 1234 94 1234 94 1170 65 c 0,28,29
 1096 32 1096 32 1038.5 16.5 c 128,-1,30
 981 1 981 1 885 -12 c 0,31,32
 769 -28 769 -28 654 -28 c 0,33,34
 90 -28 90 -28 28 266 c 0,35,36
 9 351 9 351 40 454 c 0,37,38
 58 519 58 519 76 519 c 0,39,40
 84 519 84 519 86 511 c 0,41,42
 86 503 86 503 85 490 c 2,43,-1
 81 462 l 2,44,45
 74 410 74 410 82 371 c 0,46,47
 106 259 106 259 268.5 194 c 128,-1,48
 431 129 431 129 684 129 c 0,49,50
 752 129 752 129 862 136 c 128,-1,51
 972 143 972 143 1012 149 c 2,52,-1
 1070 159 l 2,53,54
 1128 168 1128 168 1122 193 c 0,55,56
 1121 196 1121 196 1116 208 c 0,57,58
 1110 219 1110 219 1106 238 c 0,59,60
 1081 355 1081 355 1170 487 c 0,61,62
 1206 540 1206 540 1250 575 c 128,-1,63
 1294 610 1294 610 1323 610 c 0,64,65
 1358 610 1358 610 1393 553 c 0,66,67
 1430 490 1430 490 1445 416 c 0,68,69
 1456 365 1456 365 1450.5 318.5 c 128,-1,70
 1445 272 1445 272 1420 219 c 0,71,72
 1406 185 1406 185 1407 181 c 0,73,74
 1410 164 1410 164 1449 156 c 0,75,76
 1490 148 1490 148 1537 145 c 2,77,-1
 1571 144 l 1,78,-1
 1589 144 l 2,79,80
 1618 144 1618 144 1628 127 c 2,81,-1
 1630 123 l 2,82,83
 1631 121 1631 121 1631 119 c 2,18,-1
EndSplineSet
EndChar

StartChar: afii62889
Encoding: 65552 -1 210
Width: 1019
Flags: W
LayerCount: 2
Fore
SplineSet
815 134 m 1,0,1
 781 236 781 236 706 236 c 0,2,3
 682 236 682 236 667.5 223.5 c 128,-1,4
 653 211 653 211 657 192 c 0,5,6
 662 166 662 166 713 147 c 0,7,8
 748 134 748 134 815 134 c 1,0,1
856 0 m 1,9,10
 826 0 826 0 782 4 c 128,-1,11
 738 8 738 8 719 13 c 0,12,13
 621 37 621 37 604 118 c 0,14,15
 587 198 587 198 639 295 c 0,16,17
 677 364 677 364 719 364 c 0,18,19
 763 364 763 364 805.5 312 c 128,-1,20
 848 260 848 260 901 144 c 1,21,-1
 987 144 l 1,22,-1
 1007 143 l 2,23,24
 1036 143 1036 143 1045 126 c 2,25,-1
 1047 122 l 2,26,27
 1049 121 1049 121 1049 119 c 2,28,-1
 1067 32 l 2,29,30
 1070 20 1070 20 1061 11 c 0,31,32
 1053 4 1053 4 1040.5 2 c 128,-1,33
 1028 0 1028 0 986 0 c 2,34,-1
 919 0 l 1,35,36
 920 -98 920 -98 894.5 -167 c 128,-1,37
 869 -236 869 -236 809 -293 c 0,38,39
 748 -351 748 -351 657.5 -386 c 128,-1,40
 567 -421 567 -421 477 -421 c 0,41,42
 300 -421 300 -421 190 -294 c 0,43,44
 121 -217 121 -217 99 -115 c 0,45,46
 75 1 75 1 109 105 c 0,47,48
 121 144 121 144 137.5 172 c 128,-1,49
 154 200 154 200 164 200 c 0,50,51
 172 200 172 200 174 191 c 0,52,53
 176 186 176 186 173 178 c 0,54,55
 171 175 171 175 167 159 c 0,56,57
 165 150 165 150 159 134 c 0,58,59
 126 33 126 33 144 -56 c 0,60,61
 155 -103 155 -103 180 -139 c 128,-1,62
 205 -175 205 -175 250 -207 c 0,63,64
 299 -240 299 -240 358.5 -260 c 128,-1,65
 418 -280 418 -280 472 -280 c 0,66,67
 523 -280 523 -280 592.5 -262 c 128,-1,68
 662 -244 662 -244 730 -213 c 0,69,70
 804 -178 804 -178 842 -138 c 1,71,72
 853 -116 853 -116 856 -87 c 128,-1,73
 859 -58 859 -58 856 0 c 1,9,10
EndSplineSet
EndChar

StartChar: afii62887
Encoding: 65553 -1 211
Width: 1440
Flags: W
LayerCount: 2
Fore
SplineSet
1167 445 m 1,0,-1
 1202 595 l 1,1,2
 1211 585 1211 585 1231.5 557 c 128,-1,3
 1252 529 1252 529 1265 508 c 0,4,5
 1306 441 1306 441 1318 385 c 0,6,7
 1332 320 1332 320 1315 229 c 0,8,9
 1306 190 1306 190 1295.5 168 c 128,-1,10
 1285 146 1285 146 1267 132 c 0,11,12
 1221 98 1221 98 1126 64 c 128,-1,13
 1031 30 1031 30 926 9 c 0,14,15
 845 -7 845 -7 746 -17.5 c 128,-1,16
 647 -28 647 -28 568 -28 c 0,17,18
 330 -28 330 -28 209 29 c 0,19,20
 134 64 134 64 92 113.5 c 128,-1,21
 50 163 50 163 35 234 c 0,22,23
 12 339 12 339 52 431 c 0,24,25
 71 477 71 477 89 477 c 0,26,27
 102 477 102 477 105 466 c 0,28,29
 106 460 106 460 99 445 c 0,30,31
 75 392 75 392 85 349 c 0,32,33
 92 313 92 313 121.5 277 c 128,-1,34
 151 241 151 241 195 213 c 0,35,36
 333 129 333 129 560 129 c 0,37,38
 848 129 848 129 1121 220 c 0,39,40
 1276 271 1276 271 1271 298 c 0,41,42
 1266 317 1266 317 1237.5 357.5 c 128,-1,43
 1209 398 1209 398 1167 445 c 1,0,-1
EndSplineSet
EndChar

StartChar: afii62888
Encoding: 1697 1697 212
Width: 1406
GlyphClass: 2
Flags: W
LayerCount: 2
Fore
SplineSet
1207 362 m 1,0,1
 1196 349 1196 349 1185 327 c 0,2,3
 1176 306 1176 306 1168 298.5 c 128,-1,4
 1160 291 1160 291 1144 283 c 0,5,6
 1115 270 1115 270 1074 270 c 0,7,8
 1019 270 1019 270 992 294 c 128,-1,9
 965 318 965 318 952 378 c 0,10,11
 934 465 934 465 960 569 c 0,12,13
 988 674 988 674 1039 674 c 0,14,15
 1068 674 1068 674 1110 643 c 128,-1,16
 1152 612 1152 612 1191 562 c 0,17,18
 1277 454 1277 454 1305 317 c 0,19,20
 1315 277 1315 277 1316 234 c 128,-1,21
 1317 191 1317 191 1312 166 c 0,22,23
 1302 120 1302 120 1261 86 c 128,-1,24
 1220 52 1220 52 1143 25 c 0,25,26
 1067 -1 1067 -1 937 -12 c 0,27,28
 765 -27 765 -27 649 -27 c 2,29,-1
 602 -27 l 2,30,31
 481 -27 481 -27 402 -18 c 128,-1,32
 323 -9 323 -9 260 11 c 0,33,34
 163 43 163 43 107.5 97.5 c 128,-1,35
 52 152 52 152 35 234 c 0,36,37
 14 329 14 329 45 416 c 0,38,39
 68 477 68 477 91 477 c 0,40,41
 102 477 102 477 105 467 c 0,42,43
 106 462 106 462 101 454 c 2,44,-1
 93 435 l 2,45,46
 75 393 75 393 84 352 c 0,47,48
 95 303 95 303 139 259 c 128,-1,49
 183 215 183 215 253 184 c 0,50,51
 326 153 326 153 408 140.5 c 128,-1,52
 490 128 490 128 629 128 c 0,53,54
 737 128 737 128 879 138.5 c 128,-1,55
 1021 149 1021 149 1082 162 c 0,56,57
 1147 175 1147 175 1195.5 195.5 c 128,-1,58
 1244 216 1244 216 1259 237 c 0,59,60
 1267 251 1267 251 1261 281 c 0,61,62
 1249 334 1249 334 1207 362 c 1,0,1
1012 420 m 1,63,64
 1046 396 1046 396 1075 396 c 0,65,66
 1098 396 1098 396 1112.5 413.5 c 128,-1,67
 1127 431 1127 431 1122 452 c 0,68,69
 1118 474 1118 474 1086 503 c 0,70,71
 1074 514 1074 514 1060 522.5 c 128,-1,72
 1046 531 1046 531 1040 531 c 0,73,74
 1028 531 1028 531 1019.5 498 c 128,-1,75
 1011 465 1011 465 1012 420 c 1,63,64
EndSplineSet
Substitution2: "'fina' Terminal Forms in Arabic lookup 3 subtable" afii52258
Substitution2: "'medi' Medial Forms in Arabic lookup 2 subtable" afii57374
Substitution2: "'init' Initial Forms in Arabic lookup 1 subtable" afii57459
EndChar

StartChar: afii57567
Encoding: 1705 1705 219
Width: 1451
GlyphClass: 2
Flags: W
AnchorPoint: "Anchor-3" 570 -510 basechar 0
AnchorPoint: "Anchor-2" 360 915 basechar 0
LayerCount: 2
Fore
SplineSet
1158 976 m 1,0,1
 1087 953 1087 953 1019.5 927.5 c 128,-1,2
 952 902 952 902 892 875.5 c 128,-1,3
 832 849 832 849 781.5 824 c 128,-1,4
 731 799 731 799 695.5 776.5 c 128,-1,5
 660 754 660 754 640.5 737.5 c 128,-1,6
 621 721 621 721 623 712 c 0,7,8
 627 689 627 689 644.5 675 c 128,-1,9
 662 661 662 661 708 646 c 0,10,11
 761 628 761 628 826 593.5 c 128,-1,12
 891 559 891 559 953 508.5 c 128,-1,13
 1015 458 1015 458 1062.5 392.5 c 128,-1,14
 1110 327 1110 327 1127 247 c 0,15,16
 1133 213 1133 213 1129 182.5 c 128,-1,17
 1125 152 1125 152 1111.5 125.5 c 128,-1,18
 1098 99 1098 99 1075 78.5 c 128,-1,19
 1052 58 1052 58 1022 45 c 0,20,21
 928 6 928 6 813 -10.5 c 128,-1,22
 698 -27 698 -27 569 -27 c 0,23,24
 525 -27 525 -27 471.5 -21.5 c 128,-1,25
 418 -16 418 -16 362 -3 c 128,-1,26
 306 10 306 10 251.5 31.5 c 128,-1,27
 197 53 197 53 151.5 85.5 c 128,-1,28
 106 118 106 118 73 162 c 128,-1,29
 40 206 40 206 28 264 c 0,30,31
 18 311 18 311 21 357.5 c 128,-1,32
 24 404 24 404 33 440.5 c 128,-1,33
 42 477 42 477 54 499.5 c 128,-1,34
 66 522 66 522 74 522 c 0,35,36
 85 522 85 522 85 510.5 c 128,-1,37
 85 499 85 499 81.5 478.5 c 128,-1,38
 78 458 78 458 76 430.5 c 128,-1,39
 74 403 74 403 81 371 c 0,40,41
 97 298 97 298 147 251.5 c 128,-1,42
 197 205 197 205 268 178 c 128,-1,43
 339 151 339 151 421.5 140.5 c 128,-1,44
 504 130 504 130 585 130 c 0,45,46
 638 130 638 130 696.5 133.5 c 128,-1,47
 755 137 755 137 811 144 c 128,-1,48
 867 151 867 151 916.5 160.5 c 128,-1,49
 966 170 966 170 1003 183.5 c 128,-1,50
 1040 197 1040 197 1060 212.5 c 128,-1,51
 1080 228 1080 228 1076 247 c 0,52,53
 1074 259 1074 259 1043.5 292 c 128,-1,54
 1013 325 1013 325 963.5 365.5 c 128,-1,55
 914 406 914 406 847 447.5 c 128,-1,56
 780 489 780 489 705 520 c 0,57,58
 668 535 668 535 646 550.5 c 128,-1,59
 624 566 624 566 611 585 c 128,-1,60
 598 604 598 604 591 628.5 c 128,-1,61
 584 653 584 653 577 685 c 0,62,63
 569 719 569 719 568.5 741 c 128,-1,64
 568 763 568 763 576 779.5 c 128,-1,65
 584 796 584 796 600.5 811.5 c 128,-1,66
 617 827 617 827 647 848 c 0,67,68
 684 876 684 876 737.5 909 c 128,-1,69
 791 942 791 942 861 978 c 128,-1,70
 931 1014 931 1014 1017.5 1051.5 c 128,-1,71
 1104 1089 1104 1089 1208 1125 c 1,72,-1
 1158 976 l 1,0,1
EndSplineSet
Substitution2: "'fina' Terminal Forms in Arabic lookup 3 subtable" afii62964
Substitution2: "'medi' Medial Forms in Arabic lookup 2 subtable" afii52306
Substitution2: "'init' Initial Forms in Arabic lookup 1 subtable" afii52305
EndChar

StartChar: afii62964
Encoding: 64399 64399 220
Width: 1607
GlyphClass: 2
Flags: W
AnchorPoint: "Anchor-3" 615 -510 basechar 0
AnchorPoint: "Anchor-2" 360 1035 basechar 0
LayerCount: 2
Fore
SplineSet
1653 38 m 2,0,1
 1658 17 1658 17 1642 8.5 c 128,-1,2
 1626 0 1626 0 1607 0 c 0,3,4
 1583 0 1583 0 1554 9.5 c 128,-1,5
 1525 19 1525 19 1493.5 36 c 128,-1,6
 1462 53 1462 53 1429 76 c 128,-1,7
 1396 99 1396 99 1361.5 126 c 128,-1,8
 1327 153 1327 153 1293.5 182.5 c 128,-1,9
 1260 212 1260 212 1227.5 239.5 c 128,-1,10
 1195 267 1195 267 1164 292 c 128,-1,11
 1133 317 1133 317 1106 336 c 1,12,13
 1115 245 1115 245 1110 190 c 128,-1,14
 1105 135 1105 135 1084.5 102 c 128,-1,15
 1064 69 1064 69 1026.5 50.5 c 128,-1,16
 989 32 989 32 933 15 c 0,17,18
 896 5 896 5 849 -3 c 128,-1,19
 802 -11 802 -11 752.5 -16 c 128,-1,20
 703 -21 703 -21 655 -24 c 128,-1,21
 607 -27 607 -27 569 -27 c 0,22,23
 525 -27 525 -27 471.5 -21.5 c 128,-1,24
 418 -16 418 -16 362 -3 c 128,-1,25
 306 10 306 10 251.5 31.5 c 128,-1,26
 197 53 197 53 151.5 85.5 c 128,-1,27
 106 118 106 118 73 162 c 128,-1,28
 40 206 40 206 28 264 c 0,29,30
 18 311 18 311 21 357.5 c 128,-1,31
 24 404 24 404 33 440.5 c 128,-1,32
 42 477 42 477 54 499.5 c 128,-1,33
 66 522 66 522 74 522 c 0,34,35
 85 522 85 522 85 510.5 c 128,-1,36
 85 499 85 499 81.5 478.5 c 128,-1,37
 78 458 78 458 76 430.5 c 128,-1,38
 74 403 74 403 81 371 c 0,39,40
 91 323 91 323 117.5 286 c 128,-1,41
 144 249 144 249 181.5 222.5 c 128,-1,42
 219 196 219 196 266 178 c 128,-1,43
 313 160 313 160 364 149.5 c 128,-1,44
 415 139 415 139 469 134.5 c 128,-1,45
 523 130 523 130 573 130 c 0,46,47
 697 130 697 130 790 142.5 c 128,-1,48
 883 155 883 155 943 176 c 128,-1,49
 1003 197 1003 197 1030 224.5 c 128,-1,50
 1057 252 1057 252 1051 282 c 0,51,52
 1045 311 1045 311 1032 333 c 128,-1,53
 1019 355 1019 355 992 376 c 128,-1,54
 965 397 965 397 917 419.5 c 128,-1,55
 869 442 869 442 795 471 c 0,56,57
 746 490 746 490 712 517.5 c 128,-1,58
 678 545 678 545 655 575 c 128,-1,59
 632 605 632 605 618.5 637 c 128,-1,60
 605 669 605 669 599 697 c 0,61,62
 589 745 589 745 621 794.5 c 128,-1,63
 653 844 653 844 712 891.5 c 128,-1,64
 771 939 771 939 850.5 985 c 128,-1,65
 930 1031 930 1031 1015.5 1073 c 128,-1,66
 1101 1115 1101 1115 1185 1152 c 128,-1,67
 1269 1189 1269 1189 1337 1219 c 1,68,-1
 1285 1040 l 1,69,70
 1253 1031 1253 1031 1208 1015 c 128,-1,71
 1163 999 1163 999 1111.5 977 c 128,-1,72
 1060 955 1060 955 1005 929 c 128,-1,73
 950 903 950 903 898 875 c 128,-1,74
 846 847 846 847 799.5 819.5 c 128,-1,75
 753 792 753 792 719.5 767 c 128,-1,76
 686 742 686 742 668 721 c 128,-1,77
 650 700 650 700 652 685 c 0,78,79
 654 677 654 677 666 668.5 c 128,-1,80
 678 660 678 660 697 650.5 c 128,-1,81
 716 641 716 641 740.5 631.5 c 128,-1,82
 765 622 765 622 790 613 c 0,83,84
 880 579 880 579 963.5 534.5 c 128,-1,85
 1047 490 1047 490 1131 436.5 c 128,-1,86
 1215 383 1215 383 1302 318.5 c 128,-1,87
 1389 254 1389 254 1484 179 c 0,88,89
 1501 165 1501 165 1529 155 c 128,-1,90
 1557 145 1557 145 1591 145 c 0,91,92
 1609 145 1609 145 1621.5 137 c 128,-1,93
 1634 129 1634 129 1639 108 c 2,94,-1
 1653 38 l 2,0,1
EndSplineSet
EndChar

StartChar: afii52305
Encoding: 64400 64400 221
Width: 727
GlyphClass: 2
Flags: W
AnchorPoint: "Anchor-3" 345 -540 basechar 0
AnchorPoint: "Anchor-2" 60 1050 basechar 0
LayerCount: 2
Fore
SplineSet
-76 108 m 2,0,1
 -81 129 -81 129 -72 137 c 128,-1,2
 -63 145 -63 145 -45 145 c 2,3,-1
 144 145 l 2,4,5
 236 145 236 145 294 158.5 c 128,-1,6
 352 172 352 172 384.5 189.5 c 128,-1,7
 417 207 417 207 427.5 223.5 c 128,-1,8
 438 240 438 240 437 247 c 0,9,10
 434 259 434 259 404 292 c 128,-1,11
 374 325 374 325 324.5 365.5 c 128,-1,12
 275 406 275 406 208.5 447.5 c 128,-1,13
 142 489 142 489 66 520 c 0,14,15
 29 535 29 535 7.5 550.5 c 128,-1,16
 -14 566 -14 566 -27 585 c 128,-1,17
 -40 604 -40 604 -46.5 628.5 c 128,-1,18
 -53 653 -53 653 -61 685 c 0,19,20
 -68 719 -68 719 -69 741 c 128,-1,21
 -70 763 -70 763 -61.5 779.5 c 128,-1,22
 -53 796 -53 796 -36.5 811.5 c 128,-1,23
 -20 827 -20 827 8 848 c 0,24,25
 45 876 45 876 99 909 c 128,-1,26
 153 942 153 942 223 978 c 128,-1,27
 293 1014 293 1014 379.5 1051.5 c 128,-1,28
 466 1089 466 1089 569 1125 c 1,29,-1
 520 976 l 1,30,31
 449 953 449 953 381.5 927.5 c 128,-1,32
 314 902 314 902 253.5 875.5 c 128,-1,33
 193 849 193 849 142.5 824 c 128,-1,34
 92 799 92 799 56 776.5 c 128,-1,35
 20 754 20 754 1.5 737.5 c 128,-1,36
 -17 721 -17 721 -16 712 c 0,37,38
 -11 689 -11 689 6.5 675 c 128,-1,39
 24 661 24 661 69 646 c 0,40,41
 104 634 104 634 146 614.5 c 128,-1,42
 188 595 188 595 230.5 568.5 c 128,-1,43
 273 542 273 542 314.5 508.5 c 128,-1,44
 356 475 356 475 391 434.5 c 128,-1,45
 426 394 426 394 451.5 347 c 128,-1,46
 477 300 477 300 489 247 c 0,47,48
 504 169 504 169 482 121.5 c 128,-1,49
 460 74 460 74 413.5 46.5 c 128,-1,50
 367 19 367 19 303.5 9.5 c 128,-1,51
 240 0 240 0 173 0 c 2,52,-1
 0 0 l 2,53,54
 -18 0 -18 0 -37.5 8.5 c 128,-1,55
 -57 17 -57 17 -62 38 c 2,56,-1
 -76 108 l 2,0,1
EndSplineSet
EndChar

